<svg width="21" height="21" viewBox="0 0 21 21" fill="none" xmlns="http://www.w3.org/2000/svg">
<path d="M20.3776 8.47942C20.5047 9.15873 20.5741 9.87002 20.5741 10.6129C20.5742 16.4169 16.6885 20.5443 10.821 20.5443C5.20779 20.5443 0.661133 15.9977 0.661133 10.3844C0.661133 4.77114 5.20779 0.224487 10.821 0.224487C13.5644 0.224487 15.8563 1.23404 17.6156 2.87235L14.7513 5.73634V5.72981C13.6847 4.71372 12.3323 4.19314 10.821 4.19314C7.46842 4.19314 4.74426 7.02519 4.74426 10.3782C4.74426 13.7304 7.46837 16.5693 10.821 16.5693C13.8627 16.5693 15.9326 14.8293 16.3587 12.4419H10.821V8.47942H20.3776Z" fill="white"/>
</svg>
