<svg width="1172" height="155" viewBox="0 0 1172 155" fill="none" xmlns="http://www.w3.org/2000/svg">
<mask id="mask0" mask-type="alpha" maskUnits="userSpaceOnUse" x="0" y="0" width="1172" height="156">
<path d="M103.333 0V120.693C103.333 131.853 100.44 140.396 94.6533 146.32C89.0044 152.107 80.4622 155 69.0267 155H34.3067C23.1467 155 14.5356 152.176 8.47334 146.527C2.82445 140.464 0 131.853 0 120.693V85.9733H34.3067V120.693C34.3067 125.24 35.96 129.236 39.2667 132.68C42.7111 135.987 46.8444 137.64 51.6667 137.64C56.4889 137.64 60.5533 135.987 63.86 132.68C67.3044 129.236 69.0267 125.24 69.0267 120.693V0H103.333Z" fill="black"/>
<path d="M172.357 34.3067H206.87C216.515 34.3067 224.575 37.7511 231.05 44.64C237.939 51.2533 241.383 59.3822 241.383 69.0267V120.693C241.383 130.062 237.939 138.122 231.05 144.873C224.299 151.624 216.239 155 206.87 155H172.357C162.988 155 154.928 151.624 148.177 144.873C141.426 137.984 138.05 129.924 138.05 120.693V69.0267C138.05 59.3822 141.426 51.1845 148.177 44.4333C155.066 37.6822 163.126 34.3067 172.357 34.3067ZM172.357 69.0267V120.693C172.357 125.24 174.01 129.236 177.317 132.68C180.761 135.987 184.895 137.64 189.717 137.64C194.539 137.64 198.603 135.918 201.91 132.473C205.217 129.029 206.87 125.102 206.87 120.693V69.0267C206.87 64.2045 205.148 60.14 201.703 56.8333C198.397 53.3889 194.401 51.6667 189.717 51.6667C184.895 51.6667 180.761 53.3889 177.317 56.8333C174.01 60.14 172.357 64.2045 172.357 69.0267Z" fill="black"/>
<path d="M275.693 155V34.3067H310V51.6667C310.551 46.0178 312.273 41.7467 315.167 38.8533C318.198 35.8222 322.262 34.3067 327.36 34.3067H344.513C354.158 34.3067 362.218 37.7511 368.693 44.64C375.582 51.2533 379.027 59.3822 379.027 69.0267V155H344.513V69.0267C344.513 64.2045 342.791 60.14 339.347 56.8333C336.04 53.3889 332.044 51.6667 327.36 51.6667C322.538 51.6667 318.404 53.3889 314.96 56.8333C311.653 60.14 310 64.2045 310 69.0267V155H275.693Z" fill="black"/>
<path d="M516.67 103.333H447.643V120.693C447.643 125.24 449.296 129.236 452.603 132.68C456.048 135.987 460.181 137.64 465.003 137.64H482.156C493.592 137.64 499.31 131.991 499.31 120.693H516.67C513.914 143.564 502.41 155 482.156 155H447.643C438.274 155 430.214 151.624 423.463 144.873C416.712 137.984 413.336 129.924 413.336 120.693V69.0267C413.336 59.3822 416.712 51.1845 423.463 44.4333C430.352 37.6822 438.412 34.3067 447.643 34.3067H482.156C491.801 34.3067 499.861 37.7511 506.336 44.64C513.225 51.2533 516.67 59.3822 516.67 69.0267V103.333ZM447.643 85.9733H482.156V69.0267C482.156 64.2045 480.434 60.14 476.99 56.8333C473.683 53.3889 469.688 51.6667 465.003 51.6667C460.181 51.6667 456.048 53.3889 452.603 56.8333C449.296 60.14 447.643 64.2045 447.643 69.0267V85.9733Z" fill="black"/>
<path d="M636.953 69.0267H619.8C618.284 57.4533 612.842 51.6667 603.473 51.6667C597.549 51.6667 593.002 52.9067 589.833 55.3867C586.802 57.7289 585.286 61.2422 585.286 65.9267C585.286 70.7489 592.795 77.2245 607.813 85.3533C622.831 93.4822 631.442 100.027 633.646 104.987C635.851 109.809 636.953 114.907 636.953 120.28C636.953 129.924 633.509 138.122 626.62 144.873C619.731 151.624 611.74 155 602.646 155H585.286C562.415 155 550.98 143.564 550.98 120.693H568.133C569.373 132.129 574.746 137.847 584.253 137.847C590.177 137.847 594.793 136.607 598.1 134.127C601.131 131.509 602.646 127.927 602.646 123.38C602.646 118.696 595.069 112.22 579.913 103.953C564.758 95.6867 556.146 89.1422 554.08 84.32C552.013 79.4978 550.98 74.4 550.98 69.0267C550.98 59.3822 554.355 51.1845 561.106 44.4333C567.995 37.6822 576.055 34.3067 585.286 34.3067H602.646C613.531 34.3067 621.935 37.2689 627.86 43.1933C633.922 48.98 636.953 57.5911 636.953 69.0267Z" fill="black"/>
<path d="M826.667 0V120.693C826.667 131.853 823.773 140.396 817.987 146.32C812.338 152.107 803.795 155 792.36 155H757.64C746.48 155 737.869 152.176 731.807 146.527C726.158 140.464 723.333 131.853 723.333 120.693V85.9733H757.64V120.693C757.64 125.24 759.293 129.236 762.6 132.68C766.044 135.987 770.178 137.64 775 137.64C779.822 137.64 783.887 135.987 787.193 132.68C790.638 129.236 792.36 125.24 792.36 120.693V0H826.667Z" fill="black"/>
<path d="M930.203 85.9733V69.0267C930.203 64.2045 928.481 60.14 925.037 56.8333C921.73 53.3889 917.734 51.6667 913.05 51.6667H895.69C885.77 51.6667 880.052 57.4533 878.537 69.0267H861.383C863.863 45.88 875.299 34.3067 895.69 34.3067H930.203C939.848 34.3067 947.908 37.7511 954.383 44.64C961.272 51.2533 964.717 59.3822 964.717 69.0267V155H930.203V137.64C928.963 149.213 923.246 155 913.05 155H895.69C886.321 155 878.261 151.624 871.51 144.873C864.759 137.984 861.383 129.924 861.383 120.693C861.383 111.049 864.759 102.851 871.51 96.1C878.399 89.3489 886.459 85.9733 895.69 85.9733H930.203ZM930.203 103.333H913.05C908.228 103.333 904.094 105.056 900.65 108.5C897.343 111.807 895.69 115.802 895.69 120.487C895.69 125.171 897.343 129.236 900.65 132.68C904.094 135.987 908.228 137.64 913.05 137.64C917.872 137.64 921.937 135.918 925.243 132.473C928.55 129.029 930.203 125.102 930.203 120.693V103.333Z" fill="black"/>
<path d="M1102.36 155H1067.85V69.0267C1067.85 64.2045 1066.12 60.14 1062.68 56.8333C1059.37 53.3889 1055.38 51.6667 1050.69 51.6667C1045.87 51.6667 1041.74 53.3889 1038.29 56.8333C1034.99 60.14 1033.33 64.2045 1033.33 69.0267V155H999.027V34.3067H1033.33V51.6667C1033.88 46.0178 1035.61 41.7467 1038.5 38.8533C1041.53 35.8222 1045.6 34.3067 1050.69 34.3067H1067.85C1079.42 34.3067 1088.03 38.3711 1093.68 46.5C1096.57 42.3667 1100.09 39.3356 1104.22 37.4067C1108.35 35.34 1113.45 34.3067 1119.51 34.3067H1136.67C1146.04 34.3067 1154.1 37.7511 1160.85 44.64C1167.74 51.3911 1171.18 59.52 1171.18 69.0267V155H1136.67V69.0267C1136.67 64.2045 1134.94 60.14 1131.5 56.8333C1128.19 53.3889 1124.2 51.6667 1119.51 51.6667C1114.83 51.6667 1110.76 53.3889 1107.32 56.8333C1104.01 60.14 1102.36 64.2045 1102.36 69.0267V155Z" fill="black"/>
</mask>
<g mask="url(#mask0)">
<rect x="975.73" y="-298.031" width="598.676" height="1193.33" transform="rotate(41.2848 975.73 -298.031)" fill="#6461FF"/>
<rect x="744.685" y="-305.043" width="304.315" height="1062.54" transform="rotate(41.2848 744.685 -305.043)" fill="#FF3B50"/>
<rect x="99.8634" y="-563.909" width="656.672" height="1062.54" transform="rotate(41.2848 99.8634 -563.909)" fill="#F2C215"/>
</g>
</svg>
