<svg width="255" height="120" viewBox="0 0 255 120" fill="none" xmlns="http://www.w3.org/2000/svg">
<mask id="mask0" mask-type="alpha" maskUnits="userSpaceOnUse" x="0" y="22" width="99" height="70">
<path d="M45.8574 22.75V75.894C45.8574 80.808 44.5834 84.5693 42.0354 87.178C39.5481 89.726 35.7868 91 30.7514 91H15.4634C10.5494 91 6.75776 89.7563 4.08842 87.269C1.60109 84.5997 0.357422 80.808 0.357422 75.894V60.606H15.4634V75.894C15.4634 77.896 16.1914 79.6553 17.6474 81.172C19.1641 82.628 20.9841 83.356 23.1074 83.356C25.2308 83.356 27.0204 82.628 28.4764 81.172C29.9931 79.6553 30.7514 77.896 30.7514 75.894V22.75H45.8574ZM99 22.75V75.894C99 80.808 97.726 84.5693 95.178 87.178C92.6907 89.726 88.9293 91 83.894 91H68.606C63.692 91 59.9003 89.7563 57.231 87.269C54.7437 84.5997 53.5 80.808 53.5 75.894V60.606H68.606V75.894C68.606 77.896 69.334 79.6553 70.79 81.172C72.3067 82.628 74.1267 83.356 76.25 83.356C78.3733 83.356 80.163 82.628 81.619 81.172C83.1357 79.6553 83.894 77.896 83.894 75.894V22.75H99Z" fill="black"/>
</mask>
<g mask="url(#mask0)">
<rect x="615.841" y="-564" width="656.066" height="1307.73" transform="rotate(41.2848 615.841 -564)" fill="#6461FF"/>
<rect x="497.268" y="-477" width="39.6803" height="1164.39" transform="rotate(41.2848 497.268 -477)" fill="#FF3B50"/>
<rect x="-197.732" y="-772" width="719.621" height="1164.39" transform="rotate(41.2848 -197.732 -772)" fill="#F2C215"/>
</g>
<path d="M125.079 91V61H138.399C140.239 61 141.812 61.6667 143.119 63C144.425 64.3067 145.079 65.8533 145.079 67.64V71C145.079 72.8133 144.425 74.3733 143.119 75.68C141.812 76.9867 140.239 77.64 138.399 77.64H131.719V91H125.079ZM131.719 74.36H135.079C135.959 74.36 136.732 74.04 137.399 73.4C138.065 72.7333 138.399 71.9333 138.399 71V67.64C138.399 66.76 138.065 66 137.399 65.36C136.759 64.6933 135.985 64.36 135.079 64.36H131.719V74.36ZM158.359 67.64H165.039C166.906 67.64 168.466 68.3067 169.719 69.64C171.053 70.92 171.719 72.4933 171.719 74.36V84.36C171.719 86.1733 171.053 87.7333 169.719 89.04C168.413 90.3467 166.853 91 165.039 91H158.359C156.546 91 154.986 90.3467 153.679 89.04C152.373 87.7067 151.719 86.1467 151.719 84.36V74.36C151.719 72.4933 152.373 70.9067 153.679 69.6C155.013 68.2933 156.573 67.64 158.359 67.64ZM158.359 74.36V84.36C158.359 85.24 158.679 86.0133 159.319 86.68C159.986 87.32 160.786 87.64 161.719 87.64C162.653 87.64 163.439 87.3067 164.079 86.64C164.719 85.9733 165.039 85.2133 165.039 84.36V74.36C165.039 73.4267 164.706 72.64 164.039 72C163.399 71.3333 162.626 71 161.719 71C160.786 71 159.986 71.3333 159.319 72C158.679 72.64 158.359 73.4267 158.359 74.36ZM185 91H178.36V67.64H185V74.36C185.24 72.0933 185.92 70.4133 187.04 69.32C188.16 68.2 189.707 67.64 191.68 67.64H195V74.36H188.36C187.4 74.36 186.6 74.68 185.96 75.32C185.32 75.96 185 76.7333 185 77.64V91ZM201.68 61H208.36V67.64H211.68V71H208.36V84.36C208.36 85.4533 208.707 86.28 209.4 86.84C210.093 87.3733 210.747 87.64 211.36 87.64H211.68V91H208.36C206.493 91 204.907 90.3333 203.6 89C202.32 87.6667 201.68 86.12 201.68 84.36V71H198.36V67.64H201.68V61ZM231.68 77.64V74.36C231.68 73.4267 231.347 72.64 230.68 72C230.04 71.3333 229.267 71 228.36 71H225C223.08 71 221.973 72.12 221.68 74.36H218.36C218.84 69.88 221.053 67.64 225 67.64H231.68C233.547 67.64 235.107 68.3067 236.36 69.64C237.693 70.92 238.36 72.4933 238.36 74.36V91H231.68V87.64C231.44 89.88 230.333 91 228.36 91H225C223.187 91 221.627 90.3467 220.32 89.04C219.013 87.7067 218.36 86.1467 218.36 84.36C218.36 82.4933 219.013 80.9067 220.32 79.6C221.653 78.2933 223.213 77.64 225 77.64H231.68ZM231.68 81H228.36C227.427 81 226.627 81.3333 225.96 82C225.32 82.64 225 83.4133 225 84.32C225 85.2267 225.32 86.0133 225.96 86.68C226.627 87.32 227.427 87.64 228.36 87.64C229.293 87.64 230.08 87.3067 230.72 86.64C231.36 85.9733 231.68 85.2133 231.68 84.36V81ZM245.001 91V61H251.641V91H245.001Z" fill="black"/>
</svg>
