<svg width="145" height="44" viewBox="0 0 145 44" fill="none" xmlns="http://www.w3.org/2000/svg">
<path opacity="0.6" d="M42.6263 18.4879C42.5589 18.1305 42.1384 17.9762 41.8352 18.177C39.9481 19.4267 37.6852 20.1545 35.2524 20.1545C28.6595 20.1545 23.3148 14.8098 23.3148 8.21688C23.3148 5.94631 23.9487 3.8238 25.0492 2.01668C25.2384 1.70598 25.0682 1.29161 24.7085 1.23778C23.6617 1.08117 22.5903 1 21.5 1C9.62588 1 0 10.6259 0 22.5C0 34.3741 9.62588 44 21.5 44C33.3741 44 43 34.3741 43 22.5C43 21.1289 42.8717 19.7877 42.6263 18.4879Z" fill="#717EF0"/>
<path d="M35.2529 16.4335C39.7908 16.4335 43.4696 12.7547 43.4696 8.21672C43.4696 3.67875 39.7908 -3.90389e-06 35.2529 -3.90389e-06C30.7149 -3.90389e-06 27.0361 3.67875 27.0361 8.21672C27.0361 12.7547 30.7149 16.4335 35.2529 16.4335Z" fill="#FF98AB"/>
<path d="M55.1312 16.4335C59.8156 16.4335 63.613 12.7547 63.613 8.21673C63.613 3.67875 59.8156 0 55.1312 0C50.4468 0 46.6494 3.67875 46.6494 8.21673C46.6494 12.7547 50.4468 16.4335 55.1312 16.4335Z" fill="#FF98AB"/>
<path d="M74.7456 16.4335C79.1372 16.4335 82.6973 12.7547 82.6973 8.21673C82.6973 3.67875 79.1372 0 74.7456 0C70.354 0 66.7939 3.67875 66.7939 8.21673C66.7939 12.7547 70.354 16.4335 74.7456 16.4335Z" fill="#FF98AB"/>
<path d="M95.1552 16.4335C99.6932 16.4335 103.372 12.7547 103.372 8.21673C103.372 3.67875 99.6932 0 95.1552 0C90.6172 0 86.9385 3.67875 86.9385 8.21673C86.9385 12.7547 90.6172 16.4335 95.1552 16.4335Z" fill="#FF98AB"/>
<path d="M60.9214 24.4989C59.5155 23.1051 57.5927 22.2646 55.4632 22.2646C51.1834 22.2646 47.71 25.7083 47.71 29.9513C47.71 34.1943 51.1834 37.6379 55.4632 37.6379C57.6134 37.6379 59.5568 36.7565 60.9627 35.3626L58.0682 32.534C57.4273 33.1899 56.5176 33.5589 55.4632 33.5589C53.3543 33.5589 51.8243 32.042 51.8243 29.9513C51.8243 27.8605 53.3543 26.3437 55.4632 26.3437C56.5176 26.3437 57.4273 26.7126 58.0682 27.3481L60.9214 24.4989Z" fill="#3A3A3A"/>
<path d="M64.1435 22.2646V37.6379H68.1093V31.7756H72.9005V37.6379H76.8662V22.2646H72.9005V27.7375H68.1093V22.2646H64.1435Z" fill="#3A3A3A"/>
<path d="M79.5166 37.6379H83.7575V22.2646H79.5166V37.6379Z" fill="#3A3A3A"/>
<path d="M99.6196 24.4989C98.2137 23.1051 96.2909 22.2646 94.1614 22.2646C89.8816 22.2646 86.4082 25.7083 86.4082 29.9513C86.4082 34.1943 89.8816 37.6379 94.1614 37.6379C96.3116 37.6379 98.2551 36.7565 99.661 35.3626L96.7665 32.534C96.1255 33.1899 95.2158 33.5589 94.1614 33.5589C92.0525 33.5589 90.5225 32.042 90.5225 29.9513C90.5225 27.8605 92.0525 26.3437 94.1614 26.3437C95.2158 26.3437 96.1255 26.7126 96.7665 27.3481L99.6196 24.4989Z" fill="#3A3A3A"/>
<path d="M101.781 29.9718C101.781 34.2148 105.091 37.6379 109.193 37.6379C113.295 37.6379 116.624 34.2148 116.624 29.9718C116.624 25.7288 113.295 22.2646 109.193 22.2646C105.091 22.2646 101.781 25.7288 101.781 29.9718ZM112.74 29.9513C112.74 31.96 111.155 33.6203 109.193 33.6203C107.251 33.6203 105.665 31.96 105.665 29.9513C105.665 27.922 107.251 26.2822 109.193 26.2822C111.155 26.2822 112.74 27.922 112.74 29.9513Z" fill="#3A3A3A"/>
<path d="M119.275 37.6379H124.917C129.119 37.6379 132.528 34.1943 132.528 29.9513C132.528 25.7083 129.119 22.2646 124.917 22.2646H119.275V37.6379ZM123.253 26.3437H124.938C126.927 26.3437 128.55 27.9835 128.55 29.9718C128.55 31.9805 126.927 33.6203 124.938 33.6203H123.253V26.3437Z" fill="#3A3A3A"/>
<path d="M134.648 37.6379H144.19V34.3378H138.682V31.5091H143.556V28.1065H138.682V25.6058H144.19V22.2646H134.648V37.6379Z" fill="#3A3A3A"/>
</svg>
