<svg width="1528" height="563" viewBox="0 0 1528 563" fill="none" xmlns="http://www.w3.org/2000/svg">
<path d="M270.08 269.947C270.08 294.841 263.319 313.895 249.796 327.111C236.581 340.019 217.68 346.473 193.093 346.473H116.106C95.2078 346.473 77.2288 338.943 62.1694 323.884C47.1101 308.517 39.5804 290.538 39.5804 269.947V77.2486C39.5804 56.9646 46.8028 39.1393 61.2475 23.7726C75.9994 8.40596 94.2858 0.722629 116.106 0.722629H193.093C217.373 0.722629 236.274 7.17664 249.796 20.0847C263.319 32.9927 270.08 52.0473 270.08 77.2486H231.356C228.59 52.0473 215.836 39.4467 193.093 39.4467H154.83C143.766 39.4467 134.546 43.1347 127.17 50.5106C119.794 57.8866 116.106 66.7993 116.106 77.2486V269.947C116.106 280.089 119.794 289.001 127.17 296.685C134.854 304.061 144.074 307.749 154.83 307.749H193.093C215.529 307.749 228.283 295.148 231.356 269.947H270.08ZM367.82 0.722629H444.807C466.013 0.722629 484.145 8.40596 499.205 23.7726C514.264 38.832 521.794 56.6573 521.794 77.2486V269.947C521.794 290.845 514.11 308.824 498.744 323.884C483.684 338.943 465.705 346.473 444.807 346.473H367.82C346.921 346.473 328.942 338.943 313.883 323.884C298.823 308.517 291.294 290.538 291.294 269.947V77.2486C291.294 56.6573 298.67 38.832 313.422 23.7726C328.481 8.40596 346.614 0.722629 367.82 0.722629ZM367.82 77.2486V269.947C367.82 280.089 371.508 289.001 378.884 296.685C386.567 304.061 395.787 307.749 406.544 307.749C417.3 307.749 426.367 303.907 433.743 296.224C441.119 288.54 444.807 279.781 444.807 269.947V77.2486C444.807 67.1066 440.965 58.3476 433.282 50.9716C425.906 43.2883 416.993 39.4467 406.544 39.4467C395.48 39.4467 386.26 43.1347 378.884 50.5106C371.508 57.8866 367.82 66.7993 367.82 77.2486ZM543.007 346.473V0.722629H696.52C717.726 0.722629 735.859 8.40596 750.918 23.7726C765.977 38.832 773.507 56.6573 773.507 77.2486V269.947C773.507 290.845 765.824 308.824 750.457 323.884C735.398 338.943 717.419 346.473 696.52 346.473H543.007ZM619.533 307.749H658.257C669.014 307.749 678.08 303.907 685.456 296.224C692.832 288.54 696.52 279.781 696.52 269.947V77.2486C696.52 67.1066 692.678 58.3476 684.995 50.9716C677.619 43.2883 668.706 39.4467 658.257 39.4467H619.533V307.749ZM832.522 346.473V0.722629H909.509V346.473H832.522ZM969.9 346.473V0.722629H986.957L1200.4 192.499V0.722629H1238.66V346.473H1221.15L1008.16 154.697V346.473H969.9ZM1375.58 154.697H1490.83V269.947C1490.83 294.841 1482.53 313.895 1465.94 327.111C1449.65 340.019 1432.28 346.473 1413.84 346.473H1336.86C1315.96 346.473 1297.98 338.943 1282.92 323.884C1267.86 308.517 1260.33 290.538 1260.33 269.947V77.2486C1260.33 56.9646 1267.55 39.1393 1282 23.7726C1296.75 8.40596 1315.04 0.722629 1336.86 0.722629H1413.84C1438.12 0.722629 1457.02 7.17664 1470.55 20.0847C1484.07 32.9927 1490.83 52.0473 1490.83 77.2486H1452.11C1449.34 52.0473 1436.59 39.4467 1413.84 39.4467H1375.58C1364.52 39.4467 1355.3 43.1347 1347.92 50.5106C1340.54 57.8866 1336.86 66.7993 1336.86 77.2486V269.947C1336.86 280.396 1340.7 289.309 1348.38 296.685C1356.06 304.061 1365.13 307.749 1375.58 307.749C1401.09 307.749 1413.84 295.148 1413.84 269.947V192.499H1375.58V154.697Z" fill="white"/>
<path d="M46.1635 353.973H92.3115V539.121H115.664C122.15 539.121 127.618 536.804 132.066 532.171C136.514 527.537 138.738 522.255 138.738 516.325V353.973H185.164V539.121H208.238C214.724 539.121 220.192 536.804 224.64 532.171C229.088 527.537 231.312 522.255 231.312 516.325V353.973H277.738V483.243C277.738 504.556 269.861 523.089 254.108 538.843C238.354 554.596 219.821 562.473 198.508 562.473H138.738V554.967C129.842 559.971 118.907 562.473 105.934 562.473H46.1635V353.973ZM339.732 353.973H386.158C398.946 353.973 409.88 358.606 418.962 367.873C428.043 376.954 432.584 387.703 432.584 400.121V516.325C432.584 528.927 427.95 539.769 418.684 548.851C409.602 557.932 398.76 562.473 386.158 562.473H339.732C327.129 562.473 316.287 557.932 307.206 548.851C298.124 539.584 293.584 528.742 293.584 516.325V400.121C293.584 387.703 298.032 376.954 306.928 367.873C316.009 358.606 326.944 353.973 339.732 353.973ZM339.732 400.121V516.325C339.732 522.441 341.956 527.815 346.404 532.449C351.037 536.897 356.597 539.121 363.084 539.121C369.57 539.121 375.038 536.804 379.486 532.171C383.934 527.537 386.158 522.255 386.158 516.325V400.121C386.158 394.005 383.841 388.723 379.208 384.275C374.76 379.641 369.385 377.325 363.084 377.325C356.412 377.325 350.852 379.549 346.404 383.997C341.956 388.445 339.732 393.819 339.732 400.121ZM448.156 562.473V353.973H540.73C553.518 353.973 564.453 358.606 573.534 367.873C582.615 376.954 587.156 387.703 587.156 400.121V412.909C587.156 423.287 583.635 433.295 576.592 442.933C569.549 452.385 557.595 457.111 540.73 457.111H563.804C570.105 457.111 575.573 459.427 580.206 464.061C584.839 468.694 587.156 474.161 587.156 480.463V562.473H540.73V492.973C540.73 486.671 538.413 481.204 533.78 476.571C529.147 471.937 523.772 469.621 517.656 469.621H494.304V562.473H448.156ZM494.304 446.825H517.656C523.772 446.825 529.147 444.601 533.78 440.153C538.413 435.519 540.73 429.959 540.73 423.473V400.121C540.73 394.005 538.413 388.723 533.78 384.275C529.332 379.641 523.957 377.325 517.656 377.325H494.304V446.825ZM602.728 562.473V353.973H648.876V439.041L723.936 353.973H764.802L672.228 458.223L764.802 562.473H718.376L648.876 481.575V562.473H602.728ZM896.296 400.121H873.222C871.184 384.738 863.863 377.047 851.26 377.047C843.291 377.047 837.175 378.993 832.912 382.885C828.835 386.777 826.796 392.615 826.796 400.399C826.796 406.329 829.113 411.704 833.746 416.523L882.674 471.845C891.756 481.667 896.296 492.509 896.296 504.371V516.325C896.296 528.927 891.756 539.769 882.674 548.851C873.593 557.932 862.751 562.473 850.148 562.473H826.796C811.784 562.473 800.201 558.673 792.046 551.075C784.448 542.92 780.648 531.337 780.648 516.325H803.722L803.444 519.939C803.444 526.24 805.761 531.059 810.394 534.395C815.213 537.545 820.68 539.121 826.796 539.121C834.951 539.121 840.882 537.175 844.588 533.283C848.295 529.205 850.148 523.367 850.148 515.769C850.148 509.838 847.832 504.463 843.198 499.645L793.992 444.601C785.096 434.593 780.648 423.751 780.648 412.075V400.121C780.648 387.703 785.096 376.954 793.992 367.873C802.888 358.606 813.823 353.973 826.796 353.973H850.148C864.975 353.973 876.373 357.865 884.342 365.649C892.312 373.247 896.296 384.738 896.296 400.121ZM912.416 562.473V353.973H958.564V446.825H1004.99V353.973H1051.42V562.473H1004.99V469.621H958.564V562.473H912.416ZM1113.14 353.973H1159.56C1172.35 353.973 1183.28 358.606 1192.37 367.873C1201.45 376.954 1205.99 387.703 1205.99 400.121V516.325C1205.99 528.927 1201.35 539.769 1192.09 548.851C1183.01 557.932 1172.16 562.473 1159.56 562.473H1113.14C1100.53 562.473 1089.69 557.932 1080.61 548.851C1071.53 539.584 1066.99 528.742 1066.99 516.325V400.121C1066.99 387.703 1071.44 376.954 1080.33 367.873C1089.41 358.606 1100.35 353.973 1113.14 353.973ZM1113.14 400.121V516.325C1113.14 522.441 1115.36 527.815 1119.81 532.449C1124.44 536.897 1130 539.121 1136.49 539.121C1142.97 539.121 1148.44 536.804 1152.89 532.171C1157.34 527.537 1159.56 522.255 1159.56 516.325V400.121C1159.56 394.005 1157.25 388.723 1152.61 384.275C1148.16 379.641 1142.79 377.325 1136.49 377.325C1129.82 377.325 1124.26 379.549 1119.81 383.997C1115.36 388.445 1113.14 393.819 1113.14 400.121ZM1221.56 562.473V353.973H1314.13C1326.92 353.973 1337.86 358.606 1346.94 367.873C1356.02 376.954 1360.56 387.703 1360.56 400.121V423.473C1360.56 436.075 1356.02 446.917 1346.94 455.999C1337.86 465.08 1326.92 469.621 1314.13 469.621H1267.71V562.473H1221.56ZM1267.71 446.825H1291.06C1297.18 446.825 1302.55 444.601 1307.18 440.153C1311.82 435.519 1314.13 429.959 1314.13 423.473V400.121C1314.13 394.005 1311.82 388.723 1307.18 384.275C1302.74 379.641 1297.36 377.325 1291.06 377.325H1267.71V446.825ZM1491.78 400.121H1468.71C1466.67 384.738 1459.35 377.047 1446.74 377.047C1438.78 377.047 1432.66 378.993 1428.4 382.885C1424.32 386.777 1422.28 392.615 1422.28 400.399C1422.28 406.329 1424.6 411.704 1429.23 416.523L1478.16 471.845C1487.24 481.667 1491.78 492.509 1491.78 504.371V516.325C1491.78 528.927 1487.24 539.769 1478.16 548.851C1469.08 557.932 1458.24 562.473 1445.63 562.473H1422.28C1407.27 562.473 1395.69 558.673 1387.53 551.075C1379.93 542.92 1376.13 531.337 1376.13 516.325H1399.21L1398.93 519.939C1398.93 526.24 1401.25 531.059 1405.88 534.395C1410.7 537.545 1416.16 539.121 1422.28 539.121C1430.44 539.121 1436.37 537.175 1440.07 533.283C1443.78 529.205 1445.63 523.367 1445.63 515.769C1445.63 509.838 1443.32 504.463 1438.68 499.645L1389.48 444.601C1380.58 434.593 1376.13 423.751 1376.13 412.075V400.121C1376.13 387.703 1380.58 376.954 1389.48 367.873C1398.37 358.606 1409.31 353.973 1422.28 353.973H1445.63C1460.46 353.973 1471.86 357.865 1479.83 365.649C1487.8 373.247 1491.78 384.738 1491.78 400.121Z" fill="black"/>
</svg>
