<svg width="607" height="91" viewBox="0 0 607 91" fill="none" xmlns="http://www.w3.org/2000/svg">
<g opacity="0.9">
<mask id="mask0" mask-type="alpha" maskUnits="userSpaceOnUse" x="0" y="14" width="603" height="43">
<path d="M28.1482 14.7007L28.1482 47.4047C28.1482 50.4287 27.3642 52.7434 25.7962 54.3487C24.2655 55.9167 21.9509 56.7007 18.8522 56.7007L9.44418 56.7007C6.42018 56.7007 4.08685 55.9354 2.44418 54.4047C0.913518 52.762 0.148185 50.4287 0.148185 47.4047L0.148187 37.9967L9.44419 37.9967L9.44419 47.4047C9.44419 48.6367 9.89219 49.7194 10.7882 50.6527C11.7215 51.5487 12.8415 51.9967 14.1482 51.9967C15.4549 51.9967 16.5562 51.5487 17.4522 50.6527C18.3855 49.7194 18.8522 48.6367 18.8522 47.4047L18.8522 14.7007L28.1482 14.7007ZM46.8513 23.9967L56.2033 23.9967C58.8166 23.9967 61.0006 24.93 62.7553 26.7967C64.622 28.5887 65.5553 30.7914 65.5553 33.4047L65.5553 47.4047C65.5553 49.9434 64.622 52.1274 62.7553 53.9567C60.926 55.786 58.742 56.7007 56.2033 56.7007L46.8513 56.7007C44.3126 56.7007 42.1286 55.786 40.2993 53.9567C38.47 52.09 37.5553 49.906 37.5553 47.4047L37.5553 33.4047C37.5553 30.7914 38.47 28.57 40.2993 26.7407C42.166 24.9114 44.35 23.9967 46.8513 23.9967ZM46.8513 33.4047L46.8513 47.4047C46.8513 48.6367 47.2993 49.7194 48.1953 50.6527C49.1286 51.5487 50.2486 51.9967 51.5553 51.9967C52.862 51.9967 53.9633 51.53 54.8593 50.5967C55.7553 49.6634 56.2033 48.5994 56.2033 47.4047L56.2033 33.4047C56.2033 32.098 55.7366 30.9967 54.8033 30.1007C53.9073 29.1674 52.8246 28.7007 51.5553 28.7007C50.2486 28.7007 49.1286 29.1674 48.1953 30.1007C47.2993 30.9967 46.8513 32.098 46.8513 33.4047ZM74.8522 56.7007L74.8522 23.9967L84.1482 23.9967L84.1482 28.7007C84.2975 27.17 84.7642 26.0127 85.5482 25.2287C86.3695 24.4074 87.4709 23.9967 88.8522 23.9967L93.5002 23.9967C96.1135 23.9967 98.2975 24.93 100.052 26.7967C101.919 28.5887 102.852 30.7914 102.852 33.4047L102.852 56.7007L93.5002 56.7007L93.5002 33.4047C93.5002 32.098 93.0335 30.9967 92.1002 30.1007C91.2042 29.1674 90.1215 28.7007 88.8522 28.7007C87.5455 28.7007 86.4255 29.1674 85.4922 30.1007C84.5962 30.9967 84.1482 32.098 84.1482 33.4047L84.1482 56.7007L74.8522 56.7007ZM140.149 42.7007L121.445 42.7007L121.445 47.4047C121.445 48.6367 121.893 49.7194 122.789 50.6527C123.722 51.5487 124.842 51.9967 126.149 51.9967L130.797 51.9967C133.896 51.9967 135.445 50.466 135.445 47.4047L140.149 47.4047C139.402 53.602 136.285 56.7007 130.797 56.7007L121.445 56.7007C118.906 56.7007 116.722 55.786 114.893 53.9567C113.064 52.09 112.149 49.906 112.149 47.4047L112.149 33.4047C112.149 30.7914 113.064 28.57 114.893 26.7407C116.76 24.9114 118.944 23.9967 121.445 23.9967L130.797 23.9967C133.41 23.9967 135.594 24.93 137.349 26.7967C139.216 28.5887 140.149 30.7914 140.149 33.4047L140.149 42.7007ZM121.445 37.9967L130.797 37.9967L130.797 33.4047C130.797 32.098 130.33 30.9967 129.397 30.1007C128.501 29.1674 127.418 28.7007 126.149 28.7007C124.842 28.7007 123.722 29.1674 122.789 30.1007C121.893 30.9967 121.445 32.098 121.445 33.4047L121.445 37.9967ZM172.742 33.4047L168.094 33.4047C167.683 30.2687 166.209 28.7007 163.67 28.7007C162.065 28.7007 160.833 29.0367 159.974 29.7087C159.153 30.3434 158.742 31.2954 158.742 32.5647C158.742 33.8714 160.777 35.626 164.846 37.8287C168.915 40.0314 171.249 41.8047 171.846 43.1487C172.443 44.4554 172.742 45.8367 172.742 47.2927C172.742 49.906 171.809 52.1274 169.942 53.9567C168.075 55.786 165.91 56.7007 163.446 56.7007L158.742 56.7007C152.545 56.7007 149.446 53.602 149.446 47.4047L154.094 47.4047C154.43 50.5034 155.886 52.0527 158.462 52.0527C160.067 52.0527 161.318 51.7167 162.214 51.0447C163.035 50.3354 163.446 49.3647 163.446 48.1327C163.446 46.8634 161.393 45.1087 157.286 42.8687C153.179 40.6287 150.846 38.8554 150.286 37.5487C149.726 36.242 149.446 34.8607 149.446 33.4047C149.446 30.7914 150.361 28.57 152.19 26.7407C154.057 24.9114 156.241 23.9967 158.742 23.9967L163.446 23.9967C166.395 23.9967 168.673 24.7994 170.278 26.4047C171.921 27.9727 172.742 30.306 172.742 33.4047ZM224.148 14.7007L224.148 47.4047C224.148 50.4287 223.364 52.7434 221.796 54.3487C220.266 55.9167 217.951 56.7007 214.852 56.7007L205.444 56.7007C202.42 56.7007 200.087 55.9354 198.444 54.4047C196.914 52.7621 196.148 50.4287 196.148 47.4047L196.148 37.9967L205.444 37.9967L205.444 47.4047C205.444 48.6367 205.892 49.7194 206.788 50.6527C207.722 51.5487 208.842 51.9967 210.148 51.9967C211.455 51.9967 212.556 51.5487 213.452 50.6527C214.386 49.7194 214.852 48.6367 214.852 47.4047L214.852 14.7007L224.148 14.7007ZM252.203 37.9967L252.203 33.4047C252.203 32.0981 251.737 30.9967 250.803 30.1007C249.907 29.1674 248.825 28.7007 247.555 28.7007L242.851 28.7007C240.163 28.7007 238.614 30.2687 238.203 33.4047L233.555 33.4047C234.227 27.1327 237.326 23.9967 242.851 23.9967L252.203 23.9967C254.817 23.9967 257.001 24.9301 258.755 26.7967C260.622 28.5887 261.555 30.7914 261.555 33.4047L261.555 56.7007L252.203 56.7007L252.203 51.9967C251.867 55.1327 250.318 56.7007 247.555 56.7007L242.851 56.7007C240.313 56.7007 238.129 55.7861 236.299 53.9567C234.47 52.0901 233.555 49.9061 233.555 47.4047C233.555 44.7914 234.47 42.5701 236.299 40.7407C238.166 38.9114 240.35 37.9967 242.851 37.9967L252.203 37.9967ZM252.203 42.7007L247.555 42.7007C246.249 42.7007 245.129 43.1674 244.195 44.1007C243.299 44.9967 242.851 46.0794 242.851 47.3487C242.851 48.6181 243.299 49.7194 244.195 50.6527C245.129 51.5487 246.249 51.9967 247.555 51.9967C248.862 51.9967 249.963 51.5301 250.859 50.5967C251.755 49.6634 252.203 48.5994 252.203 47.4047L252.203 42.7007ZM298.852 56.7007L289.5 56.7007L289.5 33.4047C289.5 32.0981 289.034 30.9967 288.1 30.1007C287.204 29.1674 286.122 28.7007 284.852 28.7007C283.546 28.7007 282.426 29.1674 281.492 30.1007C280.596 30.9967 280.148 32.0981 280.148 33.4047L280.148 56.7007L270.852 56.7007L270.852 23.9967L280.148 23.9967L280.148 28.7007C280.298 27.1701 280.764 26.0127 281.548 25.2287C282.37 24.4074 283.471 23.9967 284.852 23.9967L289.5 23.9967C292.636 23.9967 294.97 25.0981 296.5 27.3007C297.284 26.1807 298.236 25.3594 299.356 24.8367C300.476 24.2767 301.858 23.9967 303.5 23.9967L308.148 23.9967C310.687 23.9967 312.871 24.9301 314.7 26.7967C316.567 28.6261 317.5 30.8287 317.5 33.4047L317.5 56.7007L308.148 56.7007L308.148 33.4047C308.148 32.0981 307.682 30.9967 306.748 30.1007C305.852 29.1674 304.77 28.7007 303.5 28.7007C302.231 28.7007 301.13 29.1674 300.196 30.1007C299.3 30.9967 298.852 32.0981 298.852 33.4047L298.852 56.7007ZM359.555 33.4047L373.555 33.4047L373.555 47.4047C373.555 50.4287 372.547 52.7434 370.531 54.3487C368.553 55.9167 366.443 56.7007 364.203 56.7007L354.851 56.7007C352.313 56.7007 350.129 55.7861 348.299 53.9567C346.47 52.0901 345.555 49.9061 345.555 47.4047L345.555 23.9967C345.555 21.5327 346.433 19.3674 348.187 17.5007C349.979 15.6341 352.201 14.7007 354.851 14.7007L364.203 14.7007C367.153 14.7007 369.449 15.4847 371.091 17.0527C372.734 18.6207 373.555 20.9354 373.555 23.9967L368.851 23.9967C368.515 20.9354 366.966 19.4047 364.203 19.4047L359.555 19.4047C358.211 19.4047 357.091 19.8527 356.195 20.7487C355.299 21.6447 354.851 22.7274 354.851 23.9967L354.851 47.4047C354.851 48.6741 355.318 49.7567 356.251 50.6527C357.185 51.5487 358.286 51.9967 359.555 51.9967C362.654 51.9967 364.203 50.4661 364.203 47.4047L364.203 37.9967L359.555 37.9967L359.555 33.4047ZM392.148 23.9967L401.5 23.9968C404.114 23.9968 406.298 24.9301 408.052 26.7968C409.919 28.5888 410.852 30.7914 410.852 33.4048L410.852 47.4048C410.852 49.9434 409.919 52.1274 408.052 53.9568C406.223 55.7861 404.039 56.7008 401.5 56.7008L392.148 56.7008C389.61 56.7008 387.426 55.7861 385.596 53.9568C383.767 52.0901 382.852 49.9061 382.852 47.4048L382.852 33.4048C382.852 30.7914 383.767 28.5701 385.596 26.7407C387.463 24.9114 389.647 23.9967 392.148 23.9967ZM392.148 33.4048L392.148 47.4048C392.148 48.6368 392.596 49.7194 393.492 50.6528C394.426 51.5488 395.546 51.9968 396.852 51.9968C398.159 51.9968 399.26 51.5301 400.156 50.5968C401.052 49.6634 401.5 48.5994 401.5 47.4048L401.5 33.4048C401.5 32.0981 401.034 30.9968 400.1 30.1008C399.204 29.1674 398.122 28.7008 396.852 28.7008C395.546 28.7008 394.426 29.1674 393.492 30.1008C392.596 30.9968 392.148 32.0981 392.148 33.4048ZM420.149 56.7008L420.149 14.7008L429.445 14.7008L429.445 56.7008L420.149 56.7008ZM443.5 56.7008L443.5 28.7008L438.852 28.7008L438.852 23.9968L443.5 23.9968L443.5 23.6048C443.5 21.2528 444.378 19.1808 446.132 17.3888C447.887 15.5968 449.978 14.7008 452.404 14.7008L462.148 14.7008L462.148 19.4048L457.052 19.4048C455.895 19.4048 454.887 19.8154 454.028 20.6368C453.244 21.4954 452.852 22.4848 452.852 23.6048L452.852 23.9968L457.5 23.9968L457.5 28.7008L452.852 28.7008L452.852 56.7008L443.5 56.7008ZM508.851 14.7008L508.851 47.4048C508.851 50.4288 508.067 52.7434 506.499 54.3488C504.969 55.9168 502.654 56.7008 499.555 56.7008L490.147 56.7008C487.123 56.7008 484.79 55.9354 483.147 54.4048C481.617 52.7621 480.851 50.4288 480.851 47.4048L480.851 37.9968L490.147 37.9968L490.147 47.4048C490.147 48.6368 490.595 49.7194 491.491 50.6528C492.425 51.5488 493.545 51.9968 494.851 51.9968C496.158 51.9968 497.259 51.5488 498.155 50.6528C499.089 49.7194 499.555 48.6368 499.555 47.4048L499.555 14.7008L508.851 14.7008ZM536.906 37.9968L536.906 33.4048C536.906 32.0981 536.44 30.9968 535.506 30.1008C534.61 29.1674 533.528 28.7008 532.258 28.7008L527.554 28.7008C524.866 28.7008 523.317 30.2688 522.906 33.4048L518.258 33.4048C518.93 27.1328 522.029 23.9968 527.554 23.9968L536.906 23.9968C539.52 23.9968 541.704 24.9301 543.458 26.7968C545.325 28.5888 546.258 30.7914 546.258 33.4048L546.258 56.7008L536.906 56.7008L536.906 51.9968C536.57 55.1328 535.021 56.7008 532.258 56.7008L527.554 56.7008C525.016 56.7008 522.832 55.7861 521.002 53.9568C519.173 52.0901 518.258 49.9061 518.258 47.4048C518.258 44.7914 519.173 42.5701 521.002 40.7408C522.869 38.9114 525.053 37.9968 527.554 37.9968L536.906 37.9968ZM536.906 42.7008L532.258 42.7008C530.952 42.7008 529.832 43.1674 528.898 44.1008C528.002 44.9968 527.554 46.0794 527.554 47.3488C527.554 48.6181 528.002 49.7194 528.898 50.6528C529.832 51.5488 530.952 51.9968 532.258 51.9968C533.565 51.9968 534.666 51.5301 535.562 50.5968C536.458 49.6634 536.906 48.5994 536.906 47.4048L536.906 42.7008ZM583.555 56.7008L574.203 56.7008L574.203 33.4048C574.203 32.0981 573.737 30.9968 572.803 30.1008C571.907 29.1674 570.825 28.7008 569.555 28.7008C568.249 28.7008 567.129 29.1674 566.195 30.1008C565.299 30.9968 564.851 32.0981 564.851 33.4048L564.851 56.7008L555.555 56.7008L555.555 23.9968L564.851 23.9968L564.851 28.7008C565.001 27.1701 565.467 26.0128 566.251 25.2288C567.073 24.4074 568.174 23.9968 569.555 23.9968L574.203 23.9968C577.339 23.9968 579.673 25.0981 581.203 27.3008C581.987 26.1808 582.939 25.3595 584.059 24.8368C585.179 24.2768 586.561 23.9968 588.203 23.9968L592.851 23.9968C595.39 23.9968 597.574 24.9301 599.403 26.7968C601.27 28.6261 602.203 30.8288 602.203 33.4048L602.203 56.7008L592.851 56.7008L592.851 33.4048C592.851 32.0981 592.385 30.9968 591.451 30.1008C590.555 29.1675 589.473 28.7008 588.203 28.7008C586.934 28.7008 585.833 29.1675 584.899 30.1008C584.003 30.9968 583.555 32.0981 583.555 33.4048L583.555 56.7008Z" fill="black"/>
</mask>
<g mask="url(#mask0)">
<rect x="257.687" y="-191.969" width="422.51" height="525.452" transform="rotate(26.2848 257.687 -191.969)" fill="#6461FF"/>
<rect x="233.414" y="-87.1035" width="191.203" height="467.859" transform="rotate(22.4674 233.414 -87.1035)" fill="#FF3B50"/>
<path d="M-127.97 -172.46L251.978 15.1962L44.7951 434.68L-335.154 247.024L-127.97 -172.46Z" fill="#F2C215"/>
</g>
</g>
</svg>
