<svg width="774" height="468" viewBox="0 0 774 468" fill="none" xmlns="http://www.w3.org/2000/svg">
<path d="M169.262 78.3555H764.922V459.634H169.262V78.3555Z" fill="#FFAA46"/>
<path fill-rule="evenodd" clip-rule="evenodd" d="M161.048 78.3549C161.048 73.8183 164.725 70.1406 169.262 70.1406H764.923C769.459 70.1406 773.137 73.8183 773.137 78.3549V459.634C773.137 464.17 769.459 467.848 764.923 467.848H169.262C164.725 467.848 161.048 464.17 161.048 459.634V78.3549ZM177.476 86.5691V451.419H756.709V86.5691H177.476Z" fill="black"/>
<path d="M9.08398 11.4746L169.262 78.354V459.633L9.08398 348.939V11.4746Z" fill="#61E1C2"/>
<path fill-rule="evenodd" clip-rule="evenodd" d="M4.53044 4.6377C6.81708 3.11448 9.71387 2.83538 12.2493 3.894L172.427 70.7734C175.485 72.0503 177.476 75.0396 177.476 78.3535V459.632C177.476 462.686 175.782 465.488 173.077 466.907C170.373 468.325 167.104 468.126 164.592 466.39L4.41439 355.696C2.19492 354.162 0.870117 351.636 0.870117 348.938V11.474C0.870117 8.72651 2.24379 6.16091 4.53044 4.6377ZM17.2986 23.8053V344.63L161.048 443.971V83.8253L17.2986 23.8053Z" fill="black"/>
<path d="M9.08398 11.475L501.938 8.6582L764.794 78.3544H169.262L9.08398 11.475Z" fill="#659DEF"/>
<path fill-rule="evenodd" clip-rule="evenodd" d="M501.892 0.44447C502.619 0.440318 503.342 0.532533 504.044 0.7187L766.9 70.4149C770.889 71.4725 773.474 75.3247 772.94 79.4163C772.407 83.508 768.921 86.569 764.795 86.569H169.263C168.176 86.569 167.101 86.3535 166.098 85.9348L5.92023 19.0554C2.31616 17.5506 0.270022 13.7161 1.02644 9.88446C1.78286 6.0528 5.13266 3.28357 9.03821 3.26125L501.892 0.44447ZM49.5245 19.4586L170.909 70.1406H701.765L500.892 16.8789L49.5245 19.4586Z" fill="black"/>
<path fill-rule="evenodd" clip-rule="evenodd" d="M286.571 147.852C295.998 130.532 310.375 117.325 328.264 117.325C346.153 117.325 360.53 130.532 369.957 147.852C379.555 165.486 385.238 189.286 385.238 215.125C385.238 240.964 379.555 264.764 369.957 282.398C360.53 299.718 346.153 312.925 328.264 312.925C310.375 312.925 295.998 299.718 286.571 282.398C276.973 264.764 271.29 240.964 271.29 215.125C271.29 189.286 276.973 165.486 286.571 147.852ZM301.001 155.705C292.951 170.495 287.719 191.488 287.719 215.125C287.719 238.763 292.951 259.755 301.001 274.545C309.221 289.648 319.224 296.496 328.264 296.496C337.304 296.496 347.307 289.648 355.528 274.544C363.577 259.755 368.81 238.763 368.81 215.125C368.81 191.488 363.577 170.495 355.528 155.705C347.307 140.602 337.304 133.754 328.264 133.754C319.224 133.754 309.221 140.601 301.001 155.705Z" fill="black"/>
<path d="M328.266 235.667C335.291 235.667 340.986 226.469 340.986 215.123C340.986 203.776 335.291 194.578 328.266 194.578C321.241 194.578 315.546 203.776 315.546 215.123C315.546 226.469 321.241 235.667 328.266 235.667Z" fill="black"/>
<path fill-rule="evenodd" clip-rule="evenodd" d="M312.288 196.271C315.438 191.184 320.862 186.363 328.266 186.363C335.671 186.363 341.095 191.184 344.245 196.271C347.472 201.484 349.201 208.17 349.201 215.122C349.201 222.074 347.472 228.76 344.245 233.973C341.095 239.06 335.671 243.88 328.266 243.88C320.862 243.88 315.438 239.06 312.288 233.973C309.06 228.76 307.332 222.074 307.332 215.122C307.332 208.17 309.06 201.484 312.288 196.271ZM326.256 204.919C324.88 207.142 323.761 210.728 323.761 215.122C323.761 219.516 324.88 223.102 326.256 225.325C327.263 226.951 328.021 227.345 328.266 227.434C328.512 227.345 329.27 226.951 330.277 225.325C331.653 223.102 332.772 219.516 332.772 215.122C332.772 210.728 331.653 207.142 330.277 204.919C329.27 203.293 328.512 202.899 328.266 202.81C328.021 202.899 327.263 203.293 326.256 204.919ZM328.351 202.786C328.351 202.786 328.347 202.787 328.34 202.788C328.347 202.787 328.351 202.786 328.351 202.786ZM328.193 202.788C328.185 202.787 328.182 202.786 328.182 202.786C328.182 202.786 328.186 202.787 328.193 202.788ZM328.182 227.458C328.182 227.457 328.185 227.457 328.193 227.456C328.186 227.457 328.182 227.458 328.182 227.458ZM328.34 227.456C328.347 227.457 328.351 227.457 328.351 227.458C328.351 227.458 328.347 227.457 328.34 227.456Z" fill="black"/>
<path fill-rule="evenodd" clip-rule="evenodd" d="M537.538 138.214C546.46 119.604 560.38 104.626 578.423 104.626C596.468 104.626 610.387 119.604 619.31 138.214C628.517 157.419 633.984 183.373 633.984 211.596C633.984 239.819 628.517 265.773 619.31 284.978C610.387 303.588 596.468 318.566 578.423 318.566C560.38 318.566 546.46 303.588 537.538 284.978C528.331 265.773 522.863 239.819 522.863 211.596C522.863 183.373 528.331 157.419 537.538 138.214ZM552.352 145.316C544.423 161.854 539.292 185.278 539.292 211.596C539.292 237.914 544.423 261.338 552.352 277.875C560.566 295.008 570.319 302.137 578.423 302.137C586.528 302.137 596.282 295.008 604.496 277.875C612.424 261.338 617.556 237.914 617.556 211.596C617.556 185.278 612.424 161.854 604.496 145.316C596.282 128.184 586.528 121.054 578.423 121.054C570.319 121.054 560.566 128.184 552.352 145.316Z" fill="black"/>
<path d="M578.423 228.525C585.411 228.525 591.077 220.945 591.077 211.595C591.077 202.246 585.411 194.666 578.423 194.666C571.433 194.666 565.768 202.246 565.768 211.595C565.768 220.945 571.433 228.525 578.423 228.525Z" fill="black"/>
<path fill-rule="evenodd" clip-rule="evenodd" d="M562.895 194.707C566.348 190.089 571.751 186.452 578.423 186.452C585.094 186.452 590.498 190.089 593.95 194.707C597.401 199.324 599.291 205.322 599.291 211.596C599.291 217.87 597.401 223.868 593.95 228.485C590.498 233.102 585.094 236.739 578.423 236.739C571.752 236.739 566.348 233.103 562.895 228.485C559.444 223.868 557.554 217.87 557.554 211.596C557.554 205.322 559.444 199.324 562.895 194.707ZM576.054 204.543C574.925 206.054 573.982 208.52 573.982 211.596C573.982 214.672 574.925 217.138 576.054 218.648C577.182 220.157 578.105 220.311 578.423 220.311C578.74 220.311 579.663 220.158 580.791 218.649C581.92 217.138 582.863 214.671 582.863 211.596C582.863 208.52 581.92 206.053 580.791 204.543C579.663 203.034 578.74 202.881 578.423 202.881C578.105 202.881 577.182 203.034 576.054 204.543Z" fill="black"/>
<path fill-rule="evenodd" clip-rule="evenodd" d="M656.174 235.327C659.97 232.842 665.061 233.905 667.545 237.701L660.672 242.2C667.545 237.701 667.548 237.706 667.552 237.711L667.56 237.724L667.583 237.759L667.652 237.866C667.708 237.953 667.784 238.072 667.878 238.223C668.067 238.525 668.33 238.952 668.655 239.498C669.306 240.589 670.207 242.156 671.263 244.143C673.371 248.112 676.113 253.789 678.705 260.717C683.855 274.488 688.591 293.678 686.131 314.401C683.641 335.388 673.813 357.452 650.713 376.524C627.821 395.423 592.303 411.063 538.878 420.431C431.547 439.252 350.07 413.633 295.397 383.128C268.107 367.901 247.533 351.483 233.747 338.831C226.851 332.502 221.644 327.107 218.135 323.262C216.381 321.338 215.049 319.801 214.143 318.728C213.69 318.191 213.342 317.769 213.101 317.473C212.981 317.325 212.887 317.208 212.82 317.124L212.739 317.022L212.713 316.99L212.704 316.978C212.7 316.974 212.697 316.97 218.965 312.046L212.697 316.97C209.895 313.402 210.515 308.238 214.083 305.436C217.648 302.636 222.808 303.253 225.611 306.815C225.611 306.815 225.612 306.815 225.612 306.815C225.612 306.816 225.612 306.816 225.613 306.817C225.613 306.817 225.613 306.816 225.613 306.816L225.615 306.819L225.617 306.822L225.652 306.866C225.69 306.914 225.754 306.993 225.844 307.104C226.024 307.325 226.309 307.671 226.697 308.131C227.473 309.051 228.665 310.428 230.271 312.189C233.484 315.71 238.349 320.756 244.855 326.727C257.872 338.674 277.419 354.285 303.402 368.781C355.273 397.723 432.948 422.327 536.04 404.249C587.827 395.168 620.315 380.316 640.253 363.855C659.983 347.566 667.807 329.401 669.817 312.465C671.858 295.265 667.943 278.839 663.317 266.473C661.021 260.333 658.593 255.312 656.754 251.85C655.837 250.122 655.07 248.791 654.546 247.912C654.284 247.473 654.083 247.148 653.954 246.943C653.89 246.84 653.844 246.768 653.818 246.727L653.799 246.698C653.798 246.696 653.797 246.693 653.795 246.691M656.174 235.327C652.38 237.81 651.316 242.896 653.795 246.691L656.174 235.327Z" fill="black"/>
</svg>
