<svg width="1384" height="525" viewBox="0 0 1384 525" fill="none" xmlns="http://www.w3.org/2000/svg">
<circle cx="104.286" cy="385.453" r="103.733" fill="#FF4B6C"/>
<circle cx="1001.53" cy="114.484" r="103.733" fill="#FF4B6C"/>
<path d="M275.295 347.444C275.295 369.908 269.193 387.103 256.991 399.028C245.065 410.676 228.009 416.5 205.823 416.5H136.351C117.492 416.5 101.268 409.705 87.6786 396.116C74.0893 382.249 67.2946 366.025 67.2946 347.444V173.556C67.2946 155.252 73.8119 139.167 86.8466 125.3C100.159 111.433 116.66 104.5 136.351 104.5H205.823C227.732 104.5 244.788 110.324 256.991 121.972C269.193 133.62 275.295 150.815 275.295 173.556H240.351C237.855 150.815 226.345 139.444 205.823 139.444H171.295C161.311 139.444 152.991 142.772 146.335 149.428C139.679 156.084 136.351 164.127 136.351 173.556V347.444C136.351 356.596 139.679 364.639 146.335 371.572C153.268 378.228 161.588 381.556 171.295 381.556H205.823C226.068 381.556 237.577 370.185 240.351 347.444H275.295ZM344.357 416.5V104.5H413.413V381.556H517.413V416.5H344.357ZM725.823 104.5H795.295V347.444C795.295 366.303 788.361 382.527 774.495 396.116C760.905 409.705 744.681 416.5 725.823 416.5H656.351C637.492 416.5 621.268 409.705 607.679 396.116C594.089 382.249 587.295 366.025 587.295 347.444V104.5H656.351V347.444C656.351 356.596 659.679 364.639 666.335 371.572C673.268 378.228 681.588 381.556 691.295 381.556C701.001 381.556 709.183 378.089 715.839 371.156C722.495 364.223 725.823 356.319 725.823 347.444V104.5ZM864.357 416.5V104.5H1002.89C1022.02 104.5 1038.38 111.433 1051.97 125.3C1065.56 138.889 1072.36 154.975 1072.36 173.556V191.444C1072.36 211.135 1066.67 226.804 1055.3 238.452C1043.93 250.1 1026.46 257.449 1002.89 260.5C1026.18 260.5 1043.51 267.572 1054.89 281.716C1066.53 295.583 1072.36 311.529 1072.36 329.556V347.444C1072.36 366.303 1065.42 382.527 1051.56 396.116C1037.97 409.705 1021.74 416.5 1002.89 416.5H864.357ZM933.413 243.444H968.357C977.509 243.444 985.552 240.116 992.485 233.46C999.418 226.527 1002.89 218.207 1002.89 208.5V173.556C1002.89 164.404 999.418 156.5 992.485 149.844C985.829 142.911 977.786 139.444 968.357 139.444H933.413V243.444ZM933.413 381.556H968.357C977.786 381.556 985.829 378.228 992.485 371.572C999.418 364.639 1002.89 356.596 1002.89 347.444V312.5C1002.89 289.204 991.376 277.556 968.357 277.556H933.413V381.556ZM1314.48 173.556H1279.95C1276.9 150.537 1265.94 139.028 1247.08 139.028C1235.16 139.028 1226.01 141.94 1219.63 147.764C1213.53 153.588 1210.48 162.324 1210.48 173.972C1210.48 182.847 1213.94 190.889 1220.88 198.1L1294.09 280.884C1307.68 295.583 1314.48 311.807 1314.48 329.556V347.444C1314.48 366.303 1307.68 382.527 1294.09 396.116C1280.5 409.705 1264.28 416.5 1245.42 416.5H1210.48C1188.01 416.5 1170.68 410.815 1158.48 399.444C1147.1 387.241 1141.42 369.908 1141.42 347.444H1175.95L1175.53 352.852C1175.53 362.281 1179 369.492 1185.93 374.484C1193.14 379.199 1201.32 381.556 1210.48 381.556C1222.68 381.556 1231.55 378.644 1237.1 372.82C1242.65 366.719 1245.42 357.983 1245.42 346.612C1245.42 337.737 1241.95 329.695 1235.02 322.484L1161.39 240.116C1148.08 225.14 1141.42 208.916 1141.42 191.444V173.556C1141.42 154.975 1148.08 138.889 1161.39 125.3C1174.7 111.433 1191.06 104.5 1210.48 104.5H1245.42C1267.61 104.5 1284.66 110.324 1296.59 121.972C1308.51 133.343 1314.48 150.537 1314.48 173.556Z" fill="#3705FF"/>
<circle cx="397.242" cy="137.712" r="102.242" fill="#FF4B6C"/>
<circle cx="776.075" cy="422.502" r="102.242" fill="#FF4B6C"/>
<circle cx="1281.51" cy="333.692" r="102.242" fill="#FF4B6C"/>
</svg>
