<svg width="1440" height="563" viewBox="0 0 1440 563" fill="none" xmlns="http://www.w3.org/2000/svg">
<path d="M235.493 270.474C235.493 295.368 228.731 314.423 215.209 327.638C201.993 340.546 183.092 347 158.506 347H81.5186C60.62 347 42.641 339.47 27.5816 324.411C12.5223 309.044 4.99262 291.065 4.99262 270.474V77.776C4.99262 57.492 12.215 39.6666 26.6596 24.3C41.4116 8.93331 59.698 1.24997 81.5186 1.24997H158.506C182.785 1.24997 201.686 7.70398 215.209 20.612C228.731 33.52 235.493 52.5747 235.493 77.776H196.769C194.003 52.5747 181.248 39.974 158.506 39.974H120.243C109.179 39.974 99.9586 43.662 92.5826 51.038C85.2066 58.414 81.5186 67.3266 81.5186 77.776V270.474C81.5186 280.616 85.2066 289.529 92.5826 297.212C100.266 304.588 109.486 308.276 120.243 308.276H158.506C180.941 308.276 193.695 295.675 196.769 270.474H235.493ZM333.232 1.24997H410.219C431.425 1.24997 449.557 8.93331 464.617 24.3C479.676 39.3593 487.206 57.1847 487.206 77.776V270.474C487.206 291.373 479.522 309.352 464.156 324.411C449.096 339.47 431.117 347 410.219 347H333.232C312.333 347 294.354 339.47 279.295 324.411C264.235 309.044 256.706 291.065 256.706 270.474V77.776C256.706 57.1847 264.082 39.3593 278.834 24.3C293.893 8.93331 312.026 1.24997 333.232 1.24997ZM333.232 77.776V270.474C333.232 280.616 336.92 289.529 344.296 297.212C351.979 304.588 361.199 308.276 371.956 308.276C382.712 308.276 391.779 304.434 399.155 296.751C406.531 289.068 410.219 280.309 410.219 270.474V77.776C410.219 67.634 406.377 58.875 398.694 51.499C391.318 43.8157 382.405 39.974 371.956 39.974C360.892 39.974 351.672 43.662 344.296 51.038C336.92 58.414 333.232 67.3266 333.232 77.776ZM508.419 347V1.24997H661.932C683.138 1.24997 701.271 8.93331 716.33 24.3C731.389 39.3593 738.919 57.1847 738.919 77.776V270.474C738.919 291.373 731.236 309.352 715.869 324.411C700.81 339.47 682.831 347 661.932 347H508.419ZM584.945 308.276H623.669C634.426 308.276 643.492 304.434 650.868 296.751C658.244 289.068 661.932 280.309 661.932 270.474V77.776C661.932 67.634 658.09 58.875 650.407 51.499C643.031 43.8157 634.118 39.974 623.669 39.974H584.945V308.276ZM797.934 347V1.24997H874.921V347H797.934ZM935.312 347V1.24997H952.369L1165.81 193.026V1.24997H1204.08V347H1186.56L973.575 155.224V347H935.312ZM1340.99 155.224H1456.24V270.474C1456.24 295.368 1447.94 314.423 1431.35 327.638C1415.06 340.546 1397.7 347 1379.26 347H1302.27C1281.37 347 1263.39 339.47 1248.33 324.411C1233.27 309.044 1225.74 291.065 1225.74 270.474V77.776C1225.74 57.492 1232.96 39.6666 1247.41 24.3C1262.16 8.93331 1280.45 1.24997 1302.27 1.24997H1379.26C1403.53 1.24997 1422.44 7.70398 1435.96 20.612C1449.48 33.52 1456.24 52.5747 1456.24 77.776H1417.52C1414.75 52.5747 1402 39.974 1379.26 39.974H1340.99C1329.93 39.974 1320.71 43.662 1313.33 51.038C1305.96 58.414 1302.27 67.3266 1302.27 77.776V270.474C1302.27 280.923 1306.11 289.836 1313.79 297.212C1321.48 304.588 1330.54 308.276 1340.99 308.276C1366.5 308.276 1379.26 295.675 1379.26 270.474V193.026H1340.99V155.224Z" fill="white"/>
<path d="M-2.648 353.663H43.5V538.811H66.852C73.3387 538.811 78.806 536.494 83.254 531.861C87.702 527.228 89.926 521.946 89.926 516.015V353.663H136.352V538.811H159.426C165.913 538.811 171.38 536.494 175.828 531.861C180.276 527.228 182.5 521.946 182.5 516.015V353.663H228.926V482.933C228.926 504.246 221.049 522.78 205.296 538.533C189.543 554.286 171.009 562.163 149.696 562.163H89.926V554.657C81.03 559.661 70.0953 562.163 57.122 562.163H-2.648V353.663ZM290.92 353.663H337.346C350.134 353.663 361.069 358.296 370.15 367.563C379.231 376.644 383.772 387.394 383.772 399.811V516.015C383.772 528.618 379.139 539.46 369.872 548.541C360.791 557.622 349.949 562.163 337.346 562.163H290.92C278.317 562.163 267.475 557.622 258.394 548.541C249.313 539.274 244.772 528.432 244.772 516.015V399.811C244.772 387.394 249.22 376.644 258.116 367.563C267.197 358.296 278.132 353.663 290.92 353.663ZM290.92 399.811V516.015C290.92 522.131 293.144 527.506 297.592 532.139C302.225 536.587 307.785 538.811 314.272 538.811C320.759 538.811 326.226 536.494 330.674 531.861C335.122 527.228 337.346 521.946 337.346 516.015V399.811C337.346 393.695 335.029 388.413 330.396 383.965C325.948 379.332 320.573 377.015 314.272 377.015C307.6 377.015 302.04 379.239 297.592 383.687C293.144 388.135 290.92 393.51 290.92 399.811ZM399.344 562.163V353.663H491.918C504.706 353.663 515.641 358.296 524.722 367.563C533.804 376.644 538.344 387.394 538.344 399.811V412.599C538.344 422.978 534.823 432.986 527.78 442.623C520.738 452.075 508.784 456.801 491.918 456.801H514.992C521.294 456.801 526.761 459.118 531.394 463.751C536.028 468.384 538.344 473.852 538.344 480.153V562.163H491.918V492.663C491.918 486.362 489.602 480.894 484.968 476.261C480.335 471.628 474.96 469.311 468.844 469.311H445.492V562.163H399.344ZM445.492 446.515H468.844C474.96 446.515 480.335 444.291 484.968 439.843C489.602 435.21 491.918 429.65 491.918 423.163V399.811C491.918 393.695 489.602 388.413 484.968 383.965C480.52 379.332 475.146 377.015 468.844 377.015H445.492V446.515ZM553.917 562.163V353.663H600.065V438.731L675.125 353.663H715.991L623.417 457.913L715.991 562.163H669.565L600.065 481.265V562.163H553.917ZM847.485 399.811H824.411C822.372 384.428 815.051 376.737 802.449 376.737C794.479 376.737 788.363 378.683 784.101 382.575C780.023 386.467 777.985 392.305 777.985 400.089C777.985 406.02 780.301 411.394 784.935 416.213L833.863 471.535C842.944 481.358 847.485 492.2 847.485 504.061V516.015C847.485 528.618 842.944 539.46 833.863 548.541C824.781 557.622 813.939 562.163 801.337 562.163H777.985C762.973 562.163 751.389 558.364 743.235 550.765C735.636 542.61 731.837 531.027 731.837 516.015H754.911L754.633 519.629C754.633 525.93 756.949 530.749 761.583 534.085C766.401 537.236 771.869 538.811 777.985 538.811C786.139 538.811 792.07 536.865 795.777 532.973C799.483 528.896 801.337 523.058 801.337 515.459C801.337 509.528 799.02 504.154 794.387 499.335L745.181 444.291C736.285 434.283 731.837 423.441 731.837 411.765V399.811C731.837 387.394 736.285 376.644 745.181 367.563C754.077 358.296 765.011 353.663 777.985 353.663H801.337C816.163 353.663 827.561 357.555 835.531 365.339C843.5 372.938 847.485 384.428 847.485 399.811ZM863.604 562.163V353.663H909.752V446.515H956.178V353.663H1002.6V562.163H956.178V469.311H909.752V562.163H863.604ZM1064.32 353.663H1110.75C1123.54 353.663 1134.47 358.296 1143.55 367.563C1152.64 376.644 1157.18 387.394 1157.18 399.811V516.015C1157.18 528.618 1152.54 539.46 1143.28 548.541C1134.2 557.622 1123.35 562.163 1110.75 562.163H1064.32C1051.72 562.163 1040.88 557.622 1031.8 548.541C1022.72 539.274 1018.18 528.432 1018.18 516.015V399.811C1018.18 387.394 1022.62 376.644 1031.52 367.563C1040.6 358.296 1051.54 353.663 1064.32 353.663ZM1064.32 399.811V516.015C1064.32 522.131 1066.55 527.506 1071 532.139C1075.63 536.587 1081.19 538.811 1087.68 538.811C1094.16 538.811 1099.63 536.494 1104.08 531.861C1108.53 527.228 1110.75 521.946 1110.75 516.015V399.811C1110.75 393.695 1108.43 388.413 1103.8 383.965C1099.35 379.332 1093.98 377.015 1087.68 377.015C1081 377.015 1075.44 379.239 1071 383.687C1066.55 388.135 1064.32 393.51 1064.32 399.811ZM1172.75 562.163V353.663H1265.32C1278.11 353.663 1289.05 358.296 1298.13 367.563C1307.21 376.644 1311.75 387.394 1311.75 399.811V423.163C1311.75 435.766 1307.21 446.608 1298.13 455.689C1289.05 464.77 1278.11 469.311 1265.32 469.311H1218.9V562.163H1172.75ZM1218.9 446.515H1242.25C1248.36 446.515 1253.74 444.291 1258.37 439.843C1263.01 435.21 1265.32 429.65 1265.32 423.163V399.811C1265.32 393.695 1263.01 388.413 1258.37 383.965C1253.92 379.332 1248.55 377.015 1242.25 377.015H1218.9V446.515ZM1442.97 399.811H1419.9C1417.86 384.428 1410.54 376.737 1397.93 376.737C1389.96 376.737 1383.85 378.683 1379.59 382.575C1375.51 386.467 1373.47 392.305 1373.47 400.089C1373.47 406.02 1375.79 411.394 1380.42 416.213L1429.35 471.535C1438.43 481.358 1442.97 492.2 1442.97 504.061V516.015C1442.97 528.618 1438.43 539.46 1429.35 548.541C1420.27 557.622 1409.42 562.163 1396.82 562.163H1373.47C1358.46 562.163 1346.87 558.364 1338.72 550.765C1331.12 542.61 1327.32 531.027 1327.32 516.015H1350.4L1350.12 519.629C1350.12 525.93 1352.43 530.749 1357.07 534.085C1361.89 537.236 1367.35 538.811 1373.47 538.811C1381.62 538.811 1387.55 536.865 1391.26 532.973C1394.97 528.896 1396.82 523.058 1396.82 515.459C1396.82 509.528 1394.5 504.154 1389.87 499.335L1340.67 444.291C1331.77 434.283 1327.32 423.441 1327.32 411.765V399.811C1327.32 387.394 1331.77 376.644 1340.67 367.563C1349.56 358.296 1360.5 353.663 1373.47 353.663H1396.82C1411.65 353.663 1423.05 357.555 1431.02 365.339C1438.98 372.938 1442.97 384.428 1442.97 399.811Z" fill="black"/>
</svg>
