<svg width="146" height="45" viewBox="0 0 146 45" fill="none" xmlns="http://www.w3.org/2000/svg">
<path opacity="0.6" d="M43.6141 19.4508C43.5466 19.0934 43.1262 18.9391 42.823 19.1399C40.9359 20.3896 38.673 21.1174 36.2402 21.1174C29.6472 21.1174 24.3026 15.7727 24.3026 9.17977C24.3026 6.9092 24.9365 4.78669 26.037 2.97957C26.2262 2.66887 26.056 2.2545 25.6962 2.20067C24.6495 2.04406 23.5781 1.96289 22.4878 1.96289C10.6137 1.96289 0.987793 11.5888 0.987793 23.4629C0.987793 35.337 10.6137 44.9629 22.4878 44.9629C34.3619 44.9629 43.9878 35.337 43.9878 23.4629C43.9878 22.0918 43.8594 20.7506 43.6141 19.4508Z" fill="#717EF0"/>
<path d="M36.2402 17.3963C40.7781 17.3963 44.4569 13.7176 44.4569 9.17962C44.4569 4.64164 40.7781 0.962887 36.2402 0.962887C31.7022 0.962887 28.0234 4.64164 28.0234 9.17962C28.0234 13.7176 31.7022 17.3963 36.2402 17.3963Z" fill="#FF98AB"/>
<path d="M56.1195 17.3963C60.8038 17.3963 64.6013 13.7176 64.6013 9.17962C64.6013 4.64164 60.8038 0.962891 56.1195 0.962891C51.4351 0.962891 47.6377 4.64164 47.6377 9.17962C47.6377 13.7176 51.4351 17.3963 56.1195 17.3963Z" fill="#FF98AB"/>
<path d="M75.7334 17.3963C80.125 17.3963 83.6851 13.7176 83.6851 9.17962C83.6851 4.64164 80.125 0.962891 75.7334 0.962891C71.3418 0.962891 67.7817 4.64164 67.7817 9.17962C67.7817 13.7176 71.3418 17.3963 75.7334 17.3963Z" fill="#FF98AB"/>
<path d="M96.143 17.3963C100.681 17.3963 104.36 13.7176 104.36 9.17962C104.36 4.64164 100.681 0.962891 96.143 0.962891C91.605 0.962891 87.9263 4.64164 87.9263 9.17962C87.9263 13.7176 91.605 17.3963 96.143 17.3963Z" fill="#FF98AB"/>
<path d="M61.9092 25.4618C60.5033 24.0679 58.5805 23.2275 56.4509 23.2275C52.1712 23.2275 48.6978 26.6711 48.6978 30.9142C48.6978 35.1572 52.1712 38.6008 56.4509 38.6008C58.6012 38.6008 60.5446 37.7194 61.9505 36.3255L59.056 33.4969C58.4151 34.1528 57.5054 34.5217 56.4509 34.5217C54.3421 34.5217 52.8121 33.0049 52.8121 30.9142C52.8121 28.8234 54.3421 27.3066 56.4509 27.3066C57.5054 27.3066 58.4151 27.6755 59.056 28.311L61.9092 25.4618Z" fill="#3A3A3A"/>
<path d="M65.1313 23.2275V38.6008H69.0971V32.7384H73.8882V38.6008H77.854V23.2275H73.8882V28.7004H69.0971V23.2275H65.1313Z" fill="#3A3A3A"/>
<path d="M80.5044 38.6008H84.7453V23.2275H80.5044V38.6008Z" fill="#3A3A3A"/>
<path d="M100.607 25.4618C99.2015 24.0679 97.2787 23.2275 95.1492 23.2275C90.8694 23.2275 87.396 26.6711 87.396 30.9142C87.396 35.1572 90.8694 38.6008 95.1492 38.6008C97.2994 38.6008 99.2429 37.7194 100.649 36.3255L97.7542 33.4969C97.1133 34.1528 96.2036 34.5217 95.1492 34.5217C93.0403 34.5217 91.5103 33.0049 91.5103 30.9142C91.5103 28.8234 93.0403 27.3066 95.1492 27.3066C96.2036 27.3066 97.1133 27.6755 97.7542 28.311L100.607 25.4618Z" fill="#3A3A3A"/>
<path d="M102.769 30.9347C102.769 35.1777 106.079 38.6008 110.181 38.6008C114.283 38.6008 117.612 35.1777 117.612 30.9347C117.612 26.6916 114.283 23.2275 110.181 23.2275C106.079 23.2275 102.769 26.6916 102.769 30.9347ZM113.728 30.9142C113.728 32.9229 112.143 34.5832 110.181 34.5832C108.239 34.5832 106.653 32.9229 106.653 30.9142C106.653 28.8849 108.239 27.2451 110.181 27.2451C112.143 27.2451 113.728 28.8849 113.728 30.9142Z" fill="#3A3A3A"/>
<path d="M120.263 38.6008H125.905C130.106 38.6008 133.515 35.1572 133.515 30.9142C133.515 26.6711 130.106 23.2275 125.905 23.2275H120.263V38.6008ZM124.241 27.3066H125.925C127.914 27.3066 129.538 28.9464 129.538 30.9347C129.538 32.9434 127.914 34.5832 125.925 34.5832H124.241V27.3066Z" fill="#3A3A3A"/>
<path d="M135.636 38.6008H145.178V35.3006H139.67V32.472H144.543V29.0694H139.67V26.5686H145.178V23.2275H135.636V38.6008Z" fill="#3A3A3A"/>
</svg>
