<svg width="154" height="176" viewBox="0 0 154 176" fill="none" xmlns="http://www.w3.org/2000/svg">
<path d="M124.013 61.4973H29.6074L76.8104 143.255L124.013 61.4973Z" fill="#FFDD9B" stroke="black" stroke-width="2" stroke-linecap="round" stroke-linejoin="round"/>
<path d="M29.6074 61.4972L76.0984 4.03662L124.013 61.4972L29.6074 61.4972Z" fill="#FFDD9B" stroke="black" stroke-width="2" stroke-linecap="round" stroke-linejoin="round"/>
<path d="M76.8106 143.255L3.80273 131.723L29.6075 61.4972L76.8106 143.255Z" fill="#FFDD9B" stroke="black" stroke-width="2" stroke-linecap="round" stroke-linejoin="round"/>
<path d="M76.8106 143.255V172.085L3.80273 131.723L76.8106 143.255Z" fill="#FFDD9B" stroke="black" stroke-width="2" stroke-linecap="round" stroke-linejoin="round"/>
<path d="M3.7793 50.8563L3.80299 131.723L29.6078 61.4972L3.7793 50.8563Z" fill="#FFDD9B" stroke="black" stroke-width="2" stroke-linecap="round" stroke-linejoin="round"/>
<path d="M3.7793 50.8563L76.0987 4.03662L29.6078 61.4972L3.7793 50.8563Z" fill="#FFDD9B" stroke="black" stroke-width="2" stroke-linecap="round" stroke-linejoin="round"/>
<path d="M76.8115 143.255L149.819 131.723L124.015 61.4972L76.8115 143.255Z" fill="#FFDD9B" stroke="black" stroke-width="2" stroke-linecap="round" stroke-linejoin="round"/>
<path d="M76.8115 143.255V172.085L149.819 131.723L76.8115 143.255Z" fill="#FFDD9B" stroke="black" stroke-width="2" stroke-linecap="round" stroke-linejoin="round"/>
<path d="M149.843 50.8563L149.819 131.723L124.014 61.4972L149.843 50.8563Z" fill="#FFDD9B" stroke="black" stroke-width="2" stroke-linecap="round" stroke-linejoin="round"/>
<path d="M149.843 50.8563L77.5234 4.03662L124.014 61.4972L149.843 50.8563Z" fill="#FFDD9B" stroke="black" stroke-width="2" stroke-linecap="round" stroke-linejoin="round"/>
</svg>
