<svg width="822" height="335" viewBox="0 0 822 335" fill="none" xmlns="http://www.w3.org/2000/svg">
<g filter="url(#filter0_d)">
<path d="M4.85596 0.0769043H821.144V323.879H4.85596V0.0769043Z" fill="#FFDD9B"/>
</g>
<path d="M50.4243 147.165H52.1777L51.8496 148.723C52.5059 148.081 53.1519 147.619 53.7876 147.339C54.4302 147.059 55.1069 146.919 55.8179 146.919C57.3765 146.919 58.313 147.462 58.6274 148.549C58.8052 149.144 58.7778 149.995 58.5454 151.102L57.0483 158.147H55.1719L56.6382 151.225C56.7817 150.555 56.7988 150.015 56.6895 149.605C56.5049 148.922 55.9819 148.58 55.1206 148.58C54.6831 148.58 54.314 148.624 54.0132 148.713C53.4731 148.863 52.9639 149.164 52.4854 149.615C52.1025 149.978 51.8223 150.354 51.6445 150.743C51.4736 151.126 51.313 151.676 51.1626 152.394L49.9424 158.147H48.0967L50.4243 147.165ZM68.543 152.476C68.7617 151.451 68.7754 150.617 68.584 149.974C68.2764 148.963 67.4868 148.457 66.2153 148.457C65.0874 148.457 64.1748 148.887 63.4775 149.749C62.7871 150.61 62.312 151.649 62.0522 152.866C61.8062 154.035 61.854 155.009 62.1958 155.788C62.5444 156.568 63.2759 156.957 64.3901 156.957C65.6138 156.957 66.5503 156.496 67.1997 155.573C67.856 154.643 68.3037 153.611 68.543 152.476ZM70.481 152.425C70.105 154.195 69.3633 155.658 68.2559 156.814C67.1484 157.969 65.689 158.547 63.8774 158.547C62.3667 158.547 61.2764 158.037 60.6064 157.019C59.9365 155.993 59.7827 154.619 60.145 152.897C60.5415 151.051 61.3242 149.581 62.4932 148.487C63.6621 147.394 65.0361 146.847 66.6152 146.847C68.0303 146.847 69.124 147.318 69.8965 148.262C70.6758 149.205 70.8706 150.593 70.481 152.425ZM75.6489 147.165L74.1006 154.455C73.9844 155.016 73.9775 155.474 74.0801 155.829C74.2646 156.485 74.8047 156.814 75.7002 156.814C76.9854 156.814 77.9834 156.239 78.6943 155.091C79.0771 154.476 79.3813 153.631 79.6069 152.558L80.7554 147.165H82.6011L80.2734 158.147H78.5303L78.8892 156.526C78.561 156.943 78.1885 157.296 77.7715 157.583C76.9443 158.157 76.0283 158.444 75.0234 158.444C73.458 158.444 72.5044 157.921 72.1626 156.875C71.9712 156.315 71.9746 155.566 72.1729 154.63L73.7622 147.165H75.6489ZM85.4927 147.165H87.2461L86.918 148.723C87.5742 148.081 88.2202 147.619 88.856 147.339C89.4985 147.059 90.1753 146.919 90.8862 146.919C92.4448 146.919 93.3813 147.462 93.6958 148.549C93.8735 149.144 93.8462 149.995 93.6138 151.102L92.1167 158.147H90.2402L91.7065 151.225C91.8501 150.555 91.8672 150.015 91.7578 149.605C91.5732 148.922 91.0503 148.58 90.189 148.58C89.7515 148.58 89.3823 148.624 89.0815 148.713C88.5415 148.863 88.0322 149.164 87.5537 149.615C87.1709 149.978 86.8906 150.354 86.7129 150.743C86.542 151.126 86.3813 151.676 86.231 152.394L85.0107 158.147H83.165L85.4927 147.165Z" fill="black"/>
<path d="M50.9619 189.693C50.9619 190.506 51.2588 191.147 51.8525 191.615C52.4463 192.084 53.1494 192.318 53.9619 192.318C54.9515 192.318 55.9098 192.089 56.8369 191.631C58.3994 190.871 59.1807 189.626 59.1807 187.897V185.631C58.8369 185.85 58.3942 186.032 57.8525 186.178C57.3109 186.324 56.7796 186.428 56.2588 186.49L54.5557 186.709C53.5348 186.845 52.7692 187.058 52.2588 187.35C51.3942 187.839 50.9619 188.621 50.9619 189.693ZM57.7744 184.006C58.4202 183.923 58.8525 183.652 59.0713 183.193C59.1963 182.943 59.2588 182.584 59.2588 182.115C59.2588 181.157 58.915 180.464 58.2275 180.037C57.5505 179.6 56.5765 179.381 55.3057 179.381C53.8369 179.381 52.7952 179.777 52.1807 180.568C51.8369 181.006 51.613 181.657 51.5088 182.522H48.8838C48.9359 180.459 49.6025 179.027 50.8838 178.225C52.1755 177.412 53.6702 177.006 55.3682 177.006C57.3369 177.006 58.9359 177.381 60.165 178.131C61.3838 178.881 61.9932 180.048 61.9932 181.631V191.272C61.9932 191.563 62.0505 191.798 62.165 191.975C62.29 192.152 62.5452 192.24 62.9307 192.24C63.0557 192.24 63.1963 192.235 63.3525 192.225C63.5088 192.204 63.6755 192.178 63.8525 192.147V194.225C63.415 194.35 63.0817 194.428 62.8525 194.459C62.6234 194.49 62.3109 194.506 61.915 194.506C60.9463 194.506 60.2432 194.162 59.8057 193.475C59.5765 193.11 59.415 192.595 59.3213 191.928C58.7484 192.678 57.9255 193.329 56.8525 193.881C55.7796 194.433 54.5973 194.709 53.3057 194.709C51.7536 194.709 50.4827 194.24 49.4932 193.303C48.514 192.355 48.0244 191.173 48.0244 189.756C48.0244 188.204 48.5088 187.001 49.4775 186.147C50.4463 185.292 51.7171 184.766 53.29 184.568L57.7744 184.006ZM76.2275 174.865C76.2692 173.699 76.4723 172.845 76.8369 172.303C77.4932 171.345 78.7588 170.865 80.6338 170.865C80.8109 170.865 80.9932 170.871 81.1807 170.881C81.3682 170.891 81.5817 170.907 81.8213 170.928V173.49C81.5296 173.47 81.3161 173.459 81.1807 173.459C81.0557 173.449 80.9359 173.443 80.8213 173.443C79.9671 173.443 79.4567 173.667 79.29 174.115C79.1234 174.553 79.04 175.678 79.04 177.49H81.8213V179.709H79.0088V194.147H76.2275V179.709H73.8994V177.49H76.2275V174.865ZM91.0713 192.334C92.9359 192.334 94.2119 191.631 94.8994 190.225C95.5973 188.808 95.9463 187.235 95.9463 185.506C95.9463 183.943 95.6963 182.673 95.1963 181.693C94.4046 180.152 93.04 179.381 91.1025 179.381C89.3838 179.381 88.1338 180.037 87.3525 181.35C86.5713 182.662 86.1807 184.246 86.1807 186.1C86.1807 187.881 86.5713 189.365 87.3525 190.553C88.1338 191.74 89.3734 192.334 91.0713 192.334ZM91.1807 176.928C93.3369 176.928 95.1598 177.647 96.6494 179.084C98.139 180.522 98.8838 182.636 98.8838 185.428C98.8838 188.126 98.2275 190.355 96.915 192.115C95.6025 193.876 93.5661 194.756 90.8057 194.756C88.5036 194.756 86.6755 193.98 85.3213 192.428C83.9671 190.865 83.29 188.772 83.29 186.147C83.29 183.334 84.0036 181.095 85.4307 179.428C86.8577 177.761 88.7744 176.928 91.1807 176.928ZM102.321 177.412H104.993V180.303C105.212 179.74 105.748 179.058 106.603 178.256C107.457 177.443 108.441 177.037 109.556 177.037C109.608 177.037 109.696 177.042 109.821 177.053C109.946 177.063 110.16 177.084 110.462 177.115V180.084C110.295 180.053 110.139 180.032 109.993 180.022C109.858 180.011 109.707 180.006 109.54 180.006C108.123 180.006 107.035 180.464 106.274 181.381C105.514 182.287 105.134 183.334 105.134 184.522V194.147H102.321V177.412ZM112.899 177.412H115.681V179.787C116.347 178.964 116.951 178.365 117.493 177.99C118.42 177.355 119.472 177.037 120.649 177.037C121.983 177.037 123.056 177.365 123.868 178.022C124.326 178.397 124.743 178.949 125.118 179.678C125.743 178.782 126.478 178.121 127.321 177.693C128.165 177.256 129.113 177.037 130.165 177.037C132.415 177.037 133.946 177.85 134.759 179.475C135.196 180.35 135.415 181.527 135.415 183.006V194.147H132.493V182.522C132.493 181.407 132.212 180.641 131.649 180.225C131.097 179.808 130.42 179.6 129.618 179.6C128.514 179.6 127.561 179.97 126.759 180.709C125.967 181.449 125.571 182.683 125.571 184.412V194.147H122.712V183.225C122.712 182.089 122.576 181.261 122.306 180.74C121.879 179.959 121.082 179.568 119.915 179.568C118.853 179.568 117.884 179.98 117.009 180.803C116.144 181.626 115.712 183.115 115.712 185.272V194.147H112.899V177.412ZM155.103 192.334C156.967 192.334 158.243 191.631 158.931 190.225C159.629 188.808 159.978 187.235 159.978 185.506C159.978 183.943 159.728 182.673 159.228 181.693C158.436 180.152 157.071 179.381 155.134 179.381C153.415 179.381 152.165 180.037 151.384 181.35C150.603 182.662 150.212 184.246 150.212 186.1C150.212 187.881 150.603 189.365 151.384 190.553C152.165 191.74 153.405 192.334 155.103 192.334ZM155.212 176.928C157.368 176.928 159.191 177.647 160.681 179.084C162.17 180.522 162.915 182.636 162.915 185.428C162.915 188.126 162.259 190.355 160.946 192.115C159.634 193.876 157.597 194.756 154.837 194.756C152.535 194.756 150.707 193.98 149.353 192.428C147.998 190.865 147.321 188.772 147.321 186.147C147.321 183.334 148.035 181.095 149.462 179.428C150.889 177.761 152.806 176.928 155.212 176.928ZM166.978 174.865C167.019 173.699 167.222 172.845 167.587 172.303C168.243 171.345 169.509 170.865 171.384 170.865C171.561 170.865 171.743 170.871 171.931 170.881C172.118 170.891 172.332 170.907 172.571 170.928V173.49C172.28 173.47 172.066 173.459 171.931 173.459C171.806 173.449 171.686 173.443 171.571 173.443C170.717 173.443 170.207 173.667 170.04 174.115C169.873 174.553 169.79 175.678 169.79 177.49H172.571V179.709H169.759V194.147H166.978V179.709H164.649V177.49H166.978V174.865ZM191.149 192.256C192.462 192.256 193.55 191.709 194.415 190.615C195.29 189.511 195.728 187.865 195.728 185.678C195.728 184.345 195.535 183.199 195.149 182.24C194.42 180.397 193.087 179.475 191.149 179.475C189.201 179.475 187.868 180.449 187.149 182.397C186.764 183.438 186.571 184.761 186.571 186.365C186.571 187.657 186.764 188.756 187.149 189.662C187.879 191.391 189.212 192.256 191.149 192.256ZM183.868 177.49H186.603V179.709C187.165 178.949 187.78 178.36 188.446 177.943C189.394 177.318 190.509 177.006 191.79 177.006C193.686 177.006 195.295 177.735 196.618 179.193C197.941 180.641 198.603 182.714 198.603 185.412C198.603 189.058 197.649 191.662 195.743 193.225C194.535 194.214 193.129 194.709 191.524 194.709C190.264 194.709 189.207 194.433 188.353 193.881C187.853 193.568 187.295 193.032 186.681 192.272V200.818H183.868V177.49ZM201.978 171.193H204.79V194.147H201.978V171.193ZM211.181 189.693C211.181 190.506 211.478 191.147 212.071 191.615C212.665 192.084 213.368 192.318 214.181 192.318C215.17 192.318 216.129 192.089 217.056 191.631C218.618 190.871 219.399 189.626 219.399 187.897V185.631C219.056 185.85 218.613 186.032 218.071 186.178C217.53 186.324 216.998 186.428 216.478 186.49L214.774 186.709C213.754 186.845 212.988 187.058 212.478 187.35C211.613 187.839 211.181 188.621 211.181 189.693ZM217.993 184.006C218.639 183.923 219.071 183.652 219.29 183.193C219.415 182.943 219.478 182.584 219.478 182.115C219.478 181.157 219.134 180.464 218.446 180.037C217.769 179.6 216.795 179.381 215.524 179.381C214.056 179.381 213.014 179.777 212.399 180.568C212.056 181.006 211.832 181.657 211.728 182.522H209.103C209.155 180.459 209.821 179.027 211.103 178.225C212.394 177.412 213.889 177.006 215.587 177.006C217.556 177.006 219.155 177.381 220.384 178.131C221.603 178.881 222.212 180.048 222.212 181.631V191.272C222.212 191.563 222.269 191.798 222.384 191.975C222.509 192.152 222.764 192.24 223.149 192.24C223.274 192.24 223.415 192.235 223.571 192.225C223.728 192.204 223.894 192.178 224.071 192.147V194.225C223.634 194.35 223.3 194.428 223.071 194.459C222.842 194.49 222.53 194.506 222.134 194.506C221.165 194.506 220.462 194.162 220.024 193.475C219.795 193.11 219.634 192.595 219.54 191.928C218.967 192.678 218.144 193.329 217.071 193.881C215.998 194.433 214.816 194.709 213.524 194.709C211.972 194.709 210.701 194.24 209.712 193.303C208.733 192.355 208.243 191.173 208.243 189.756C208.243 188.204 208.728 187.001 209.696 186.147C210.665 185.292 211.936 184.766 213.509 184.568L217.993 184.006ZM237.29 177.412H240.399C240.004 178.485 239.123 180.933 237.759 184.756C236.738 187.631 235.884 189.975 235.196 191.787C233.571 196.058 232.425 198.662 231.759 199.6C231.092 200.537 229.946 201.006 228.321 201.006C227.925 201.006 227.618 200.99 227.399 200.959C227.191 200.928 226.931 200.871 226.618 200.787V198.225C227.108 198.36 227.462 198.443 227.681 198.475C227.899 198.506 228.092 198.522 228.259 198.522C228.78 198.522 229.16 198.433 229.399 198.256C229.649 198.089 229.858 197.881 230.024 197.631C230.076 197.548 230.264 197.121 230.587 196.35C230.91 195.579 231.144 195.006 231.29 194.631L225.103 177.412H228.29L232.774 191.037L237.29 177.412ZM258.384 192.334C260.248 192.334 261.524 191.631 262.212 190.225C262.91 188.808 263.259 187.235 263.259 185.506C263.259 183.943 263.009 182.673 262.509 181.693C261.717 180.152 260.353 179.381 258.415 179.381C256.696 179.381 255.446 180.037 254.665 181.35C253.884 182.662 253.493 184.246 253.493 186.1C253.493 187.881 253.884 189.365 254.665 190.553C255.446 191.74 256.686 192.334 258.384 192.334ZM258.493 176.928C260.649 176.928 262.472 177.647 263.962 179.084C265.451 180.522 266.196 182.636 266.196 185.428C266.196 188.126 265.54 190.355 264.228 192.115C262.915 193.876 260.879 194.756 258.118 194.756C255.816 194.756 253.988 193.98 252.634 192.428C251.28 190.865 250.603 188.772 250.603 186.147C250.603 183.334 251.316 181.095 252.743 179.428C254.17 177.761 256.087 176.928 258.493 176.928ZM269.634 177.412H272.306V180.303C272.524 179.74 273.061 179.058 273.915 178.256C274.769 177.443 275.754 177.037 276.868 177.037C276.92 177.037 277.009 177.042 277.134 177.053C277.259 177.063 277.472 177.084 277.774 177.115V180.084C277.608 180.053 277.451 180.032 277.306 180.022C277.17 180.011 277.019 180.006 276.853 180.006C275.436 180.006 274.347 180.464 273.587 181.381C272.826 182.287 272.446 183.334 272.446 184.522V194.147H269.634V177.412ZM290.79 188.897C290.873 189.834 291.108 190.553 291.493 191.053C292.201 191.959 293.431 192.412 295.181 192.412C296.222 192.412 297.139 192.188 297.931 191.74C298.722 191.282 299.118 190.579 299.118 189.631C299.118 188.912 298.8 188.365 298.165 187.99C297.759 187.761 296.957 187.496 295.759 187.193L293.524 186.631C292.097 186.277 291.045 185.881 290.368 185.443C289.16 184.683 288.556 183.631 288.556 182.287C288.556 180.704 289.123 179.423 290.259 178.443C291.405 177.464 292.941 176.975 294.868 176.975C297.389 176.975 299.207 177.714 300.321 179.193C301.019 180.131 301.358 181.141 301.337 182.225H298.681C298.629 181.589 298.405 181.011 298.009 180.49C297.363 179.751 296.243 179.381 294.649 179.381C293.587 179.381 292.78 179.584 292.228 179.99C291.686 180.397 291.415 180.933 291.415 181.6C291.415 182.329 291.774 182.912 292.493 183.35C292.91 183.61 293.524 183.839 294.337 184.037L296.196 184.49C298.217 184.98 299.571 185.454 300.259 185.912C301.353 186.631 301.899 187.761 301.899 189.303C301.899 190.792 301.332 192.079 300.196 193.162C299.071 194.246 297.353 194.787 295.04 194.787C292.55 194.787 290.785 194.225 289.743 193.1C288.712 191.964 288.16 190.563 288.087 188.897H290.79ZM312.181 192.256C313.493 192.256 314.582 191.709 315.446 190.615C316.321 189.511 316.759 187.865 316.759 185.678C316.759 184.345 316.566 183.199 316.181 182.24C315.451 180.397 314.118 179.475 312.181 179.475C310.233 179.475 308.899 180.449 308.181 182.397C307.795 183.438 307.603 184.761 307.603 186.365C307.603 187.657 307.795 188.756 308.181 189.662C308.91 191.391 310.243 192.256 312.181 192.256ZM304.899 177.49H307.634V179.709C308.196 178.949 308.811 178.36 309.478 177.943C310.425 177.318 311.54 177.006 312.821 177.006C314.717 177.006 316.326 177.735 317.649 179.193C318.972 180.641 319.634 182.714 319.634 185.412C319.634 189.058 318.681 191.662 316.774 193.225C315.566 194.214 314.16 194.709 312.556 194.709C311.295 194.709 310.238 194.433 309.384 193.881C308.884 193.568 308.326 193.032 307.712 192.272V200.818H304.899V177.49ZM329.571 192.334C331.436 192.334 332.712 191.631 333.399 190.225C334.097 188.808 334.446 187.235 334.446 185.506C334.446 183.943 334.196 182.673 333.696 181.693C332.905 180.152 331.54 179.381 329.603 179.381C327.884 179.381 326.634 180.037 325.853 181.35C325.071 182.662 324.681 184.246 324.681 186.1C324.681 187.881 325.071 189.365 325.853 190.553C326.634 191.74 327.873 192.334 329.571 192.334ZM329.681 176.928C331.837 176.928 333.66 177.647 335.149 179.084C336.639 180.522 337.384 182.636 337.384 185.428C337.384 188.126 336.728 190.355 335.415 192.115C334.103 193.876 332.066 194.756 329.306 194.756C327.004 194.756 325.175 193.98 323.821 192.428C322.467 190.865 321.79 188.772 321.79 186.147C321.79 183.334 322.504 181.095 323.931 179.428C325.358 177.761 327.274 176.928 329.681 176.928ZM340.821 177.412H343.493V180.303C343.712 179.74 344.248 179.058 345.103 178.256C345.957 177.443 346.941 177.037 348.056 177.037C348.108 177.037 348.196 177.042 348.321 177.053C348.446 177.063 348.66 177.084 348.962 177.115V180.084C348.795 180.053 348.639 180.032 348.493 180.022C348.358 180.011 348.207 180.006 348.04 180.006C346.623 180.006 345.535 180.464 344.774 181.381C344.014 182.287 343.634 183.334 343.634 184.522V194.147H340.821V177.412ZM351.962 172.74H354.806V177.412H357.478V179.709H354.806V190.631C354.806 191.214 355.004 191.605 355.399 191.803C355.618 191.917 355.983 191.975 356.493 191.975C356.629 191.975 356.774 191.975 356.931 191.975C357.087 191.964 357.269 191.949 357.478 191.928V194.147C357.155 194.24 356.816 194.308 356.462 194.35C356.118 194.391 355.743 194.412 355.337 194.412C354.024 194.412 353.134 194.079 352.665 193.412C352.196 192.735 351.962 191.86 351.962 190.787V179.709H349.696V177.412H351.962V172.74ZM360.899 197.412C361.618 197.287 362.123 196.782 362.415 195.897C362.571 195.428 362.649 194.975 362.649 194.537C362.649 194.464 362.644 194.397 362.634 194.334C362.634 194.282 362.623 194.22 362.603 194.147H360.899V190.74H364.243V193.897C364.243 195.136 363.993 196.225 363.493 197.162C362.993 198.1 362.129 198.678 360.899 198.897V197.412ZM385.087 177.037C386.274 177.037 387.425 177.318 388.54 177.881C389.655 178.433 390.504 179.152 391.087 180.037C391.649 180.881 392.024 181.865 392.212 182.99C392.379 183.761 392.462 184.99 392.462 186.678H380.196C380.248 188.376 380.649 189.74 381.399 190.772C382.149 191.792 383.311 192.303 384.884 192.303C386.353 192.303 387.524 191.818 388.399 190.85C388.899 190.287 389.254 189.636 389.462 188.897H392.228C392.155 189.511 391.91 190.199 391.493 190.959C391.087 191.709 390.629 192.324 390.118 192.803C389.264 193.636 388.207 194.199 386.946 194.49C386.269 194.657 385.504 194.74 384.649 194.74C382.566 194.74 380.8 193.985 379.353 192.475C377.905 190.954 377.181 188.829 377.181 186.1C377.181 183.412 377.91 181.23 379.368 179.553C380.826 177.876 382.733 177.037 385.087 177.037ZM389.571 184.443C389.457 183.225 389.191 182.251 388.774 181.522C388.004 180.167 386.717 179.49 384.915 179.49C383.623 179.49 382.54 179.959 381.665 180.897C380.79 181.824 380.326 183.006 380.274 184.443H389.571ZM397.603 188.897C397.686 189.834 397.92 190.553 398.306 191.053C399.014 191.959 400.243 192.412 401.993 192.412C403.035 192.412 403.951 192.188 404.743 191.74C405.535 191.282 405.931 190.579 405.931 189.631C405.931 188.912 405.613 188.365 404.978 187.99C404.571 187.761 403.769 187.496 402.571 187.193L400.337 186.631C398.91 186.277 397.858 185.881 397.181 185.443C395.972 184.683 395.368 183.631 395.368 182.287C395.368 180.704 395.936 179.423 397.071 178.443C398.217 177.464 399.754 176.975 401.681 176.975C404.201 176.975 406.019 177.714 407.134 179.193C407.832 180.131 408.17 181.141 408.149 182.225H405.493C405.441 181.589 405.217 181.011 404.821 180.49C404.175 179.751 403.056 179.381 401.462 179.381C400.399 179.381 399.592 179.584 399.04 179.99C398.498 180.397 398.228 180.933 398.228 181.6C398.228 182.329 398.587 182.912 399.306 183.35C399.722 183.61 400.337 183.839 401.149 184.037L403.009 184.49C405.03 184.98 406.384 185.454 407.071 185.912C408.165 186.631 408.712 187.761 408.712 189.303C408.712 190.792 408.144 192.079 407.009 193.162C405.884 194.246 404.165 194.787 401.853 194.787C399.363 194.787 397.597 194.225 396.556 193.1C395.524 191.964 394.972 190.563 394.899 188.897H397.603ZM418.993 192.256C420.306 192.256 421.394 191.709 422.259 190.615C423.134 189.511 423.571 187.865 423.571 185.678C423.571 184.345 423.379 183.199 422.993 182.24C422.264 180.397 420.931 179.475 418.993 179.475C417.045 179.475 415.712 180.449 414.993 182.397C414.608 183.438 414.415 184.761 414.415 186.365C414.415 187.657 414.608 188.756 414.993 189.662C415.722 191.391 417.056 192.256 418.993 192.256ZM411.712 177.49H414.446V179.709C415.009 178.949 415.623 178.36 416.29 177.943C417.238 177.318 418.353 177.006 419.634 177.006C421.53 177.006 423.139 177.735 424.462 179.193C425.785 180.641 426.446 182.714 426.446 185.412C426.446 189.058 425.493 191.662 423.587 193.225C422.379 194.214 420.972 194.709 419.368 194.709C418.108 194.709 417.05 194.433 416.196 193.881C415.696 193.568 415.139 193.032 414.524 192.272V200.818H411.712V177.49ZM436.712 177.037C437.899 177.037 439.05 177.318 440.165 177.881C441.28 178.433 442.129 179.152 442.712 180.037C443.274 180.881 443.649 181.865 443.837 182.99C444.004 183.761 444.087 184.99 444.087 186.678H431.821C431.873 188.376 432.274 189.74 433.024 190.772C433.774 191.792 434.936 192.303 436.509 192.303C437.978 192.303 439.149 191.818 440.024 190.85C440.524 190.287 440.879 189.636 441.087 188.897H443.853C443.78 189.511 443.535 190.199 443.118 190.959C442.712 191.709 442.254 192.324 441.743 192.803C440.889 193.636 439.832 194.199 438.571 194.49C437.894 194.657 437.129 194.74 436.274 194.74C434.191 194.74 432.425 193.985 430.978 192.475C429.53 190.954 428.806 188.829 428.806 186.1C428.806 183.412 429.535 181.23 430.993 179.553C432.451 177.876 434.358 177.037 436.712 177.037ZM441.196 184.443C441.082 183.225 440.816 182.251 440.399 181.522C439.629 180.167 438.342 179.49 436.54 179.49C435.248 179.49 434.165 179.959 433.29 180.897C432.415 181.824 431.951 183.006 431.899 184.443H441.196ZM454.009 176.928C455.894 176.928 457.425 177.386 458.603 178.303C459.79 179.22 460.504 180.798 460.743 183.037H458.009C457.842 182.006 457.462 181.152 456.868 180.475C456.274 179.787 455.321 179.443 454.009 179.443C452.217 179.443 450.936 180.318 450.165 182.068C449.665 183.204 449.415 184.605 449.415 186.272C449.415 187.949 449.769 189.36 450.478 190.506C451.186 191.652 452.3 192.225 453.821 192.225C454.988 192.225 455.91 191.871 456.587 191.162C457.274 190.443 457.748 189.464 458.009 188.225H460.743C460.431 190.443 459.649 192.068 458.399 193.1C457.149 194.121 455.55 194.631 453.603 194.631C451.415 194.631 449.67 193.834 448.368 192.24C447.066 190.636 446.415 188.636 446.415 186.24C446.415 183.303 447.129 181.016 448.556 179.381C449.983 177.746 451.8 176.928 454.009 176.928ZM463.556 177.49H466.415V194.147H463.556V177.49ZM463.556 171.193H466.415V174.381H463.556V171.193ZM472.837 189.693C472.837 190.506 473.134 191.147 473.728 191.615C474.321 192.084 475.024 192.318 475.837 192.318C476.826 192.318 477.785 192.089 478.712 191.631C480.274 190.871 481.056 189.626 481.056 187.897V185.631C480.712 185.85 480.269 186.032 479.728 186.178C479.186 186.324 478.655 186.428 478.134 186.49L476.431 186.709C475.41 186.845 474.644 187.058 474.134 187.35C473.269 187.839 472.837 188.621 472.837 189.693ZM479.649 184.006C480.295 183.923 480.728 183.652 480.946 183.193C481.071 182.943 481.134 182.584 481.134 182.115C481.134 181.157 480.79 180.464 480.103 180.037C479.425 179.6 478.451 179.381 477.181 179.381C475.712 179.381 474.67 179.777 474.056 180.568C473.712 181.006 473.488 181.657 473.384 182.522H470.759C470.811 180.459 471.478 179.027 472.759 178.225C474.05 177.412 475.545 177.006 477.243 177.006C479.212 177.006 480.811 177.381 482.04 178.131C483.259 178.881 483.868 180.048 483.868 181.631V191.272C483.868 191.563 483.925 191.798 484.04 191.975C484.165 192.152 484.42 192.24 484.806 192.24C484.931 192.24 485.071 192.235 485.228 192.225C485.384 192.204 485.55 192.178 485.728 192.147V194.225C485.29 194.35 484.957 194.428 484.728 194.459C484.498 194.49 484.186 194.506 483.79 194.506C482.821 194.506 482.118 194.162 481.681 193.475C481.451 193.11 481.29 192.595 481.196 191.928C480.623 192.678 479.8 193.329 478.728 193.881C477.655 194.433 476.472 194.709 475.181 194.709C473.629 194.709 472.358 194.24 471.368 193.303C470.389 192.355 469.899 191.173 469.899 189.756C469.899 188.204 470.384 187.001 471.353 186.147C472.321 185.292 473.592 184.766 475.165 184.568L479.649 184.006ZM488.571 171.193H491.384V194.147H488.571V171.193ZM495.696 171.193H498.509V194.147H495.696V171.193ZM513.196 177.412H516.306C515.91 178.485 515.03 180.933 513.665 184.756C512.644 187.631 511.79 189.975 511.103 191.787C509.478 196.058 508.332 198.662 507.665 199.6C506.998 200.537 505.853 201.006 504.228 201.006C503.832 201.006 503.524 200.99 503.306 200.959C503.097 200.928 502.837 200.871 502.524 200.787V198.225C503.014 198.36 503.368 198.443 503.587 198.475C503.806 198.506 503.998 198.522 504.165 198.522C504.686 198.522 505.066 198.433 505.306 198.256C505.556 198.089 505.764 197.881 505.931 197.631C505.983 197.548 506.17 197.121 506.493 196.35C506.816 195.579 507.05 195.006 507.196 194.631L501.009 177.412H504.196L508.681 191.037L513.196 177.412ZM529.806 189.693C529.806 190.506 530.103 191.147 530.696 191.615C531.29 192.084 531.993 192.318 532.806 192.318C533.795 192.318 534.754 192.089 535.681 191.631C537.243 190.871 538.024 189.626 538.024 187.897V185.631C537.681 185.85 537.238 186.032 536.696 186.178C536.155 186.324 535.623 186.428 535.103 186.49L533.399 186.709C532.379 186.845 531.613 187.058 531.103 187.35C530.238 187.839 529.806 188.621 529.806 189.693ZM536.618 184.006C537.264 183.923 537.696 183.652 537.915 183.193C538.04 182.943 538.103 182.584 538.103 182.115C538.103 181.157 537.759 180.464 537.071 180.037C536.394 179.6 535.42 179.381 534.149 179.381C532.681 179.381 531.639 179.777 531.024 180.568C530.681 181.006 530.457 181.657 530.353 182.522H527.728C527.78 180.459 528.446 179.027 529.728 178.225C531.019 177.412 532.514 177.006 534.212 177.006C536.181 177.006 537.78 177.381 539.009 178.131C540.228 178.881 540.837 180.048 540.837 181.631V191.272C540.837 191.563 540.894 191.798 541.009 191.975C541.134 192.152 541.389 192.24 541.774 192.24C541.899 192.24 542.04 192.235 542.196 192.225C542.353 192.204 542.519 192.178 542.696 192.147V194.225C542.259 194.35 541.925 194.428 541.696 194.459C541.467 194.49 541.155 194.506 540.759 194.506C539.79 194.506 539.087 194.162 538.649 193.475C538.42 193.11 538.259 192.595 538.165 191.928C537.592 192.678 536.769 193.329 535.696 193.881C534.623 194.433 533.441 194.709 532.149 194.709C530.597 194.709 529.326 194.24 528.337 193.303C527.358 192.355 526.868 191.173 526.868 189.756C526.868 188.204 527.353 187.001 528.321 186.147C529.29 185.292 530.561 184.766 532.134 184.568L536.618 184.006ZM560.821 176.928C562.707 176.928 564.238 177.386 565.415 178.303C566.603 179.22 567.316 180.798 567.556 183.037H564.821C564.655 182.006 564.274 181.152 563.681 180.475C563.087 179.787 562.134 179.443 560.821 179.443C559.03 179.443 557.748 180.318 556.978 182.068C556.478 183.204 556.228 184.605 556.228 186.272C556.228 187.949 556.582 189.36 557.29 190.506C557.998 191.652 559.113 192.225 560.634 192.225C561.8 192.225 562.722 191.871 563.399 191.162C564.087 190.443 564.561 189.464 564.821 188.225H567.556C567.243 190.443 566.462 192.068 565.212 193.1C563.962 194.121 562.363 194.631 560.415 194.631C558.228 194.631 556.483 193.834 555.181 192.24C553.879 190.636 553.228 188.636 553.228 186.24C553.228 183.303 553.941 181.016 555.368 179.381C556.795 177.746 558.613 176.928 560.821 176.928ZM577.009 192.334C578.873 192.334 580.149 191.631 580.837 190.225C581.535 188.808 581.884 187.235 581.884 185.506C581.884 183.943 581.634 182.673 581.134 181.693C580.342 180.152 578.978 179.381 577.04 179.381C575.321 179.381 574.071 180.037 573.29 181.35C572.509 182.662 572.118 184.246 572.118 186.1C572.118 187.881 572.509 189.365 573.29 190.553C574.071 191.74 575.311 192.334 577.009 192.334ZM577.118 176.928C579.274 176.928 581.097 177.647 582.587 179.084C584.076 180.522 584.821 182.636 584.821 185.428C584.821 188.126 584.165 190.355 582.853 192.115C581.54 193.876 579.504 194.756 576.743 194.756C574.441 194.756 572.613 193.98 571.259 192.428C569.905 190.865 569.228 188.772 569.228 186.147C569.228 183.334 569.941 181.095 571.368 179.428C572.795 177.761 574.712 176.928 577.118 176.928ZM588.181 177.412H590.962V179.787C591.629 178.964 592.233 178.365 592.774 177.99C593.701 177.355 594.754 177.037 595.931 177.037C597.264 177.037 598.337 177.365 599.149 178.022C599.608 178.397 600.024 178.949 600.399 179.678C601.024 178.782 601.759 178.121 602.603 177.693C603.446 177.256 604.394 177.037 605.446 177.037C607.696 177.037 609.228 177.85 610.04 179.475C610.478 180.35 610.696 181.527 610.696 183.006V194.147H607.774V182.522C607.774 181.407 607.493 180.641 606.931 180.225C606.379 179.808 605.701 179.6 604.899 179.6C603.795 179.6 602.842 179.97 602.04 180.709C601.248 181.449 600.853 182.683 600.853 184.412V194.147H597.993V183.225C597.993 182.089 597.858 181.261 597.587 180.74C597.16 179.959 596.363 179.568 595.196 179.568C594.134 179.568 593.165 179.98 592.29 180.803C591.425 181.626 590.993 183.115 590.993 185.272V194.147H588.181V177.412ZM621.899 192.256C623.212 192.256 624.3 191.709 625.165 190.615C626.04 189.511 626.478 187.865 626.478 185.678C626.478 184.345 626.285 183.199 625.899 182.24C625.17 180.397 623.837 179.475 621.899 179.475C619.951 179.475 618.618 180.449 617.899 182.397C617.514 183.438 617.321 184.761 617.321 186.365C617.321 187.657 617.514 188.756 617.899 189.662C618.629 191.391 619.962 192.256 621.899 192.256ZM614.618 177.49H617.353V179.709C617.915 178.949 618.53 178.36 619.196 177.943C620.144 177.318 621.259 177.006 622.54 177.006C624.436 177.006 626.045 177.735 627.368 179.193C628.691 180.641 629.353 182.714 629.353 185.412C629.353 189.058 628.399 191.662 626.493 193.225C625.285 194.214 623.879 194.709 622.274 194.709C621.014 194.709 619.957 194.433 619.103 193.881C618.603 193.568 618.045 193.032 617.431 192.272V200.818H614.618V177.49ZM639.618 177.037C640.806 177.037 641.957 177.318 643.071 177.881C644.186 178.433 645.035 179.152 645.618 180.037C646.181 180.881 646.556 181.865 646.743 182.99C646.91 183.761 646.993 184.99 646.993 186.678H634.728C634.78 188.376 635.181 189.74 635.931 190.772C636.681 191.792 637.842 192.303 639.415 192.303C640.884 192.303 642.056 191.818 642.931 190.85C643.431 190.287 643.785 189.636 643.993 188.897H646.759C646.686 189.511 646.441 190.199 646.024 190.959C645.618 191.709 645.16 192.324 644.649 192.803C643.795 193.636 642.738 194.199 641.478 194.49C640.8 194.657 640.035 194.74 639.181 194.74C637.097 194.74 635.332 193.985 633.884 192.475C632.436 190.954 631.712 188.829 631.712 186.1C631.712 183.412 632.441 181.23 633.899 179.553C635.358 177.876 637.264 177.037 639.618 177.037ZM644.103 184.443C643.988 183.225 643.722 182.251 643.306 181.522C642.535 180.167 641.248 179.49 639.446 179.49C638.155 179.49 637.071 179.959 636.196 180.897C635.321 181.824 634.858 183.006 634.806 184.443H644.103ZM651.024 172.74H653.868V177.412H656.54V179.709H653.868V190.631C653.868 191.214 654.066 191.605 654.462 191.803C654.681 191.917 655.045 191.975 655.556 191.975C655.691 191.975 655.837 191.975 655.993 191.975C656.149 191.964 656.332 191.949 656.54 191.928V194.147C656.217 194.24 655.879 194.308 655.524 194.35C655.181 194.391 654.806 194.412 654.399 194.412C653.087 194.412 652.196 194.079 651.728 193.412C651.259 192.735 651.024 191.86 651.024 190.787V179.709H648.759V177.412H651.024V172.74ZM659.368 177.49H662.228V194.147H659.368V177.49ZM659.368 171.193H662.228V174.381H659.368V171.193ZM667.056 172.74H669.899V177.412H672.571V179.709H669.899V190.631C669.899 191.214 670.097 191.605 670.493 191.803C670.712 191.917 671.076 191.975 671.587 191.975C671.722 191.975 671.868 191.975 672.024 191.975C672.181 191.964 672.363 191.949 672.571 191.928V194.147C672.248 194.24 671.91 194.308 671.556 194.35C671.212 194.391 670.837 194.412 670.431 194.412C669.118 194.412 668.228 194.079 667.759 193.412C667.29 192.735 667.056 191.86 667.056 190.787V179.709H664.79V177.412H667.056V172.74ZM675.399 177.49H678.259V194.147H675.399V177.49ZM675.399 171.193H678.259V174.381H675.399V171.193ZM683.899 177.412L688.368 191.037L693.04 177.412H696.118L689.806 194.147H686.806L680.634 177.412H683.899ZM705.493 177.037C706.681 177.037 707.832 177.318 708.946 177.881C710.061 178.433 710.91 179.152 711.493 180.037C712.056 180.881 712.431 181.865 712.618 182.99C712.785 183.761 712.868 184.99 712.868 186.678H700.603C700.655 188.376 701.056 189.74 701.806 190.772C702.556 191.792 703.717 192.303 705.29 192.303C706.759 192.303 707.931 191.818 708.806 190.85C709.306 190.287 709.66 189.636 709.868 188.897H712.634C712.561 189.511 712.316 190.199 711.899 190.959C711.493 191.709 711.035 192.324 710.524 192.803C709.67 193.636 708.613 194.199 707.353 194.49C706.675 194.657 705.91 194.74 705.056 194.74C702.972 194.74 701.207 193.985 699.759 192.475C698.311 190.954 697.587 188.829 697.587 186.1C697.587 183.412 698.316 181.23 699.774 179.553C701.233 177.876 703.139 177.037 705.493 177.037ZM709.978 184.443C709.863 183.225 709.597 182.251 709.181 181.522C708.41 180.167 707.123 179.49 705.321 179.49C704.03 179.49 702.946 179.959 702.071 180.897C701.196 181.824 700.733 183.006 700.681 184.443H709.978ZM731.884 192.334C733.748 192.334 735.024 191.631 735.712 190.225C736.41 188.808 736.759 187.235 736.759 185.506C736.759 183.943 736.509 182.673 736.009 181.693C735.217 180.152 733.853 179.381 731.915 179.381C730.196 179.381 728.946 180.037 728.165 181.35C727.384 182.662 726.993 184.246 726.993 186.1C726.993 187.881 727.384 189.365 728.165 190.553C728.946 191.74 730.186 192.334 731.884 192.334ZM731.993 176.928C734.149 176.928 735.972 177.647 737.462 179.084C738.951 180.522 739.696 182.636 739.696 185.428C739.696 188.126 739.04 190.355 737.728 192.115C736.415 193.876 734.379 194.756 731.618 194.756C729.316 194.756 727.488 193.98 726.134 192.428C724.78 190.865 724.103 188.772 724.103 186.147C724.103 183.334 724.816 181.095 726.243 179.428C727.67 177.761 729.587 176.928 731.993 176.928ZM743.056 177.412H745.728V179.787C746.519 178.808 747.358 178.105 748.243 177.678C749.129 177.251 750.113 177.037 751.196 177.037C753.571 177.037 755.175 177.865 756.009 179.522C756.467 180.428 756.696 181.725 756.696 183.412V194.147H753.837V183.6C753.837 182.579 753.686 181.756 753.384 181.131C752.884 180.089 751.978 179.568 750.665 179.568C749.998 179.568 749.451 179.636 749.024 179.772C748.254 180.001 747.576 180.459 746.993 181.147C746.524 181.699 746.217 182.272 746.071 182.865C745.936 183.449 745.868 184.287 745.868 185.381V194.147H743.056V177.412ZM767.837 177.037C769.024 177.037 770.175 177.318 771.29 177.881C772.405 178.433 773.254 179.152 773.837 180.037C774.399 180.881 774.774 181.865 774.962 182.99C775.129 183.761 775.212 184.99 775.212 186.678H762.946C762.998 188.376 763.399 189.74 764.149 190.772C764.899 191.792 766.061 192.303 767.634 192.303C769.103 192.303 770.274 191.818 771.149 190.85C771.649 190.287 772.004 189.636 772.212 188.897H774.978C774.905 189.511 774.66 190.199 774.243 190.959C773.837 191.709 773.379 192.324 772.868 192.803C772.014 193.636 770.957 194.199 769.696 194.49C769.019 194.657 768.254 194.74 767.399 194.74C765.316 194.74 763.55 193.985 762.103 192.475C760.655 190.954 759.931 188.829 759.931 186.1C759.931 183.412 760.66 181.23 762.118 179.553C763.576 177.876 765.483 177.037 767.837 177.037ZM772.321 184.443C772.207 183.225 771.941 182.251 771.524 181.522C770.754 180.167 769.467 179.49 767.665 179.49C766.373 179.49 765.29 179.959 764.415 180.897C763.54 181.824 763.076 183.006 763.024 184.443H772.321ZM55.8682 233.256C57.1807 233.256 58.2692 232.709 59.1338 231.615C60.0088 230.511 60.4463 228.865 60.4463 226.678C60.4463 225.345 60.2536 224.199 59.8682 223.24C59.139 221.397 57.8057 220.475 55.8682 220.475C53.9202 220.475 52.5869 221.449 51.8682 223.397C51.4827 224.438 51.29 225.761 51.29 227.365C51.29 228.657 51.4827 229.756 51.8682 230.662C52.5973 232.391 53.9307 233.256 55.8682 233.256ZM48.5869 218.49H51.3213V220.709C51.8838 219.949 52.4984 219.36 53.165 218.943C54.113 218.318 55.2275 218.006 56.5088 218.006C58.4046 218.006 60.014 218.735 61.3369 220.193C62.6598 221.641 63.3213 223.714 63.3213 226.412C63.3213 230.058 62.3682 232.662 60.4619 234.225C59.2536 235.214 57.8473 235.709 56.2432 235.709C54.9827 235.709 53.9255 235.433 53.0713 234.881C52.5713 234.568 52.014 234.032 51.3994 233.272V241.818H48.5869V218.49ZM66.6963 212.193H69.5088V235.147H66.6963V212.193ZM75.8994 230.693C75.8994 231.506 76.1963 232.147 76.79 232.615C77.3838 233.084 78.0869 233.318 78.8994 233.318C79.889 233.318 80.8473 233.089 81.7744 232.631C83.3369 231.871 84.1182 230.626 84.1182 228.897V226.631C83.7744 226.85 83.3317 227.032 82.79 227.178C82.2484 227.324 81.7171 227.428 81.1963 227.49L79.4932 227.709C78.4723 227.845 77.7067 228.058 77.1963 228.35C76.3317 228.839 75.8994 229.621 75.8994 230.693ZM82.7119 225.006C83.3577 224.923 83.79 224.652 84.0088 224.193C84.1338 223.943 84.1963 223.584 84.1963 223.115C84.1963 222.157 83.8525 221.464 83.165 221.037C82.488 220.6 81.514 220.381 80.2432 220.381C78.7744 220.381 77.7327 220.777 77.1182 221.568C76.7744 222.006 76.5505 222.657 76.4463 223.522H73.8213C73.8734 221.459 74.54 220.027 75.8213 219.225C77.113 218.412 78.6077 218.006 80.3057 218.006C82.2744 218.006 83.8734 218.381 85.1025 219.131C86.3213 219.881 86.9307 221.048 86.9307 222.631V232.272C86.9307 232.563 86.988 232.798 87.1025 232.975C87.2275 233.152 87.4827 233.24 87.8682 233.24C87.9932 233.24 88.1338 233.235 88.29 233.225C88.4463 233.204 88.613 233.178 88.79 233.147V235.225C88.3525 235.35 88.0192 235.428 87.79 235.459C87.5609 235.49 87.2484 235.506 86.8525 235.506C85.8838 235.506 85.1807 235.162 84.7432 234.475C84.514 234.11 84.3525 233.595 84.2588 232.928C83.6859 233.678 82.863 234.329 81.79 234.881C80.7171 235.433 79.5348 235.709 78.2432 235.709C76.6911 235.709 75.4202 235.24 74.4307 234.303C73.4515 233.355 72.9619 232.173 72.9619 230.756C72.9619 229.204 73.4463 228.001 74.415 227.147C75.3838 226.292 76.6546 225.766 78.2275 225.568L82.7119 225.006ZM102.009 218.412H105.118C104.722 219.485 103.842 221.933 102.478 225.756C101.457 228.631 100.603 230.975 99.915 232.787C98.29 237.058 97.1442 239.662 96.4775 240.6C95.8109 241.537 94.665 242.006 93.04 242.006C92.6442 242.006 92.3369 241.99 92.1182 241.959C91.9098 241.928 91.6494 241.871 91.3369 241.787V239.225C91.8265 239.36 92.1807 239.443 92.3994 239.475C92.6182 239.506 92.8109 239.522 92.9775 239.522C93.4984 239.522 93.8786 239.433 94.1182 239.256C94.3682 239.089 94.5765 238.881 94.7432 238.631C94.7952 238.548 94.9827 238.121 95.3057 237.35C95.6286 236.579 95.863 236.006 96.0088 235.631L89.8213 218.412H93.0088L97.4932 232.037L102.009 218.412ZM114.524 218.037C115.712 218.037 116.863 218.318 117.978 218.881C119.092 219.433 119.941 220.152 120.524 221.037C121.087 221.881 121.462 222.865 121.649 223.99C121.816 224.761 121.899 225.99 121.899 227.678H109.634C109.686 229.376 110.087 230.74 110.837 231.772C111.587 232.792 112.748 233.303 114.321 233.303C115.79 233.303 116.962 232.818 117.837 231.85C118.337 231.287 118.691 230.636 118.899 229.897H121.665C121.592 230.511 121.347 231.199 120.931 231.959C120.524 232.709 120.066 233.324 119.556 233.803C118.701 234.636 117.644 235.199 116.384 235.49C115.707 235.657 114.941 235.74 114.087 235.74C112.004 235.74 110.238 234.985 108.79 233.475C107.342 231.954 106.618 229.829 106.618 227.1C106.618 224.412 107.347 222.23 108.806 220.553C110.264 218.876 112.17 218.037 114.524 218.037ZM119.009 225.443C118.894 224.225 118.629 223.251 118.212 222.522C117.441 221.167 116.155 220.49 114.353 220.49C113.061 220.49 111.978 220.959 111.103 221.897C110.228 222.824 109.764 224.006 109.712 225.443H119.009ZM127.149 226.975C127.149 228.766 127.53 230.266 128.29 231.475C129.05 232.683 130.269 233.287 131.946 233.287C133.248 233.287 134.316 232.73 135.149 231.615C135.993 230.49 136.415 228.881 136.415 226.787C136.415 224.673 135.983 223.11 135.118 222.1C134.254 221.079 133.186 220.568 131.915 220.568C130.498 220.568 129.347 221.11 128.462 222.193C127.587 223.277 127.149 224.871 127.149 226.975ZM131.384 218.115C132.665 218.115 133.738 218.386 134.603 218.928C135.103 219.24 135.67 219.787 136.306 220.568V212.115H139.009V235.147H136.478V232.818C135.821 233.85 135.045 234.595 134.149 235.053C133.254 235.511 132.228 235.74 131.071 235.74C129.207 235.74 127.592 234.959 126.228 233.397C124.863 231.824 124.181 229.735 124.181 227.131C124.181 224.693 124.8 222.584 126.04 220.803C127.29 219.011 129.071 218.115 131.384 218.115ZM154.243 230.693C154.243 231.506 154.54 232.147 155.134 232.615C155.728 233.084 156.431 233.318 157.243 233.318C158.233 233.318 159.191 233.089 160.118 232.631C161.681 231.871 162.462 230.626 162.462 228.897V226.631C162.118 226.85 161.675 227.032 161.134 227.178C160.592 227.324 160.061 227.428 159.54 227.49L157.837 227.709C156.816 227.845 156.05 228.058 155.54 228.35C154.675 228.839 154.243 229.621 154.243 230.693ZM161.056 225.006C161.701 224.923 162.134 224.652 162.353 224.193C162.478 223.943 162.54 223.584 162.54 223.115C162.54 222.157 162.196 221.464 161.509 221.037C160.832 220.6 159.858 220.381 158.587 220.381C157.118 220.381 156.076 220.777 155.462 221.568C155.118 222.006 154.894 222.657 154.79 223.522H152.165C152.217 221.459 152.884 220.027 154.165 219.225C155.457 218.412 156.951 218.006 158.649 218.006C160.618 218.006 162.217 218.381 163.446 219.131C164.665 219.881 165.274 221.048 165.274 222.631V232.272C165.274 232.563 165.332 232.798 165.446 232.975C165.571 233.152 165.826 233.24 166.212 233.24C166.337 233.24 166.478 233.235 166.634 233.225C166.79 233.204 166.957 233.178 167.134 233.147V235.225C166.696 235.35 166.363 235.428 166.134 235.459C165.905 235.49 165.592 235.506 165.196 235.506C164.228 235.506 163.524 235.162 163.087 234.475C162.858 234.11 162.696 233.595 162.603 232.928C162.03 233.678 161.207 234.329 160.134 234.881C159.061 235.433 157.879 235.709 156.587 235.709C155.035 235.709 153.764 235.24 152.774 234.303C151.795 233.355 151.306 232.173 151.306 230.756C151.306 229.204 151.79 228.001 152.759 227.147C153.728 226.292 154.998 225.766 156.571 225.568L161.056 225.006ZM176.353 217.928C178.238 217.928 179.769 218.386 180.946 219.303C182.134 220.22 182.847 221.798 183.087 224.037H180.353C180.186 223.006 179.806 222.152 179.212 221.475C178.618 220.787 177.665 220.443 176.353 220.443C174.561 220.443 173.28 221.318 172.509 223.068C172.009 224.204 171.759 225.605 171.759 227.272C171.759 228.949 172.113 230.36 172.821 231.506C173.53 232.652 174.644 233.225 176.165 233.225C177.332 233.225 178.254 232.871 178.931 232.162C179.618 231.443 180.092 230.464 180.353 229.225H183.087C182.774 231.443 181.993 233.068 180.743 234.1C179.493 235.121 177.894 235.631 175.946 235.631C173.759 235.631 172.014 234.834 170.712 233.24C169.41 231.636 168.759 229.636 168.759 227.24C168.759 224.303 169.472 222.016 170.899 220.381C172.326 218.746 174.144 217.928 176.353 217.928ZM192.353 217.928C194.238 217.928 195.769 218.386 196.946 219.303C198.134 220.22 198.847 221.798 199.087 224.037H196.353C196.186 223.006 195.806 222.152 195.212 221.475C194.618 220.787 193.665 220.443 192.353 220.443C190.561 220.443 189.28 221.318 188.509 223.068C188.009 224.204 187.759 225.605 187.759 227.272C187.759 228.949 188.113 230.36 188.821 231.506C189.53 232.652 190.644 233.225 192.165 233.225C193.332 233.225 194.254 232.871 194.931 232.162C195.618 231.443 196.092 230.464 196.353 229.225H199.087C198.774 231.443 197.993 233.068 196.743 234.1C195.493 235.121 193.894 235.631 191.946 235.631C189.759 235.631 188.014 234.834 186.712 233.24C185.41 231.636 184.759 229.636 184.759 227.24C184.759 224.303 185.472 222.016 186.899 220.381C188.326 218.746 190.144 217.928 192.353 217.928ZM208.54 233.334C210.405 233.334 211.681 232.631 212.368 231.225C213.066 229.808 213.415 228.235 213.415 226.506C213.415 224.943 213.165 223.673 212.665 222.693C211.873 221.152 210.509 220.381 208.571 220.381C206.853 220.381 205.603 221.037 204.821 222.35C204.04 223.662 203.649 225.246 203.649 227.1C203.649 228.881 204.04 230.365 204.821 231.553C205.603 232.74 206.842 233.334 208.54 233.334ZM208.649 217.928C210.806 217.928 212.629 218.647 214.118 220.084C215.608 221.522 216.353 223.636 216.353 226.428C216.353 229.126 215.696 231.355 214.384 233.115C213.071 234.876 211.035 235.756 208.274 235.756C205.972 235.756 204.144 234.98 202.79 233.428C201.436 231.865 200.759 229.772 200.759 227.147C200.759 224.334 201.472 222.095 202.899 220.428C204.326 218.761 206.243 217.928 208.649 217.928ZM219.79 218.412H222.462V221.303C222.681 220.74 223.217 220.058 224.071 219.256C224.925 218.443 225.91 218.037 227.024 218.037C227.076 218.037 227.165 218.042 227.29 218.053C227.415 218.063 227.629 218.084 227.931 218.115V221.084C227.764 221.053 227.608 221.032 227.462 221.022C227.326 221.011 227.175 221.006 227.009 221.006C225.592 221.006 224.504 221.464 223.743 222.381C222.983 223.287 222.603 224.334 222.603 225.522V235.147H219.79V218.412ZM232.149 226.975C232.149 228.766 232.53 230.266 233.29 231.475C234.05 232.683 235.269 233.287 236.946 233.287C238.248 233.287 239.316 232.73 240.149 231.615C240.993 230.49 241.415 228.881 241.415 226.787C241.415 224.673 240.983 223.11 240.118 222.1C239.254 221.079 238.186 220.568 236.915 220.568C235.498 220.568 234.347 221.11 233.462 222.193C232.587 223.277 232.149 224.871 232.149 226.975ZM236.384 218.115C237.665 218.115 238.738 218.386 239.603 218.928C240.103 219.24 240.67 219.787 241.306 220.568V212.115H244.009V235.147H241.478V232.818C240.821 233.85 240.045 234.595 239.149 235.053C238.254 235.511 237.228 235.74 236.071 235.74C234.207 235.74 232.592 234.959 231.228 233.397C229.863 231.824 229.181 229.735 229.181 227.131C229.181 224.693 229.8 222.584 231.04 220.803C232.29 219.011 234.071 218.115 236.384 218.115ZM248.181 218.49H251.04V235.147H248.181V218.49ZM248.181 212.193H251.04V215.381H248.181V212.193ZM255.306 218.412H257.978V220.787C258.769 219.808 259.608 219.105 260.493 218.678C261.379 218.251 262.363 218.037 263.446 218.037C265.821 218.037 267.425 218.865 268.259 220.522C268.717 221.428 268.946 222.725 268.946 224.412V235.147H266.087V224.6C266.087 223.579 265.936 222.756 265.634 222.131C265.134 221.089 264.228 220.568 262.915 220.568C262.248 220.568 261.701 220.636 261.274 220.772C260.504 221.001 259.826 221.459 259.243 222.147C258.774 222.699 258.467 223.272 258.321 223.865C258.186 224.449 258.118 225.287 258.118 226.381V235.147H255.306V218.412ZM279.024 218.115C280.337 218.115 281.483 218.438 282.462 219.084C282.993 219.449 283.535 219.98 284.087 220.678V218.568H286.681V233.787C286.681 235.912 286.368 237.589 285.743 238.818C284.576 241.089 282.373 242.225 279.134 242.225C277.332 242.225 275.816 241.818 274.587 241.006C273.358 240.204 272.67 238.943 272.524 237.225H275.384C275.519 237.975 275.79 238.553 276.196 238.959C276.832 239.584 277.832 239.897 279.196 239.897C281.353 239.897 282.764 239.136 283.431 237.615C283.826 236.72 284.009 235.121 283.978 232.818C283.415 233.673 282.738 234.308 281.946 234.725C281.155 235.141 280.108 235.35 278.806 235.35C276.993 235.35 275.405 234.709 274.04 233.428C272.686 232.136 272.009 230.006 272.009 227.037C272.009 224.235 272.691 222.048 274.056 220.475C275.431 218.902 277.087 218.115 279.024 218.115ZM284.087 226.709C284.087 224.636 283.66 223.1 282.806 222.1C281.951 221.1 280.863 220.6 279.54 220.6C277.561 220.6 276.207 221.527 275.478 223.381C275.092 224.371 274.899 225.667 274.899 227.272C274.899 229.157 275.28 230.595 276.04 231.584C276.811 232.563 277.842 233.053 279.134 233.053C281.155 233.053 282.576 232.141 283.399 230.318C283.858 229.287 284.087 228.084 284.087 226.709ZM300.399 213.74H303.243V218.412H305.915V220.709H303.243V231.631C303.243 232.214 303.441 232.605 303.837 232.803C304.056 232.917 304.42 232.975 304.931 232.975C305.066 232.975 305.212 232.975 305.368 232.975C305.524 232.964 305.707 232.949 305.915 232.928V235.147C305.592 235.24 305.254 235.308 304.899 235.35C304.556 235.391 304.181 235.412 303.774 235.412C302.462 235.412 301.571 235.079 301.103 234.412C300.634 233.735 300.399 232.86 300.399 231.787V220.709H298.134V218.412H300.399V213.74ZM315.384 233.334C317.248 233.334 318.524 232.631 319.212 231.225C319.91 229.808 320.259 228.235 320.259 226.506C320.259 224.943 320.009 223.673 319.509 222.693C318.717 221.152 317.353 220.381 315.415 220.381C313.696 220.381 312.446 221.037 311.665 222.35C310.884 223.662 310.493 225.246 310.493 227.1C310.493 228.881 310.884 230.365 311.665 231.553C312.446 232.74 313.686 233.334 315.384 233.334ZM315.493 217.928C317.649 217.928 319.472 218.647 320.962 220.084C322.451 221.522 323.196 223.636 323.196 226.428C323.196 229.126 322.54 231.355 321.228 233.115C319.915 234.876 317.879 235.756 315.118 235.756C312.816 235.756 310.988 234.98 309.634 233.428C308.28 231.865 307.603 229.772 307.603 227.147C307.603 224.334 308.316 222.095 309.743 220.428C311.17 218.761 313.087 217.928 315.493 217.928ZM335.54 218.412H338.212V221.303C338.431 220.74 338.967 220.058 339.821 219.256C340.675 218.443 341.66 218.037 342.774 218.037C342.826 218.037 342.915 218.042 343.04 218.053C343.165 218.063 343.379 218.084 343.681 218.115V221.084C343.514 221.053 343.358 221.032 343.212 221.022C343.076 221.011 342.925 221.006 342.759 221.006C341.342 221.006 340.254 221.464 339.493 222.381C338.733 223.287 338.353 224.334 338.353 225.522V235.147H335.54V218.412ZM348.931 218.412V229.522C348.931 230.376 349.066 231.074 349.337 231.615C349.837 232.615 350.769 233.115 352.134 233.115C354.092 233.115 355.425 232.24 356.134 230.49C356.519 229.553 356.712 228.266 356.712 226.631V218.412H359.524V235.147H356.868L356.899 232.678C356.535 233.313 356.082 233.85 355.54 234.287C354.467 235.162 353.165 235.6 351.634 235.6C349.248 235.6 347.623 234.803 346.759 233.209C346.29 232.355 346.056 231.214 346.056 229.787V218.412H348.931ZM364.009 212.193H366.821V235.147H364.009V212.193ZM378.024 218.037C379.212 218.037 380.363 218.318 381.478 218.881C382.592 219.433 383.441 220.152 384.024 221.037C384.587 221.881 384.962 222.865 385.149 223.99C385.316 224.761 385.399 225.99 385.399 227.678H373.134C373.186 229.376 373.587 230.74 374.337 231.772C375.087 232.792 376.248 233.303 377.821 233.303C379.29 233.303 380.462 232.818 381.337 231.85C381.837 231.287 382.191 230.636 382.399 229.897H385.165C385.092 230.511 384.847 231.199 384.431 231.959C384.024 232.709 383.566 233.324 383.056 233.803C382.201 234.636 381.144 235.199 379.884 235.49C379.207 235.657 378.441 235.74 377.587 235.74C375.504 235.74 373.738 234.985 372.29 233.475C370.842 231.954 370.118 229.829 370.118 227.1C370.118 224.412 370.847 222.23 372.306 220.553C373.764 218.876 375.67 218.037 378.024 218.037ZM382.509 225.443C382.394 224.225 382.129 223.251 381.712 222.522C380.941 221.167 379.655 220.49 377.853 220.49C376.561 220.49 375.478 220.959 374.603 221.897C373.728 222.824 373.264 224.006 373.212 225.443H382.509ZM390.54 229.897C390.623 230.834 390.858 231.553 391.243 232.053C391.951 232.959 393.181 233.412 394.931 233.412C395.972 233.412 396.889 233.188 397.681 232.74C398.472 232.282 398.868 231.579 398.868 230.631C398.868 229.912 398.55 229.365 397.915 228.99C397.509 228.761 396.707 228.496 395.509 228.193L393.274 227.631C391.847 227.277 390.795 226.881 390.118 226.443C388.91 225.683 388.306 224.631 388.306 223.287C388.306 221.704 388.873 220.423 390.009 219.443C391.155 218.464 392.691 217.975 394.618 217.975C397.139 217.975 398.957 218.714 400.071 220.193C400.769 221.131 401.108 222.141 401.087 223.225H398.431C398.379 222.589 398.155 222.011 397.759 221.49C397.113 220.751 395.993 220.381 394.399 220.381C393.337 220.381 392.53 220.584 391.978 220.99C391.436 221.397 391.165 221.933 391.165 222.6C391.165 223.329 391.524 223.912 392.243 224.35C392.66 224.61 393.274 224.839 394.087 225.037L395.946 225.49C397.967 225.98 399.321 226.454 400.009 226.912C401.103 227.631 401.649 228.761 401.649 230.303C401.649 231.792 401.082 233.079 399.946 234.162C398.821 235.246 397.103 235.787 394.79 235.787C392.3 235.787 390.535 235.225 389.493 234.1C388.462 232.964 387.91 231.563 387.837 229.897H390.54ZM415.931 230.693C415.931 231.506 416.228 232.147 416.821 232.615C417.415 233.084 418.118 233.318 418.931 233.318C419.92 233.318 420.879 233.089 421.806 232.631C423.368 231.871 424.149 230.626 424.149 228.897V226.631C423.806 226.85 423.363 227.032 422.821 227.178C422.28 227.324 421.748 227.428 421.228 227.49L419.524 227.709C418.504 227.845 417.738 228.058 417.228 228.35C416.363 228.839 415.931 229.621 415.931 230.693ZM422.743 225.006C423.389 224.923 423.821 224.652 424.04 224.193C424.165 223.943 424.228 223.584 424.228 223.115C424.228 222.157 423.884 221.464 423.196 221.037C422.519 220.6 421.545 220.381 420.274 220.381C418.806 220.381 417.764 220.777 417.149 221.568C416.806 222.006 416.582 222.657 416.478 223.522H413.853C413.905 221.459 414.571 220.027 415.853 219.225C417.144 218.412 418.639 218.006 420.337 218.006C422.306 218.006 423.905 218.381 425.134 219.131C426.353 219.881 426.962 221.048 426.962 222.631V232.272C426.962 232.563 427.019 232.798 427.134 232.975C427.259 233.152 427.514 233.24 427.899 233.24C428.024 233.24 428.165 233.235 428.321 233.225C428.478 233.204 428.644 233.178 428.821 233.147V235.225C428.384 235.35 428.05 235.428 427.821 235.459C427.592 235.49 427.28 235.506 426.884 235.506C425.915 235.506 425.212 235.162 424.774 234.475C424.545 234.11 424.384 233.595 424.29 232.928C423.717 233.678 422.894 234.329 421.821 234.881C420.748 235.433 419.566 235.709 418.274 235.709C416.722 235.709 415.451 235.24 414.462 234.303C413.483 233.355 412.993 232.173 412.993 230.756C412.993 229.204 413.478 228.001 414.446 227.147C415.415 226.292 416.686 225.766 418.259 225.568L422.743 225.006ZM431.587 218.412H434.259V220.787C435.05 219.808 435.889 219.105 436.774 218.678C437.66 218.251 438.644 218.037 439.728 218.037C442.103 218.037 443.707 218.865 444.54 220.522C444.998 221.428 445.228 222.725 445.228 224.412V235.147H442.368V224.6C442.368 223.579 442.217 222.756 441.915 222.131C441.415 221.089 440.509 220.568 439.196 220.568C438.53 220.568 437.983 220.636 437.556 220.772C436.785 221.001 436.108 221.459 435.524 222.147C435.056 222.699 434.748 223.272 434.603 223.865C434.467 224.449 434.399 225.287 434.399 226.381V235.147H431.587V218.412ZM451.181 226.975C451.181 228.766 451.561 230.266 452.321 231.475C453.082 232.683 454.3 233.287 455.978 233.287C457.28 233.287 458.347 232.73 459.181 231.615C460.024 230.49 460.446 228.881 460.446 226.787C460.446 224.673 460.014 223.11 459.149 222.1C458.285 221.079 457.217 220.568 455.946 220.568C454.53 220.568 453.379 221.11 452.493 222.193C451.618 223.277 451.181 224.871 451.181 226.975ZM455.415 218.115C456.696 218.115 457.769 218.386 458.634 218.928C459.134 219.24 459.701 219.787 460.337 220.568V212.115H463.04V235.147H460.509V232.818C459.853 233.85 459.076 234.595 458.181 235.053C457.285 235.511 456.259 235.74 455.103 235.74C453.238 235.74 451.623 234.959 450.259 233.397C448.894 231.824 448.212 229.735 448.212 227.131C448.212 224.693 448.832 222.584 450.071 220.803C451.321 219.011 453.103 218.115 455.415 218.115ZM477.899 226.975C477.899 228.766 478.28 230.266 479.04 231.475C479.8 232.683 481.019 233.287 482.696 233.287C483.998 233.287 485.066 232.73 485.899 231.615C486.743 230.49 487.165 228.881 487.165 226.787C487.165 224.673 486.733 223.11 485.868 222.1C485.004 221.079 483.936 220.568 482.665 220.568C481.248 220.568 480.097 221.11 479.212 222.193C478.337 223.277 477.899 224.871 477.899 226.975ZM482.134 218.115C483.415 218.115 484.488 218.386 485.353 218.928C485.853 219.24 486.42 219.787 487.056 220.568V212.115H489.759V235.147H487.228V232.818C486.571 233.85 485.795 234.595 484.899 235.053C484.004 235.511 482.978 235.74 481.821 235.74C479.957 235.74 478.342 234.959 476.978 233.397C475.613 231.824 474.931 229.735 474.931 227.131C474.931 224.693 475.55 222.584 476.79 220.803C478.04 219.011 479.821 218.115 482.134 218.115ZM500.899 218.037C502.087 218.037 503.238 218.318 504.353 218.881C505.467 219.433 506.316 220.152 506.899 221.037C507.462 221.881 507.837 222.865 508.024 223.99C508.191 224.761 508.274 225.99 508.274 227.678H496.009C496.061 229.376 496.462 230.74 497.212 231.772C497.962 232.792 499.123 233.303 500.696 233.303C502.165 233.303 503.337 232.818 504.212 231.85C504.712 231.287 505.066 230.636 505.274 229.897H508.04C507.967 230.511 507.722 231.199 507.306 231.959C506.899 232.709 506.441 233.324 505.931 233.803C505.076 234.636 504.019 235.199 502.759 235.49C502.082 235.657 501.316 235.74 500.462 235.74C498.379 235.74 496.613 234.985 495.165 233.475C493.717 231.954 492.993 229.829 492.993 227.1C492.993 224.412 493.722 222.23 495.181 220.553C496.639 218.876 498.545 218.037 500.899 218.037ZM505.384 225.443C505.269 224.225 505.004 223.251 504.587 222.522C503.816 221.167 502.53 220.49 500.728 220.49C499.436 220.49 498.353 220.959 497.478 221.897C496.603 222.824 496.139 224.006 496.087 225.443H505.384ZM518.196 217.928C520.082 217.928 521.613 218.386 522.79 219.303C523.978 220.22 524.691 221.798 524.931 224.037H522.196C522.03 223.006 521.649 222.152 521.056 221.475C520.462 220.787 519.509 220.443 518.196 220.443C516.405 220.443 515.123 221.318 514.353 223.068C513.853 224.204 513.603 225.605 513.603 227.272C513.603 228.949 513.957 230.36 514.665 231.506C515.373 232.652 516.488 233.225 518.009 233.225C519.175 233.225 520.097 232.871 520.774 232.162C521.462 231.443 521.936 230.464 522.196 229.225H524.931C524.618 231.443 523.837 233.068 522.587 234.1C521.337 235.121 519.738 235.631 517.79 235.631C515.603 235.631 513.858 234.834 512.556 233.24C511.254 231.636 510.603 229.636 510.603 227.24C510.603 224.303 511.316 222.016 512.743 220.381C514.17 218.746 515.988 217.928 518.196 217.928ZM527.743 218.49H530.603V235.147H527.743V218.49ZM527.743 212.193H530.603V215.381H527.743V212.193ZM536.649 226.975C536.649 228.766 537.03 230.266 537.79 231.475C538.55 232.683 539.769 233.287 541.446 233.287C542.748 233.287 543.816 232.73 544.649 231.615C545.493 230.49 545.915 228.881 545.915 226.787C545.915 224.673 545.483 223.11 544.618 222.1C543.754 221.079 542.686 220.568 541.415 220.568C539.998 220.568 538.847 221.11 537.962 222.193C537.087 223.277 536.649 224.871 536.649 226.975ZM540.884 218.115C542.165 218.115 543.238 218.386 544.103 218.928C544.603 219.24 545.17 219.787 545.806 220.568V212.115H548.509V235.147H545.978V232.818C545.321 233.85 544.545 234.595 543.649 235.053C542.754 235.511 541.728 235.74 540.571 235.74C538.707 235.74 537.092 234.959 535.728 233.397C534.363 231.824 533.681 229.735 533.681 227.131C533.681 224.693 534.3 222.584 535.54 220.803C536.79 219.011 538.571 218.115 540.884 218.115ZM559.649 218.037C560.837 218.037 561.988 218.318 563.103 218.881C564.217 219.433 565.066 220.152 565.649 221.037C566.212 221.881 566.587 222.865 566.774 223.99C566.941 224.761 567.024 225.99 567.024 227.678H554.759C554.811 229.376 555.212 230.74 555.962 231.772C556.712 232.792 557.873 233.303 559.446 233.303C560.915 233.303 562.087 232.818 562.962 231.85C563.462 231.287 563.816 230.636 564.024 229.897H566.79C566.717 230.511 566.472 231.199 566.056 231.959C565.649 232.709 565.191 233.324 564.681 233.803C563.826 234.636 562.769 235.199 561.509 235.49C560.832 235.657 560.066 235.74 559.212 235.74C557.129 235.74 555.363 234.985 553.915 233.475C552.467 231.954 551.743 229.829 551.743 227.1C551.743 224.412 552.472 222.23 553.931 220.553C555.389 218.876 557.295 218.037 559.649 218.037ZM564.134 225.443C564.019 224.225 563.754 223.251 563.337 222.522C562.566 221.167 561.28 220.49 559.478 220.49C558.186 220.49 557.103 220.959 556.228 221.897C555.353 222.824 554.889 224.006 554.837 225.443H564.134ZM572.274 226.975C572.274 228.766 572.655 230.266 573.415 231.475C574.175 232.683 575.394 233.287 577.071 233.287C578.373 233.287 579.441 232.73 580.274 231.615C581.118 230.49 581.54 228.881 581.54 226.787C581.54 224.673 581.108 223.11 580.243 222.1C579.379 221.079 578.311 220.568 577.04 220.568C575.623 220.568 574.472 221.11 573.587 222.193C572.712 223.277 572.274 224.871 572.274 226.975ZM576.509 218.115C577.79 218.115 578.863 218.386 579.728 218.928C580.228 219.24 580.795 219.787 581.431 220.568V212.115H584.134V235.147H581.603V232.818C580.946 233.85 580.17 234.595 579.274 235.053C578.379 235.511 577.353 235.74 576.196 235.74C574.332 235.74 572.717 234.959 571.353 233.397C569.988 231.824 569.306 229.735 569.306 227.131C569.306 224.693 569.925 222.584 571.165 220.803C572.415 219.011 574.196 218.115 576.509 218.115ZM596.993 212.115H599.728V220.443C600.342 219.641 601.076 219.032 601.931 218.615C602.785 218.188 603.712 217.975 604.712 217.975C606.795 217.975 608.483 218.693 609.774 220.131C611.076 221.558 611.728 223.667 611.728 226.459C611.728 229.105 611.087 231.303 609.806 233.053C608.524 234.803 606.748 235.678 604.478 235.678C603.207 235.678 602.134 235.371 601.259 234.756C600.738 234.391 600.181 233.808 599.587 233.006V235.147H596.993V212.115ZM604.306 233.193C605.826 233.193 606.962 232.589 607.712 231.381C608.472 230.173 608.853 228.579 608.853 226.6C608.853 224.839 608.472 223.381 607.712 222.225C606.962 221.068 605.853 220.49 604.384 220.49C603.103 220.49 601.978 220.964 601.009 221.912C600.05 222.86 599.571 224.423 599.571 226.6C599.571 228.173 599.769 229.449 600.165 230.428C600.905 232.272 602.285 233.193 604.306 233.193ZM625.478 218.412H628.587C628.191 219.485 627.311 221.933 625.946 225.756C624.925 228.631 624.071 230.975 623.384 232.787C621.759 237.058 620.613 239.662 619.946 240.6C619.28 241.537 618.134 242.006 616.509 242.006C616.113 242.006 615.806 241.99 615.587 241.959C615.379 241.928 615.118 241.871 614.806 241.787V239.225C615.295 239.36 615.649 239.443 615.868 239.475C616.087 239.506 616.28 239.522 616.446 239.522C616.967 239.522 617.347 239.433 617.587 239.256C617.837 239.089 618.045 238.881 618.212 238.631C618.264 238.548 618.451 238.121 618.774 237.35C619.097 236.579 619.332 236.006 619.478 235.631L613.29 218.412H616.478L620.962 232.037L625.478 218.412ZM641.603 229.897C641.686 230.834 641.92 231.553 642.306 232.053C643.014 232.959 644.243 233.412 645.993 233.412C647.035 233.412 647.951 233.188 648.743 232.74C649.535 232.282 649.931 231.579 649.931 230.631C649.931 229.912 649.613 229.365 648.978 228.99C648.571 228.761 647.769 228.496 646.571 228.193L644.337 227.631C642.91 227.277 641.858 226.881 641.181 226.443C639.972 225.683 639.368 224.631 639.368 223.287C639.368 221.704 639.936 220.423 641.071 219.443C642.217 218.464 643.754 217.975 645.681 217.975C648.201 217.975 650.019 218.714 651.134 220.193C651.832 221.131 652.17 222.141 652.149 223.225H649.493C649.441 222.589 649.217 222.011 648.821 221.49C648.175 220.751 647.056 220.381 645.462 220.381C644.399 220.381 643.592 220.584 643.04 220.99C642.498 221.397 642.228 221.933 642.228 222.6C642.228 223.329 642.587 223.912 643.306 224.35C643.722 224.61 644.337 224.839 645.149 225.037L647.009 225.49C649.03 225.98 650.384 226.454 651.071 226.912C652.165 227.631 652.712 228.761 652.712 230.303C652.712 231.792 652.144 233.079 651.009 234.162C649.884 235.246 648.165 235.787 645.853 235.787C643.363 235.787 641.597 235.225 640.556 234.1C639.524 232.964 638.972 231.563 638.899 229.897H641.603ZM655.868 212.193H658.571V225.522L665.79 218.412H669.384L662.978 224.678L669.743 235.147H666.149L660.931 226.709L658.571 228.865V235.147H655.868V212.193ZM671.931 218.49H674.79V235.147H671.931V218.49ZM671.931 212.193H674.79V215.381H671.931V212.193ZM679.134 212.193H681.946V235.147H679.134V212.193ZM686.259 212.193H689.071V235.147H686.259V212.193ZM693.899 238.412C694.618 238.287 695.123 237.782 695.415 236.897C695.571 236.428 695.649 235.975 695.649 235.537C695.649 235.464 695.644 235.397 695.634 235.334C695.634 235.282 695.623 235.22 695.603 235.147H693.899V231.74H697.243V234.897C697.243 236.136 696.993 237.225 696.493 238.162C695.993 239.1 695.129 239.678 693.899 239.897V238.412ZM50.4775 271.897C50.5609 272.834 50.7952 273.553 51.1807 274.053C51.889 274.959 53.1182 275.412 54.8682 275.412C55.9098 275.412 56.8265 275.188 57.6182 274.74C58.4098 274.282 58.8057 273.579 58.8057 272.631C58.8057 271.912 58.488 271.365 57.8525 270.99C57.4463 270.761 56.6442 270.496 55.4463 270.193L53.2119 269.631C51.7848 269.277 50.7327 268.881 50.0557 268.443C48.8473 267.683 48.2432 266.631 48.2432 265.287C48.2432 263.704 48.8109 262.423 49.9463 261.443C51.0921 260.464 52.6286 259.975 54.5557 259.975C57.0765 259.975 58.8942 260.714 60.0088 262.193C60.7067 263.131 61.0452 264.141 61.0244 265.225H58.3682C58.3161 264.589 58.0921 264.011 57.6963 263.49C57.0505 262.751 55.9307 262.381 54.3369 262.381C53.2744 262.381 52.4671 262.584 51.915 262.99C51.3734 263.397 51.1025 263.933 51.1025 264.6C51.1025 265.329 51.4619 265.912 52.1807 266.35C52.5973 266.61 53.2119 266.839 54.0244 267.037L55.8838 267.49C57.9046 267.98 59.2588 268.454 59.9463 268.912C61.04 269.631 61.5869 270.761 61.5869 272.303C61.5869 273.792 61.0192 275.079 59.8838 276.162C58.7588 277.246 57.04 277.787 54.7275 277.787C52.238 277.787 50.4723 277.225 49.4307 276.1C48.3994 274.964 47.8473 273.563 47.7744 271.897H50.4775ZM65.3682 255.74H68.2119V260.412H70.8838V262.709H68.2119V273.631C68.2119 274.214 68.4098 274.605 68.8057 274.803C69.0244 274.917 69.389 274.975 69.8994 274.975C70.0348 274.975 70.1807 274.975 70.3369 274.975C70.4932 274.964 70.6755 274.949 70.8838 274.928V277.147C70.5609 277.24 70.2223 277.308 69.8682 277.35C69.5244 277.391 69.1494 277.412 68.7432 277.412C67.4307 277.412 66.54 277.079 66.0713 276.412C65.6025 275.735 65.3682 274.86 65.3682 273.787V262.709H63.1025V260.412H65.3682V255.74ZM73.79 260.412H76.4619V263.303C76.6807 262.74 77.2171 262.058 78.0713 261.256C78.9255 260.443 79.9098 260.037 81.0244 260.037C81.0765 260.037 81.165 260.042 81.29 260.053C81.415 260.063 81.6286 260.084 81.9307 260.115V263.084C81.764 263.053 81.6077 263.032 81.4619 263.022C81.3265 263.011 81.1755 263.006 81.0088 263.006C79.5921 263.006 78.5036 263.464 77.7432 264.381C76.9827 265.287 76.6025 266.334 76.6025 267.522V277.147H73.79V260.412ZM91.3369 260.037C92.5244 260.037 93.6755 260.318 94.79 260.881C95.9046 261.433 96.7536 262.152 97.3369 263.037C97.8994 263.881 98.2744 264.865 98.4619 265.99C98.6286 266.761 98.7119 267.99 98.7119 269.678H86.4463C86.4984 271.376 86.8994 272.74 87.6494 273.772C88.3994 274.792 89.5609 275.303 91.1338 275.303C92.6025 275.303 93.7744 274.818 94.6494 273.85C95.1494 273.287 95.5036 272.636 95.7119 271.897H98.4775C98.4046 272.511 98.1598 273.199 97.7432 273.959C97.3369 274.709 96.8786 275.324 96.3682 275.803C95.514 276.636 94.4567 277.199 93.1963 277.49C92.5192 277.657 91.7536 277.74 90.8994 277.74C88.8161 277.74 87.0505 276.985 85.6025 275.475C84.1546 273.954 83.4307 271.829 83.4307 269.1C83.4307 266.412 84.1598 264.23 85.6182 262.553C87.0765 260.876 88.9827 260.037 91.3369 260.037ZM95.8213 267.443C95.7067 266.225 95.4411 265.251 95.0244 264.522C94.2536 263.167 92.9671 262.49 91.165 262.49C89.8734 262.49 88.79 262.959 87.915 263.897C87.04 264.824 86.5765 266.006 86.5244 267.443H95.8213ZM102.181 260.412H104.853V262.787C105.644 261.808 106.483 261.105 107.368 260.678C108.254 260.251 109.238 260.037 110.321 260.037C112.696 260.037 114.3 260.865 115.134 262.522C115.592 263.428 115.821 264.725 115.821 266.412V277.147H112.962V266.6C112.962 265.579 112.811 264.756 112.509 264.131C112.009 263.089 111.103 262.568 109.79 262.568C109.123 262.568 108.576 262.636 108.149 262.772C107.379 263.001 106.701 263.459 106.118 264.147C105.649 264.699 105.342 265.272 105.196 265.865C105.061 266.449 104.993 267.287 104.993 268.381V277.147H102.181V260.412ZM125.899 260.115C127.212 260.115 128.358 260.438 129.337 261.084C129.868 261.449 130.41 261.98 130.962 262.678V260.568H133.556V275.787C133.556 277.912 133.243 279.589 132.618 280.818C131.451 283.089 129.248 284.225 126.009 284.225C124.207 284.225 122.691 283.818 121.462 283.006C120.233 282.204 119.545 280.943 119.399 279.225H122.259C122.394 279.975 122.665 280.553 123.071 280.959C123.707 281.584 124.707 281.897 126.071 281.897C128.228 281.897 129.639 281.136 130.306 279.615C130.701 278.72 130.884 277.121 130.853 274.818C130.29 275.673 129.613 276.308 128.821 276.725C128.03 277.141 126.983 277.35 125.681 277.35C123.868 277.35 122.28 276.709 120.915 275.428C119.561 274.136 118.884 272.006 118.884 269.037C118.884 266.235 119.566 264.048 120.931 262.475C122.306 260.902 123.962 260.115 125.899 260.115ZM130.962 268.709C130.962 266.636 130.535 265.1 129.681 264.1C128.826 263.1 127.738 262.6 126.415 262.6C124.436 262.6 123.082 263.527 122.353 265.381C121.967 266.371 121.774 267.667 121.774 269.272C121.774 271.157 122.155 272.595 122.915 273.584C123.686 274.563 124.717 275.053 126.009 275.053C128.03 275.053 129.451 274.141 130.274 272.318C130.733 271.287 130.962 270.084 130.962 268.709ZM138.368 255.74H141.212V260.412H143.884V262.709H141.212V273.631C141.212 274.214 141.41 274.605 141.806 274.803C142.024 274.917 142.389 274.975 142.899 274.975C143.035 274.975 143.181 274.975 143.337 274.975C143.493 274.964 143.675 274.949 143.884 274.928V277.147C143.561 277.24 143.222 277.308 142.868 277.35C142.524 277.391 142.149 277.412 141.743 277.412C140.431 277.412 139.54 277.079 139.071 276.412C138.603 275.735 138.368 274.86 138.368 273.787V262.709H136.103V260.412H138.368V255.74ZM146.712 254.115H149.524V262.678C150.191 261.834 150.79 261.24 151.321 260.897C152.228 260.303 153.358 260.006 154.712 260.006C157.139 260.006 158.785 260.855 159.649 262.553C160.118 263.48 160.353 264.766 160.353 266.412V277.147H157.462V266.6C157.462 265.371 157.306 264.47 156.993 263.897C156.483 262.98 155.524 262.522 154.118 262.522C152.951 262.522 151.894 262.923 150.946 263.725C149.998 264.527 149.524 266.042 149.524 268.272V277.147H146.712V254.115ZM165.118 280.412C165.837 280.287 166.342 279.782 166.634 278.897C166.79 278.428 166.868 277.975 166.868 277.537C166.868 277.464 166.863 277.397 166.853 277.334C166.853 277.282 166.842 277.22 166.821 277.147H165.118V273.74H168.462V276.897C168.462 278.136 168.212 279.225 167.712 280.162C167.212 281.1 166.347 281.678 165.118 281.897V280.412ZM188.978 275.334C190.842 275.334 192.118 274.631 192.806 273.225C193.504 271.808 193.853 270.235 193.853 268.506C193.853 266.943 193.603 265.673 193.103 264.693C192.311 263.152 190.946 262.381 189.009 262.381C187.29 262.381 186.04 263.037 185.259 264.35C184.478 265.662 184.087 267.246 184.087 269.1C184.087 270.881 184.478 272.365 185.259 273.553C186.04 274.74 187.28 275.334 188.978 275.334ZM189.087 259.928C191.243 259.928 193.066 260.647 194.556 262.084C196.045 263.522 196.79 265.636 196.79 268.428C196.79 271.126 196.134 273.355 194.821 275.115C193.509 276.876 191.472 277.756 188.712 277.756C186.41 277.756 184.582 276.98 183.228 275.428C181.873 273.865 181.196 271.772 181.196 269.147C181.196 266.334 181.91 264.095 183.337 262.428C184.764 260.761 186.681 259.928 189.087 259.928ZM200.228 260.412H202.899V263.303C203.118 262.74 203.655 262.058 204.509 261.256C205.363 260.443 206.347 260.037 207.462 260.037C207.514 260.037 207.603 260.042 207.728 260.053C207.853 260.063 208.066 260.084 208.368 260.115V263.084C208.201 263.053 208.045 263.032 207.899 263.022C207.764 263.011 207.613 263.006 207.446 263.006C206.03 263.006 204.941 263.464 204.181 264.381C203.42 265.287 203.04 266.334 203.04 267.522V277.147H200.228V260.412ZM219.79 254.193H222.603V277.147H219.79V254.193ZM229.649 260.412V271.522C229.649 272.376 229.785 273.074 230.056 273.615C230.556 274.615 231.488 275.115 232.853 275.115C234.811 275.115 236.144 274.24 236.853 272.49C237.238 271.553 237.431 270.266 237.431 268.631V260.412H240.243V277.147H237.587L237.618 274.678C237.254 275.313 236.8 275.85 236.259 276.287C235.186 277.162 233.884 277.6 232.353 277.6C229.967 277.6 228.342 276.803 227.478 275.209C227.009 274.355 226.774 273.214 226.774 271.787V260.412H229.649ZM251.103 259.928C252.988 259.928 254.519 260.386 255.696 261.303C256.884 262.22 257.597 263.798 257.837 266.037H255.103C254.936 265.006 254.556 264.152 253.962 263.475C253.368 262.787 252.415 262.443 251.103 262.443C249.311 262.443 248.03 263.318 247.259 265.068C246.759 266.204 246.509 267.605 246.509 269.272C246.509 270.949 246.863 272.36 247.571 273.506C248.28 274.652 249.394 275.225 250.915 275.225C252.082 275.225 253.004 274.871 253.681 274.162C254.368 273.443 254.842 272.464 255.103 271.225H257.837C257.524 273.443 256.743 275.068 255.493 276.1C254.243 277.121 252.644 277.631 250.696 277.631C248.509 277.631 246.764 276.834 245.462 275.24C244.16 273.636 243.509 271.636 243.509 269.24C243.509 266.303 244.222 264.016 245.649 262.381C247.076 260.746 248.894 259.928 251.103 259.928ZM260.587 254.193H263.29V267.522L270.509 260.412H274.103L267.696 266.678L274.462 277.147H270.868L265.649 268.709L263.29 270.865V277.147H260.587V254.193ZM277.321 273.74H280.587V277.147H277.321V273.74Z" fill="black"/>
<path d="M58.1333 44.1964C59.979 44.1964 61.5903 44.6505 62.9673 45.5587C63.7144 46.0714 64.4761 46.8185 65.2524 47.7999V44.8336H68.8999V66.235C68.8999 69.2233 68.4604 71.5817 67.5815 73.3102C65.9409 76.5035 62.8428 78.1002 58.2871 78.1002C55.7529 78.1002 53.6216 77.5289 51.8931 76.3864C50.1646 75.2584 49.1978 73.486 48.9927 71.069H53.0137C53.2041 72.1237 53.585 72.9366 54.1562 73.5079C55.0498 74.3868 56.4561 74.8263 58.375 74.8263C61.4072 74.8263 63.3921 73.757 64.3296 71.6183C64.8862 70.3585 65.1426 68.11 65.0986 64.8727C64.3076 66.0739 63.3555 66.9674 62.2422 67.5533C61.1289 68.1393 59.6567 68.4323 57.8257 68.4323C55.2769 68.4323 53.043 67.5314 51.124 65.7296C49.2197 63.9132 48.2676 60.9176 48.2676 56.7428C48.2676 52.8024 49.2271 49.7262 51.146 47.5143C53.0796 45.3024 55.4087 44.1964 58.1333 44.1964ZM65.2524 56.2814C65.2524 53.3663 64.6519 51.2057 63.4507 49.7994C62.2495 48.3932 60.7188 47.6901 58.8584 47.6901C56.0752 47.6901 54.1709 48.9938 53.1455 51.6012C52.6035 52.9928 52.3325 54.8165 52.3325 57.0724C52.3325 59.7238 52.8672 61.7452 53.9365 63.1368C55.0205 64.5138 56.4707 65.2023 58.2871 65.2023C61.1289 65.2023 63.1284 63.9205 64.2856 61.3571C64.9302 59.9069 65.2524 58.215 65.2524 56.2814ZM77.9087 61.8844C77.9087 63.027 78.3262 63.9279 79.1611 64.587C79.9961 65.2462 80.9849 65.5758 82.1274 65.5758C83.519 65.5758 84.8667 65.2535 86.1704 64.609C88.3677 63.5397 89.4663 61.7892 89.4663 59.3575V56.1715C88.9829 56.4791 88.3604 56.7355 87.5986 56.9406C86.8369 57.1456 86.0898 57.2921 85.3574 57.38L82.9624 57.6876C81.5269 57.8781 80.4502 58.1783 79.7324 58.5885C78.5166 59.277 77.9087 60.3756 77.9087 61.8844ZM87.4888 53.8864C88.397 53.7692 89.0049 53.3883 89.3125 52.7438C89.4883 52.3922 89.5762 51.8868 89.5762 51.2277C89.5762 49.88 89.0928 48.9059 88.126 48.3053C87.1738 47.6901 85.8042 47.3824 84.0171 47.3824C81.9517 47.3824 80.4868 47.9391 79.6226 49.0524C79.1392 49.6676 78.8242 50.5831 78.6777 51.799H74.9863C75.0596 48.8986 75.9971 46.8844 77.7988 45.7565C79.6152 44.6139 81.7173 44.0426 84.105 44.0426C86.8735 44.0426 89.1221 44.5699 90.8506 45.6246C92.5645 46.6793 93.4214 48.3199 93.4214 50.5465V64.1036C93.4214 64.5138 93.502 64.8434 93.6631 65.0924C93.8389 65.3414 94.1978 65.4659 94.7397 65.4659C94.9155 65.4659 95.1133 65.4586 95.333 65.444C95.5527 65.4147 95.7871 65.3781 96.0361 65.3341V68.2565C95.4209 68.4323 94.9521 68.5421 94.6299 68.5861C94.3076 68.63 93.8682 68.652 93.3115 68.652C91.9492 68.652 90.9604 68.1686 90.3452 67.2018C90.0229 66.6891 89.7959 65.964 89.6641 65.0265C88.8584 66.0812 87.7012 66.9967 86.1924 67.7731C84.6836 68.5494 83.021 68.9376 81.2046 68.9376C79.022 68.9376 77.2349 68.2784 75.8433 66.9601C74.4663 65.6271 73.7778 63.9645 73.7778 61.9723C73.7778 59.7897 74.459 58.0978 75.8213 56.8966C77.1836 55.6954 78.9707 54.9557 81.1826 54.6774L87.4888 53.8864ZM99.9253 44.6139H103.836V47.9537C104.774 46.7965 105.624 45.9542 106.385 45.4269C107.689 44.5333 109.168 44.0865 110.824 44.0865C112.699 44.0865 114.208 44.548 115.35 45.4708C115.995 45.9982 116.581 46.7745 117.108 47.7999C117.987 46.5402 119.02 45.61 120.206 45.0094C121.393 44.3942 122.726 44.0865 124.205 44.0865C127.369 44.0865 129.522 45.2291 130.665 47.5143C131.28 48.7448 131.588 50.4 131.588 52.4801V68.1466H127.479V51.799C127.479 50.2316 127.083 49.1549 126.292 48.569C125.516 47.983 124.564 47.6901 123.436 47.6901C121.883 47.6901 120.543 48.2101 119.415 49.2501C118.302 50.2902 117.745 52.026 117.745 54.4576V68.1466H113.724V52.7877C113.724 51.191 113.534 50.0265 113.153 49.2941C112.552 48.1954 111.432 47.6461 109.791 47.6461C108.297 47.6461 106.935 48.2247 105.704 49.382C104.488 50.5392 103.88 52.6339 103.88 55.6661V68.1466H99.9253V44.6139ZM147.21 44.0865C148.88 44.0865 150.499 44.4821 152.066 45.2731C153.634 46.0494 154.828 47.0602 155.648 48.3053C156.439 49.4918 156.966 50.8761 157.23 52.4581C157.464 53.5421 157.582 55.2706 157.582 57.6437H140.333C140.406 60.0314 140.97 61.9503 142.025 63.4005C143.08 64.8361 144.713 65.5538 146.925 65.5538C148.99 65.5538 150.638 64.8727 151.869 63.5104C152.572 62.7194 153.07 61.8038 153.363 60.7638H157.252C157.149 61.6281 156.805 62.5948 156.219 63.6642C155.648 64.7189 155.003 65.5831 154.286 66.257C153.084 67.4288 151.598 68.2198 149.825 68.63C148.873 68.8644 147.796 68.9816 146.595 68.9816C143.666 68.9816 141.183 67.9196 139.146 65.7955C137.11 63.6569 136.092 60.6686 136.092 56.8307C136.092 53.0514 137.118 49.9825 139.168 47.6241C141.219 45.2657 143.9 44.0865 147.21 44.0865ZM153.517 54.5016C153.355 52.7877 152.982 51.4181 152.396 50.3927C151.312 48.4884 149.503 47.5363 146.969 47.5363C145.152 47.5363 143.629 48.1954 142.398 49.5138C141.168 50.8175 140.516 52.4801 140.443 54.5016H153.517Z" fill="black"/>
<path d="M54.0244 89.1935H56.3994L49.1182 112.147H46.7432L54.0244 89.1935ZM67.0557 96.0841C67.5869 96.4487 68.1286 96.9799 68.6807 97.6779V95.5685H71.2744V110.787C71.2744 112.912 70.9619 114.589 70.3369 115.818C69.1702 118.089 66.9671 119.225 63.7275 119.225C61.9255 119.225 60.4098 118.818 59.1807 118.006C57.9515 117.204 57.264 115.943 57.1182 114.225H59.9775C60.113 114.975 60.3838 115.553 60.79 115.959C61.4255 116.584 62.4255 116.897 63.79 116.897C65.9463 116.897 67.3577 116.136 68.0244 114.615C68.4202 113.72 68.6025 112.121 68.5713 109.818C68.0088 110.673 67.3317 111.308 66.54 111.725C65.7484 112.141 64.7015 112.35 63.3994 112.35C61.5869 112.35 59.9984 111.709 58.6338 110.428C57.2796 109.136 56.6025 107.006 56.6025 104.037C56.6025 101.235 57.2848 99.0476 58.6494 97.4747C60.0244 95.9018 61.6807 95.1154 63.6182 95.1154C64.9307 95.1154 66.0765 95.4383 67.0557 96.0841ZM64.1338 97.5997C62.1546 97.5997 60.8005 98.5268 60.0713 100.381C59.6859 101.371 59.4932 102.667 59.4932 104.272C59.4932 106.157 59.8734 107.595 60.6338 108.584C61.4046 109.563 62.4359 110.053 63.7275 110.053C65.7484 110.053 67.1702 109.141 67.9932 107.318C68.4515 106.287 68.6807 105.084 68.6807 103.709C68.6807 101.636 68.2536 100.1 67.3994 99.0997C66.5452 98.0997 65.4567 97.5997 64.1338 97.5997ZM77.6807 107.693C77.6807 108.506 77.9775 109.147 78.5713 109.615C79.165 110.084 79.8682 110.318 80.6807 110.318C81.6702 110.318 82.6286 110.089 83.5557 109.631C85.1182 108.871 85.8994 107.626 85.8994 105.897V103.631C85.5557 103.85 85.113 104.032 84.5713 104.178C84.0296 104.324 83.4984 104.428 82.9775 104.49L81.2744 104.709C80.2536 104.845 79.488 105.058 78.9775 105.35C78.113 105.839 77.6807 106.621 77.6807 107.693ZM84.4932 102.006C85.139 101.923 85.5713 101.652 85.79 101.193C85.915 100.943 85.9775 100.584 85.9775 100.115C85.9775 99.157 85.6338 98.4643 84.9463 98.0372C84.2692 97.5997 83.2952 97.381 82.0244 97.381C80.5557 97.381 79.514 97.7768 78.8994 98.5685C78.5557 99.006 78.3317 99.657 78.2275 100.522H75.6025C75.6546 98.4591 76.3213 97.0268 77.6025 96.2247C78.8942 95.4122 80.389 95.006 82.0869 95.006C84.0557 95.006 85.6546 95.381 86.8838 96.131C88.1025 96.881 88.7119 98.0476 88.7119 99.631V109.272C88.7119 109.563 88.7692 109.798 88.8838 109.975C89.0088 110.152 89.264 110.24 89.6494 110.24C89.7744 110.24 89.915 110.235 90.0713 110.225C90.2275 110.204 90.3942 110.178 90.5713 110.147V112.225C90.1338 112.35 89.8005 112.428 89.5713 112.459C89.3421 112.49 89.0296 112.506 88.6338 112.506C87.665 112.506 86.9619 112.162 86.5244 111.475C86.2952 111.11 86.1338 110.595 86.04 109.928C85.4671 110.678 84.6442 111.329 83.5713 111.881C82.4984 112.433 81.3161 112.709 80.0244 112.709C78.4723 112.709 77.2015 112.24 76.2119 111.303C75.2327 110.355 74.7432 109.173 74.7432 107.756C74.7432 106.204 75.2275 105.001 76.1963 104.147C77.165 103.292 78.4359 102.766 80.0088 102.568L84.4932 102.006ZM77.0869 91.1622H87.0869V93.006H77.0869V91.1622ZM93.3369 95.4122H96.1182V97.7872C96.7848 96.9643 97.389 96.3654 97.9307 95.9904C98.8577 95.3549 99.9098 95.0372 101.087 95.0372C102.42 95.0372 103.493 95.3654 104.306 96.0216C104.764 96.3966 105.181 96.9487 105.556 97.6779C106.181 96.782 106.915 96.1206 107.759 95.6935C108.603 95.256 109.55 95.0372 110.603 95.0372C112.853 95.0372 114.384 95.8497 115.196 97.4747C115.634 98.3497 115.853 99.5268 115.853 101.006V112.147H112.931V100.522C112.931 99.407 112.649 98.6414 112.087 98.2247C111.535 97.8081 110.858 97.5997 110.056 97.5997C108.951 97.5997 107.998 97.9695 107.196 98.7091C106.405 99.4487 106.009 100.683 106.009 102.412V112.147H103.149V101.225C103.149 100.089 103.014 99.2612 102.743 98.7404C102.316 97.9591 101.519 97.5685 100.353 97.5685C99.29 97.5685 98.3213 97.9799 97.4463 98.8029C96.5817 99.6258 96.1494 101.115 96.1494 103.272V112.147H93.3369V95.4122ZM125.212 89.1935H127.587L120.306 112.147H117.931L125.212 89.1935Z" fill="black"/>
<defs>
<filter id="filter0_d" x="0.855957" y="0.0769043" width="820.288" height="334.802" filterUnits="userSpaceOnUse" color-interpolation-filters="sRGB">
<feFlood flood-opacity="0" result="BackgroundImageFix"/>
<feColorMatrix in="SourceAlpha" type="matrix" values="0 0 0 0 0 0 0 0 0 0 0 0 0 0 0 0 0 0 127 0"/>
<feOffset dx="-4" dy="11"/>
<feColorMatrix type="matrix" values="0 0 0 0 0 0 0 0 0 0 0 0 0 0 0 0 0 0 1 0"/>
<feBlend mode="normal" in2="BackgroundImageFix" result="effect1_dropShadow"/>
<feBlend mode="normal" in="SourceGraphic" in2="effect1_dropShadow" result="shape"/>
</filter>
</defs>
</svg>
