<svg width="818" height="324" viewBox="0 0 818 324" fill="none" xmlns="http://www.w3.org/2000/svg">
<rect x="2.85596" y="2.0769" width="812.288" height="319.802" rx="2" stroke="black" stroke-width="4"/>
<path d="M46.4243 145.165H48.1777L47.8496 146.723C48.5059 146.081 49.1519 145.619 49.7876 145.339C50.4302 145.059 51.1069 144.919 51.8179 144.919C53.3765 144.919 54.313 145.462 54.6274 146.549C54.8052 147.144 54.7778 147.995 54.5454 149.102L53.0483 156.147H51.1719L52.6382 149.225C52.7817 148.555 52.7988 148.015 52.6895 147.605C52.5049 146.922 51.9819 146.58 51.1206 146.58C50.6831 146.58 50.314 146.624 50.0132 146.713C49.4731 146.863 48.9639 147.164 48.4854 147.615C48.1025 147.978 47.8223 148.354 47.6445 148.743C47.4736 149.126 47.313 149.676 47.1626 150.394L45.9424 156.147H44.0967L46.4243 145.165ZM64.543 150.476C64.7617 149.451 64.7754 148.617 64.584 147.974C64.2764 146.963 63.4868 146.457 62.2153 146.457C61.0874 146.457 60.1748 146.887 59.4775 147.749C58.7871 148.61 58.312 149.649 58.0522 150.866C57.8062 152.035 57.854 153.009 58.1958 153.788C58.5444 154.568 59.2759 154.957 60.3901 154.957C61.6138 154.957 62.5503 154.496 63.1997 153.573C63.856 152.643 64.3037 151.611 64.543 150.476ZM66.481 150.425C66.105 152.195 65.3633 153.658 64.2559 154.814C63.1484 155.969 61.689 156.547 59.8774 156.547C58.3667 156.547 57.2764 156.037 56.6064 155.019C55.9365 153.993 55.7827 152.619 56.145 150.897C56.5415 149.051 57.3242 147.581 58.4932 146.487C59.6621 145.394 61.0361 144.847 62.6152 144.847C64.0303 144.847 65.124 145.318 65.8965 146.262C66.6758 147.205 66.8706 148.593 66.481 150.425ZM71.6489 145.165L70.1006 152.455C69.9844 153.016 69.9775 153.474 70.0801 153.829C70.2646 154.485 70.8047 154.814 71.7002 154.814C72.9854 154.814 73.9834 154.239 74.6943 153.091C75.0771 152.476 75.3813 151.631 75.6069 150.558L76.7554 145.165H78.6011L76.2734 156.147H74.5303L74.8892 154.526C74.561 154.943 74.1885 155.296 73.7715 155.583C72.9443 156.157 72.0283 156.444 71.0234 156.444C69.458 156.444 68.5044 155.921 68.1626 154.875C67.9712 154.315 67.9746 153.566 68.1729 152.63L69.7622 145.165H71.6489ZM81.4927 145.165H83.2461L82.918 146.723C83.5742 146.081 84.2202 145.619 84.856 145.339C85.4985 145.059 86.1753 144.919 86.8862 144.919C88.4448 144.919 89.3813 145.462 89.6958 146.549C89.8735 147.144 89.8462 147.995 89.6138 149.102L88.1167 156.147H86.2402L87.7065 149.225C87.8501 148.555 87.8672 148.015 87.7578 147.605C87.5732 146.922 87.0503 146.58 86.189 146.58C85.7515 146.58 85.3823 146.624 85.0815 146.713C84.5415 146.863 84.0322 147.164 83.5537 147.615C83.1709 147.978 82.8906 148.354 82.7129 148.743C82.542 149.126 82.3813 149.676 82.231 150.394L81.0107 156.147H79.165L81.4927 145.165Z" fill="black"/>
<path d="M46.9619 187.693C46.9619 188.506 47.2588 189.147 47.8525 189.615C48.4463 190.084 49.1494 190.318 49.9619 190.318C50.9515 190.318 51.9098 190.089 52.8369 189.631C54.3994 188.871 55.1807 187.626 55.1807 185.897V183.631C54.8369 183.85 54.3942 184.032 53.8525 184.178C53.3109 184.324 52.7796 184.428 52.2588 184.49L50.5557 184.709C49.5348 184.845 48.7692 185.058 48.2588 185.35C47.3942 185.839 46.9619 186.621 46.9619 187.693ZM53.7744 182.006C54.4202 181.923 54.8525 181.652 55.0713 181.193C55.1963 180.943 55.2588 180.584 55.2588 180.115C55.2588 179.157 54.915 178.464 54.2275 178.037C53.5505 177.6 52.5765 177.381 51.3057 177.381C49.8369 177.381 48.7952 177.777 48.1807 178.568C47.8369 179.006 47.613 179.657 47.5088 180.522H44.8838C44.9359 178.459 45.6025 177.027 46.8838 176.225C48.1755 175.412 49.6702 175.006 51.3682 175.006C53.3369 175.006 54.9359 175.381 56.165 176.131C57.3838 176.881 57.9932 178.048 57.9932 179.631V189.272C57.9932 189.563 58.0505 189.798 58.165 189.975C58.29 190.152 58.5452 190.24 58.9307 190.24C59.0557 190.24 59.1963 190.235 59.3525 190.225C59.5088 190.204 59.6755 190.178 59.8525 190.147V192.225C59.415 192.35 59.0817 192.428 58.8525 192.459C58.6234 192.49 58.3109 192.506 57.915 192.506C56.9463 192.506 56.2432 192.162 55.8057 191.475C55.5765 191.11 55.415 190.595 55.3213 189.928C54.7484 190.678 53.9255 191.329 52.8525 191.881C51.7796 192.433 50.5973 192.709 49.3057 192.709C47.7536 192.709 46.4827 192.24 45.4932 191.303C44.514 190.355 44.0244 189.173 44.0244 187.756C44.0244 186.204 44.5088 185.001 45.4775 184.147C46.4463 183.292 47.7171 182.766 49.29 182.568L53.7744 182.006ZM72.2275 172.865C72.2692 171.699 72.4723 170.845 72.8369 170.303C73.4932 169.345 74.7588 168.865 76.6338 168.865C76.8109 168.865 76.9932 168.871 77.1807 168.881C77.3682 168.891 77.5817 168.907 77.8213 168.928V171.49C77.5296 171.47 77.3161 171.459 77.1807 171.459C77.0557 171.449 76.9359 171.443 76.8213 171.443C75.9671 171.443 75.4567 171.667 75.29 172.115C75.1234 172.553 75.04 173.678 75.04 175.49H77.8213V177.709H75.0088V192.147H72.2275V177.709H69.8994V175.49H72.2275V172.865ZM87.0713 190.334C88.9359 190.334 90.2119 189.631 90.8994 188.225C91.5973 186.808 91.9463 185.235 91.9463 183.506C91.9463 181.943 91.6963 180.673 91.1963 179.693C90.4046 178.152 89.04 177.381 87.1025 177.381C85.3838 177.381 84.1338 178.037 83.3525 179.35C82.5713 180.662 82.1807 182.246 82.1807 184.1C82.1807 185.881 82.5713 187.365 83.3525 188.553C84.1338 189.74 85.3734 190.334 87.0713 190.334ZM87.1807 174.928C89.3369 174.928 91.1598 175.647 92.6494 177.084C94.139 178.522 94.8838 180.636 94.8838 183.428C94.8838 186.126 94.2275 188.355 92.915 190.115C91.6025 191.876 89.5661 192.756 86.8057 192.756C84.5036 192.756 82.6755 191.98 81.3213 190.428C79.9671 188.865 79.29 186.772 79.29 184.147C79.29 181.334 80.0036 179.095 81.4307 177.428C82.8577 175.761 84.7744 174.928 87.1807 174.928ZM98.3213 175.412H100.993V178.303C101.212 177.74 101.748 177.058 102.603 176.256C103.457 175.443 104.441 175.037 105.556 175.037C105.608 175.037 105.696 175.042 105.821 175.053C105.946 175.063 106.16 175.084 106.462 175.115V178.084C106.295 178.053 106.139 178.032 105.993 178.022C105.858 178.011 105.707 178.006 105.54 178.006C104.123 178.006 103.035 178.464 102.274 179.381C101.514 180.287 101.134 181.334 101.134 182.522V192.147H98.3213V175.412ZM108.899 175.412H111.681V177.787C112.347 176.964 112.951 176.365 113.493 175.99C114.42 175.355 115.472 175.037 116.649 175.037C117.983 175.037 119.056 175.365 119.868 176.022C120.326 176.397 120.743 176.949 121.118 177.678C121.743 176.782 122.478 176.121 123.321 175.693C124.165 175.256 125.113 175.037 126.165 175.037C128.415 175.037 129.946 175.85 130.759 177.475C131.196 178.35 131.415 179.527 131.415 181.006V192.147H128.493V180.522C128.493 179.407 128.212 178.641 127.649 178.225C127.097 177.808 126.42 177.6 125.618 177.6C124.514 177.6 123.561 177.97 122.759 178.709C121.967 179.449 121.571 180.683 121.571 182.412V192.147H118.712V181.225C118.712 180.089 118.576 179.261 118.306 178.74C117.879 177.959 117.082 177.568 115.915 177.568C114.853 177.568 113.884 177.98 113.009 178.803C112.144 179.626 111.712 181.115 111.712 183.272V192.147H108.899V175.412ZM151.103 190.334C152.967 190.334 154.243 189.631 154.931 188.225C155.629 186.808 155.978 185.235 155.978 183.506C155.978 181.943 155.728 180.673 155.228 179.693C154.436 178.152 153.071 177.381 151.134 177.381C149.415 177.381 148.165 178.037 147.384 179.35C146.603 180.662 146.212 182.246 146.212 184.1C146.212 185.881 146.603 187.365 147.384 188.553C148.165 189.74 149.405 190.334 151.103 190.334ZM151.212 174.928C153.368 174.928 155.191 175.647 156.681 177.084C158.17 178.522 158.915 180.636 158.915 183.428C158.915 186.126 158.259 188.355 156.946 190.115C155.634 191.876 153.597 192.756 150.837 192.756C148.535 192.756 146.707 191.98 145.353 190.428C143.998 188.865 143.321 186.772 143.321 184.147C143.321 181.334 144.035 179.095 145.462 177.428C146.889 175.761 148.806 174.928 151.212 174.928ZM162.978 172.865C163.019 171.699 163.222 170.845 163.587 170.303C164.243 169.345 165.509 168.865 167.384 168.865C167.561 168.865 167.743 168.871 167.931 168.881C168.118 168.891 168.332 168.907 168.571 168.928V171.49C168.28 171.47 168.066 171.459 167.931 171.459C167.806 171.449 167.686 171.443 167.571 171.443C166.717 171.443 166.207 171.667 166.04 172.115C165.873 172.553 165.79 173.678 165.79 175.49H168.571V177.709H165.759V192.147H162.978V177.709H160.649V175.49H162.978V172.865ZM187.149 190.256C188.462 190.256 189.55 189.709 190.415 188.615C191.29 187.511 191.728 185.865 191.728 183.678C191.728 182.345 191.535 181.199 191.149 180.24C190.42 178.397 189.087 177.475 187.149 177.475C185.201 177.475 183.868 178.449 183.149 180.397C182.764 181.438 182.571 182.761 182.571 184.365C182.571 185.657 182.764 186.756 183.149 187.662C183.879 189.391 185.212 190.256 187.149 190.256ZM179.868 175.49H182.603V177.709C183.165 176.949 183.78 176.36 184.446 175.943C185.394 175.318 186.509 175.006 187.79 175.006C189.686 175.006 191.295 175.735 192.618 177.193C193.941 178.641 194.603 180.714 194.603 183.412C194.603 187.058 193.649 189.662 191.743 191.225C190.535 192.214 189.129 192.709 187.524 192.709C186.264 192.709 185.207 192.433 184.353 191.881C183.853 191.568 183.295 191.032 182.681 190.272V198.818H179.868V175.49ZM197.978 169.193H200.79V192.147H197.978V169.193ZM207.181 187.693C207.181 188.506 207.478 189.147 208.071 189.615C208.665 190.084 209.368 190.318 210.181 190.318C211.17 190.318 212.129 190.089 213.056 189.631C214.618 188.871 215.399 187.626 215.399 185.897V183.631C215.056 183.85 214.613 184.032 214.071 184.178C213.53 184.324 212.998 184.428 212.478 184.49L210.774 184.709C209.754 184.845 208.988 185.058 208.478 185.35C207.613 185.839 207.181 186.621 207.181 187.693ZM213.993 182.006C214.639 181.923 215.071 181.652 215.29 181.193C215.415 180.943 215.478 180.584 215.478 180.115C215.478 179.157 215.134 178.464 214.446 178.037C213.769 177.6 212.795 177.381 211.524 177.381C210.056 177.381 209.014 177.777 208.399 178.568C208.056 179.006 207.832 179.657 207.728 180.522H205.103C205.155 178.459 205.821 177.027 207.103 176.225C208.394 175.412 209.889 175.006 211.587 175.006C213.556 175.006 215.155 175.381 216.384 176.131C217.603 176.881 218.212 178.048 218.212 179.631V189.272C218.212 189.563 218.269 189.798 218.384 189.975C218.509 190.152 218.764 190.24 219.149 190.24C219.274 190.24 219.415 190.235 219.571 190.225C219.728 190.204 219.894 190.178 220.071 190.147V192.225C219.634 192.35 219.3 192.428 219.071 192.459C218.842 192.49 218.53 192.506 218.134 192.506C217.165 192.506 216.462 192.162 216.024 191.475C215.795 191.11 215.634 190.595 215.54 189.928C214.967 190.678 214.144 191.329 213.071 191.881C211.998 192.433 210.816 192.709 209.524 192.709C207.972 192.709 206.701 192.24 205.712 191.303C204.733 190.355 204.243 189.173 204.243 187.756C204.243 186.204 204.728 185.001 205.696 184.147C206.665 183.292 207.936 182.766 209.509 182.568L213.993 182.006ZM233.29 175.412H236.399C236.004 176.485 235.123 178.933 233.759 182.756C232.738 185.631 231.884 187.975 231.196 189.787C229.571 194.058 228.425 196.662 227.759 197.6C227.092 198.537 225.946 199.006 224.321 199.006C223.925 199.006 223.618 198.99 223.399 198.959C223.191 198.928 222.931 198.871 222.618 198.787V196.225C223.108 196.36 223.462 196.443 223.681 196.475C223.899 196.506 224.092 196.522 224.259 196.522C224.78 196.522 225.16 196.433 225.399 196.256C225.649 196.089 225.858 195.881 226.024 195.631C226.076 195.548 226.264 195.121 226.587 194.35C226.91 193.579 227.144 193.006 227.29 192.631L221.103 175.412H224.29L228.774 189.037L233.29 175.412ZM254.384 190.334C256.248 190.334 257.524 189.631 258.212 188.225C258.91 186.808 259.259 185.235 259.259 183.506C259.259 181.943 259.009 180.673 258.509 179.693C257.717 178.152 256.353 177.381 254.415 177.381C252.696 177.381 251.446 178.037 250.665 179.35C249.884 180.662 249.493 182.246 249.493 184.1C249.493 185.881 249.884 187.365 250.665 188.553C251.446 189.74 252.686 190.334 254.384 190.334ZM254.493 174.928C256.649 174.928 258.472 175.647 259.962 177.084C261.451 178.522 262.196 180.636 262.196 183.428C262.196 186.126 261.54 188.355 260.228 190.115C258.915 191.876 256.879 192.756 254.118 192.756C251.816 192.756 249.988 191.98 248.634 190.428C247.28 188.865 246.603 186.772 246.603 184.147C246.603 181.334 247.316 179.095 248.743 177.428C250.17 175.761 252.087 174.928 254.493 174.928ZM265.634 175.412H268.306V178.303C268.524 177.74 269.061 177.058 269.915 176.256C270.769 175.443 271.754 175.037 272.868 175.037C272.92 175.037 273.009 175.042 273.134 175.053C273.259 175.063 273.472 175.084 273.774 175.115V178.084C273.608 178.053 273.451 178.032 273.306 178.022C273.17 178.011 273.019 178.006 272.853 178.006C271.436 178.006 270.347 178.464 269.587 179.381C268.826 180.287 268.446 181.334 268.446 182.522V192.147H265.634V175.412ZM286.79 186.897C286.873 187.834 287.108 188.553 287.493 189.053C288.201 189.959 289.431 190.412 291.181 190.412C292.222 190.412 293.139 190.188 293.931 189.74C294.722 189.282 295.118 188.579 295.118 187.631C295.118 186.912 294.8 186.365 294.165 185.99C293.759 185.761 292.957 185.496 291.759 185.193L289.524 184.631C288.097 184.277 287.045 183.881 286.368 183.443C285.16 182.683 284.556 181.631 284.556 180.287C284.556 178.704 285.123 177.423 286.259 176.443C287.405 175.464 288.941 174.975 290.868 174.975C293.389 174.975 295.207 175.714 296.321 177.193C297.019 178.131 297.358 179.141 297.337 180.225H294.681C294.629 179.589 294.405 179.011 294.009 178.49C293.363 177.751 292.243 177.381 290.649 177.381C289.587 177.381 288.78 177.584 288.228 177.99C287.686 178.397 287.415 178.933 287.415 179.6C287.415 180.329 287.774 180.912 288.493 181.35C288.91 181.61 289.524 181.839 290.337 182.037L292.196 182.49C294.217 182.98 295.571 183.454 296.259 183.912C297.353 184.631 297.899 185.761 297.899 187.303C297.899 188.792 297.332 190.079 296.196 191.162C295.071 192.246 293.353 192.787 291.04 192.787C288.55 192.787 286.785 192.225 285.743 191.1C284.712 189.964 284.16 188.563 284.087 186.897H286.79ZM308.181 190.256C309.493 190.256 310.582 189.709 311.446 188.615C312.321 187.511 312.759 185.865 312.759 183.678C312.759 182.345 312.566 181.199 312.181 180.24C311.451 178.397 310.118 177.475 308.181 177.475C306.233 177.475 304.899 178.449 304.181 180.397C303.795 181.438 303.603 182.761 303.603 184.365C303.603 185.657 303.795 186.756 304.181 187.662C304.91 189.391 306.243 190.256 308.181 190.256ZM300.899 175.49H303.634V177.709C304.196 176.949 304.811 176.36 305.478 175.943C306.425 175.318 307.54 175.006 308.821 175.006C310.717 175.006 312.326 175.735 313.649 177.193C314.972 178.641 315.634 180.714 315.634 183.412C315.634 187.058 314.681 189.662 312.774 191.225C311.566 192.214 310.16 192.709 308.556 192.709C307.295 192.709 306.238 192.433 305.384 191.881C304.884 191.568 304.326 191.032 303.712 190.272V198.818H300.899V175.49ZM325.571 190.334C327.436 190.334 328.712 189.631 329.399 188.225C330.097 186.808 330.446 185.235 330.446 183.506C330.446 181.943 330.196 180.673 329.696 179.693C328.905 178.152 327.54 177.381 325.603 177.381C323.884 177.381 322.634 178.037 321.853 179.35C321.071 180.662 320.681 182.246 320.681 184.1C320.681 185.881 321.071 187.365 321.853 188.553C322.634 189.74 323.873 190.334 325.571 190.334ZM325.681 174.928C327.837 174.928 329.66 175.647 331.149 177.084C332.639 178.522 333.384 180.636 333.384 183.428C333.384 186.126 332.728 188.355 331.415 190.115C330.103 191.876 328.066 192.756 325.306 192.756C323.004 192.756 321.175 191.98 319.821 190.428C318.467 188.865 317.79 186.772 317.79 184.147C317.79 181.334 318.504 179.095 319.931 177.428C321.358 175.761 323.274 174.928 325.681 174.928ZM336.821 175.412H339.493V178.303C339.712 177.74 340.248 177.058 341.103 176.256C341.957 175.443 342.941 175.037 344.056 175.037C344.108 175.037 344.196 175.042 344.321 175.053C344.446 175.063 344.66 175.084 344.962 175.115V178.084C344.795 178.053 344.639 178.032 344.493 178.022C344.358 178.011 344.207 178.006 344.04 178.006C342.623 178.006 341.535 178.464 340.774 179.381C340.014 180.287 339.634 181.334 339.634 182.522V192.147H336.821V175.412ZM347.962 170.74H350.806V175.412H353.478V177.709H350.806V188.631C350.806 189.214 351.004 189.605 351.399 189.803C351.618 189.917 351.983 189.975 352.493 189.975C352.629 189.975 352.774 189.975 352.931 189.975C353.087 189.964 353.269 189.949 353.478 189.928V192.147C353.155 192.24 352.816 192.308 352.462 192.35C352.118 192.391 351.743 192.412 351.337 192.412C350.024 192.412 349.134 192.079 348.665 191.412C348.196 190.735 347.962 189.86 347.962 188.787V177.709H345.696V175.412H347.962V170.74ZM356.899 195.412C357.618 195.287 358.123 194.782 358.415 193.897C358.571 193.428 358.649 192.975 358.649 192.537C358.649 192.464 358.644 192.397 358.634 192.334C358.634 192.282 358.623 192.22 358.603 192.147H356.899V188.74H360.243V191.897C360.243 193.136 359.993 194.225 359.493 195.162C358.993 196.1 358.129 196.678 356.899 196.897V195.412ZM381.087 175.037C382.274 175.037 383.425 175.318 384.54 175.881C385.655 176.433 386.504 177.152 387.087 178.037C387.649 178.881 388.024 179.865 388.212 180.99C388.379 181.761 388.462 182.99 388.462 184.678H376.196C376.248 186.376 376.649 187.74 377.399 188.772C378.149 189.792 379.311 190.303 380.884 190.303C382.353 190.303 383.524 189.818 384.399 188.85C384.899 188.287 385.254 187.636 385.462 186.897H388.228C388.155 187.511 387.91 188.199 387.493 188.959C387.087 189.709 386.629 190.324 386.118 190.803C385.264 191.636 384.207 192.199 382.946 192.49C382.269 192.657 381.504 192.74 380.649 192.74C378.566 192.74 376.8 191.985 375.353 190.475C373.905 188.954 373.181 186.829 373.181 184.1C373.181 181.412 373.91 179.23 375.368 177.553C376.826 175.876 378.733 175.037 381.087 175.037ZM385.571 182.443C385.457 181.225 385.191 180.251 384.774 179.522C384.004 178.167 382.717 177.49 380.915 177.49C379.623 177.49 378.54 177.959 377.665 178.897C376.79 179.824 376.326 181.006 376.274 182.443H385.571ZM393.603 186.897C393.686 187.834 393.92 188.553 394.306 189.053C395.014 189.959 396.243 190.412 397.993 190.412C399.035 190.412 399.951 190.188 400.743 189.74C401.535 189.282 401.931 188.579 401.931 187.631C401.931 186.912 401.613 186.365 400.978 185.99C400.571 185.761 399.769 185.496 398.571 185.193L396.337 184.631C394.91 184.277 393.858 183.881 393.181 183.443C391.972 182.683 391.368 181.631 391.368 180.287C391.368 178.704 391.936 177.423 393.071 176.443C394.217 175.464 395.754 174.975 397.681 174.975C400.201 174.975 402.019 175.714 403.134 177.193C403.832 178.131 404.17 179.141 404.149 180.225H401.493C401.441 179.589 401.217 179.011 400.821 178.49C400.175 177.751 399.056 177.381 397.462 177.381C396.399 177.381 395.592 177.584 395.04 177.99C394.498 178.397 394.228 178.933 394.228 179.6C394.228 180.329 394.587 180.912 395.306 181.35C395.722 181.61 396.337 181.839 397.149 182.037L399.009 182.49C401.03 182.98 402.384 183.454 403.071 183.912C404.165 184.631 404.712 185.761 404.712 187.303C404.712 188.792 404.144 190.079 403.009 191.162C401.884 192.246 400.165 192.787 397.853 192.787C395.363 192.787 393.597 192.225 392.556 191.1C391.524 189.964 390.972 188.563 390.899 186.897H393.603ZM414.993 190.256C416.306 190.256 417.394 189.709 418.259 188.615C419.134 187.511 419.571 185.865 419.571 183.678C419.571 182.345 419.379 181.199 418.993 180.24C418.264 178.397 416.931 177.475 414.993 177.475C413.045 177.475 411.712 178.449 410.993 180.397C410.608 181.438 410.415 182.761 410.415 184.365C410.415 185.657 410.608 186.756 410.993 187.662C411.722 189.391 413.056 190.256 414.993 190.256ZM407.712 175.49H410.446V177.709C411.009 176.949 411.623 176.36 412.29 175.943C413.238 175.318 414.353 175.006 415.634 175.006C417.53 175.006 419.139 175.735 420.462 177.193C421.785 178.641 422.446 180.714 422.446 183.412C422.446 187.058 421.493 189.662 419.587 191.225C418.379 192.214 416.972 192.709 415.368 192.709C414.108 192.709 413.05 192.433 412.196 191.881C411.696 191.568 411.139 191.032 410.524 190.272V198.818H407.712V175.49ZM432.712 175.037C433.899 175.037 435.05 175.318 436.165 175.881C437.28 176.433 438.129 177.152 438.712 178.037C439.274 178.881 439.649 179.865 439.837 180.99C440.004 181.761 440.087 182.99 440.087 184.678H427.821C427.873 186.376 428.274 187.74 429.024 188.772C429.774 189.792 430.936 190.303 432.509 190.303C433.978 190.303 435.149 189.818 436.024 188.85C436.524 188.287 436.879 187.636 437.087 186.897H439.853C439.78 187.511 439.535 188.199 439.118 188.959C438.712 189.709 438.254 190.324 437.743 190.803C436.889 191.636 435.832 192.199 434.571 192.49C433.894 192.657 433.129 192.74 432.274 192.74C430.191 192.74 428.425 191.985 426.978 190.475C425.53 188.954 424.806 186.829 424.806 184.1C424.806 181.412 425.535 179.23 426.993 177.553C428.451 175.876 430.358 175.037 432.712 175.037ZM437.196 182.443C437.082 181.225 436.816 180.251 436.399 179.522C435.629 178.167 434.342 177.49 432.54 177.49C431.248 177.49 430.165 177.959 429.29 178.897C428.415 179.824 427.951 181.006 427.899 182.443H437.196ZM450.009 174.928C451.894 174.928 453.425 175.386 454.603 176.303C455.79 177.22 456.504 178.798 456.743 181.037H454.009C453.842 180.006 453.462 179.152 452.868 178.475C452.274 177.787 451.321 177.443 450.009 177.443C448.217 177.443 446.936 178.318 446.165 180.068C445.665 181.204 445.415 182.605 445.415 184.272C445.415 185.949 445.769 187.36 446.478 188.506C447.186 189.652 448.3 190.225 449.821 190.225C450.988 190.225 451.91 189.871 452.587 189.162C453.274 188.443 453.748 187.464 454.009 186.225H456.743C456.431 188.443 455.649 190.068 454.399 191.1C453.149 192.121 451.55 192.631 449.603 192.631C447.415 192.631 445.67 191.834 444.368 190.24C443.066 188.636 442.415 186.636 442.415 184.24C442.415 181.303 443.129 179.016 444.556 177.381C445.983 175.746 447.8 174.928 450.009 174.928ZM459.556 175.49H462.415V192.147H459.556V175.49ZM459.556 169.193H462.415V172.381H459.556V169.193ZM468.837 187.693C468.837 188.506 469.134 189.147 469.728 189.615C470.321 190.084 471.024 190.318 471.837 190.318C472.826 190.318 473.785 190.089 474.712 189.631C476.274 188.871 477.056 187.626 477.056 185.897V183.631C476.712 183.85 476.269 184.032 475.728 184.178C475.186 184.324 474.655 184.428 474.134 184.49L472.431 184.709C471.41 184.845 470.644 185.058 470.134 185.35C469.269 185.839 468.837 186.621 468.837 187.693ZM475.649 182.006C476.295 181.923 476.728 181.652 476.946 181.193C477.071 180.943 477.134 180.584 477.134 180.115C477.134 179.157 476.79 178.464 476.103 178.037C475.425 177.6 474.451 177.381 473.181 177.381C471.712 177.381 470.67 177.777 470.056 178.568C469.712 179.006 469.488 179.657 469.384 180.522H466.759C466.811 178.459 467.478 177.027 468.759 176.225C470.05 175.412 471.545 175.006 473.243 175.006C475.212 175.006 476.811 175.381 478.04 176.131C479.259 176.881 479.868 178.048 479.868 179.631V189.272C479.868 189.563 479.925 189.798 480.04 189.975C480.165 190.152 480.42 190.24 480.806 190.24C480.931 190.24 481.071 190.235 481.228 190.225C481.384 190.204 481.55 190.178 481.728 190.147V192.225C481.29 192.35 480.957 192.428 480.728 192.459C480.498 192.49 480.186 192.506 479.79 192.506C478.821 192.506 478.118 192.162 477.681 191.475C477.451 191.11 477.29 190.595 477.196 189.928C476.623 190.678 475.8 191.329 474.728 191.881C473.655 192.433 472.472 192.709 471.181 192.709C469.629 192.709 468.358 192.24 467.368 191.303C466.389 190.355 465.899 189.173 465.899 187.756C465.899 186.204 466.384 185.001 467.353 184.147C468.321 183.292 469.592 182.766 471.165 182.568L475.649 182.006ZM484.571 169.193H487.384V192.147H484.571V169.193ZM491.696 169.193H494.509V192.147H491.696V169.193ZM509.196 175.412H512.306C511.91 176.485 511.03 178.933 509.665 182.756C508.644 185.631 507.79 187.975 507.103 189.787C505.478 194.058 504.332 196.662 503.665 197.6C502.998 198.537 501.853 199.006 500.228 199.006C499.832 199.006 499.524 198.99 499.306 198.959C499.097 198.928 498.837 198.871 498.524 198.787V196.225C499.014 196.36 499.368 196.443 499.587 196.475C499.806 196.506 499.998 196.522 500.165 196.522C500.686 196.522 501.066 196.433 501.306 196.256C501.556 196.089 501.764 195.881 501.931 195.631C501.983 195.548 502.17 195.121 502.493 194.35C502.816 193.579 503.05 193.006 503.196 192.631L497.009 175.412H500.196L504.681 189.037L509.196 175.412ZM525.806 187.693C525.806 188.506 526.103 189.147 526.696 189.615C527.29 190.084 527.993 190.318 528.806 190.318C529.795 190.318 530.754 190.089 531.681 189.631C533.243 188.871 534.024 187.626 534.024 185.897V183.631C533.681 183.85 533.238 184.032 532.696 184.178C532.155 184.324 531.623 184.428 531.103 184.49L529.399 184.709C528.379 184.845 527.613 185.058 527.103 185.35C526.238 185.839 525.806 186.621 525.806 187.693ZM532.618 182.006C533.264 181.923 533.696 181.652 533.915 181.193C534.04 180.943 534.103 180.584 534.103 180.115C534.103 179.157 533.759 178.464 533.071 178.037C532.394 177.6 531.42 177.381 530.149 177.381C528.681 177.381 527.639 177.777 527.024 178.568C526.681 179.006 526.457 179.657 526.353 180.522H523.728C523.78 178.459 524.446 177.027 525.728 176.225C527.019 175.412 528.514 175.006 530.212 175.006C532.181 175.006 533.78 175.381 535.009 176.131C536.228 176.881 536.837 178.048 536.837 179.631V189.272C536.837 189.563 536.894 189.798 537.009 189.975C537.134 190.152 537.389 190.24 537.774 190.24C537.899 190.24 538.04 190.235 538.196 190.225C538.353 190.204 538.519 190.178 538.696 190.147V192.225C538.259 192.35 537.925 192.428 537.696 192.459C537.467 192.49 537.155 192.506 536.759 192.506C535.79 192.506 535.087 192.162 534.649 191.475C534.42 191.11 534.259 190.595 534.165 189.928C533.592 190.678 532.769 191.329 531.696 191.881C530.623 192.433 529.441 192.709 528.149 192.709C526.597 192.709 525.326 192.24 524.337 191.303C523.358 190.355 522.868 189.173 522.868 187.756C522.868 186.204 523.353 185.001 524.321 184.147C525.29 183.292 526.561 182.766 528.134 182.568L532.618 182.006ZM556.821 174.928C558.707 174.928 560.238 175.386 561.415 176.303C562.603 177.22 563.316 178.798 563.556 181.037H560.821C560.655 180.006 560.274 179.152 559.681 178.475C559.087 177.787 558.134 177.443 556.821 177.443C555.03 177.443 553.748 178.318 552.978 180.068C552.478 181.204 552.228 182.605 552.228 184.272C552.228 185.949 552.582 187.36 553.29 188.506C553.998 189.652 555.113 190.225 556.634 190.225C557.8 190.225 558.722 189.871 559.399 189.162C560.087 188.443 560.561 187.464 560.821 186.225H563.556C563.243 188.443 562.462 190.068 561.212 191.1C559.962 192.121 558.363 192.631 556.415 192.631C554.228 192.631 552.483 191.834 551.181 190.24C549.879 188.636 549.228 186.636 549.228 184.24C549.228 181.303 549.941 179.016 551.368 177.381C552.795 175.746 554.613 174.928 556.821 174.928ZM573.009 190.334C574.873 190.334 576.149 189.631 576.837 188.225C577.535 186.808 577.884 185.235 577.884 183.506C577.884 181.943 577.634 180.673 577.134 179.693C576.342 178.152 574.978 177.381 573.04 177.381C571.321 177.381 570.071 178.037 569.29 179.35C568.509 180.662 568.118 182.246 568.118 184.1C568.118 185.881 568.509 187.365 569.29 188.553C570.071 189.74 571.311 190.334 573.009 190.334ZM573.118 174.928C575.274 174.928 577.097 175.647 578.587 177.084C580.076 178.522 580.821 180.636 580.821 183.428C580.821 186.126 580.165 188.355 578.853 190.115C577.54 191.876 575.504 192.756 572.743 192.756C570.441 192.756 568.613 191.98 567.259 190.428C565.905 188.865 565.228 186.772 565.228 184.147C565.228 181.334 565.941 179.095 567.368 177.428C568.795 175.761 570.712 174.928 573.118 174.928ZM584.181 175.412H586.962V177.787C587.629 176.964 588.233 176.365 588.774 175.99C589.701 175.355 590.754 175.037 591.931 175.037C593.264 175.037 594.337 175.365 595.149 176.022C595.608 176.397 596.024 176.949 596.399 177.678C597.024 176.782 597.759 176.121 598.603 175.693C599.446 175.256 600.394 175.037 601.446 175.037C603.696 175.037 605.228 175.85 606.04 177.475C606.478 178.35 606.696 179.527 606.696 181.006V192.147H603.774V180.522C603.774 179.407 603.493 178.641 602.931 178.225C602.379 177.808 601.701 177.6 600.899 177.6C599.795 177.6 598.842 177.97 598.04 178.709C597.248 179.449 596.853 180.683 596.853 182.412V192.147H593.993V181.225C593.993 180.089 593.858 179.261 593.587 178.74C593.16 177.959 592.363 177.568 591.196 177.568C590.134 177.568 589.165 177.98 588.29 178.803C587.425 179.626 586.993 181.115 586.993 183.272V192.147H584.181V175.412ZM617.899 190.256C619.212 190.256 620.3 189.709 621.165 188.615C622.04 187.511 622.478 185.865 622.478 183.678C622.478 182.345 622.285 181.199 621.899 180.24C621.17 178.397 619.837 177.475 617.899 177.475C615.951 177.475 614.618 178.449 613.899 180.397C613.514 181.438 613.321 182.761 613.321 184.365C613.321 185.657 613.514 186.756 613.899 187.662C614.629 189.391 615.962 190.256 617.899 190.256ZM610.618 175.49H613.353V177.709C613.915 176.949 614.53 176.36 615.196 175.943C616.144 175.318 617.259 175.006 618.54 175.006C620.436 175.006 622.045 175.735 623.368 177.193C624.691 178.641 625.353 180.714 625.353 183.412C625.353 187.058 624.399 189.662 622.493 191.225C621.285 192.214 619.879 192.709 618.274 192.709C617.014 192.709 615.957 192.433 615.103 191.881C614.603 191.568 614.045 191.032 613.431 190.272V198.818H610.618V175.49ZM635.618 175.037C636.806 175.037 637.957 175.318 639.071 175.881C640.186 176.433 641.035 177.152 641.618 178.037C642.181 178.881 642.556 179.865 642.743 180.99C642.91 181.761 642.993 182.99 642.993 184.678H630.728C630.78 186.376 631.181 187.74 631.931 188.772C632.681 189.792 633.842 190.303 635.415 190.303C636.884 190.303 638.056 189.818 638.931 188.85C639.431 188.287 639.785 187.636 639.993 186.897H642.759C642.686 187.511 642.441 188.199 642.024 188.959C641.618 189.709 641.16 190.324 640.649 190.803C639.795 191.636 638.738 192.199 637.478 192.49C636.8 192.657 636.035 192.74 635.181 192.74C633.097 192.74 631.332 191.985 629.884 190.475C628.436 188.954 627.712 186.829 627.712 184.1C627.712 181.412 628.441 179.23 629.899 177.553C631.358 175.876 633.264 175.037 635.618 175.037ZM640.103 182.443C639.988 181.225 639.722 180.251 639.306 179.522C638.535 178.167 637.248 177.49 635.446 177.49C634.155 177.49 633.071 177.959 632.196 178.897C631.321 179.824 630.858 181.006 630.806 182.443H640.103ZM647.024 170.74H649.868V175.412H652.54V177.709H649.868V188.631C649.868 189.214 650.066 189.605 650.462 189.803C650.681 189.917 651.045 189.975 651.556 189.975C651.691 189.975 651.837 189.975 651.993 189.975C652.149 189.964 652.332 189.949 652.54 189.928V192.147C652.217 192.24 651.879 192.308 651.524 192.35C651.181 192.391 650.806 192.412 650.399 192.412C649.087 192.412 648.196 192.079 647.728 191.412C647.259 190.735 647.024 189.86 647.024 188.787V177.709H644.759V175.412H647.024V170.74ZM655.368 175.49H658.228V192.147H655.368V175.49ZM655.368 169.193H658.228V172.381H655.368V169.193ZM663.056 170.74H665.899V175.412H668.571V177.709H665.899V188.631C665.899 189.214 666.097 189.605 666.493 189.803C666.712 189.917 667.076 189.975 667.587 189.975C667.722 189.975 667.868 189.975 668.024 189.975C668.181 189.964 668.363 189.949 668.571 189.928V192.147C668.248 192.24 667.91 192.308 667.556 192.35C667.212 192.391 666.837 192.412 666.431 192.412C665.118 192.412 664.228 192.079 663.759 191.412C663.29 190.735 663.056 189.86 663.056 188.787V177.709H660.79V175.412H663.056V170.74ZM671.399 175.49H674.259V192.147H671.399V175.49ZM671.399 169.193H674.259V172.381H671.399V169.193ZM679.899 175.412L684.368 189.037L689.04 175.412H692.118L685.806 192.147H682.806L676.634 175.412H679.899ZM701.493 175.037C702.681 175.037 703.832 175.318 704.946 175.881C706.061 176.433 706.91 177.152 707.493 178.037C708.056 178.881 708.431 179.865 708.618 180.99C708.785 181.761 708.868 182.99 708.868 184.678H696.603C696.655 186.376 697.056 187.74 697.806 188.772C698.556 189.792 699.717 190.303 701.29 190.303C702.759 190.303 703.931 189.818 704.806 188.85C705.306 188.287 705.66 187.636 705.868 186.897H708.634C708.561 187.511 708.316 188.199 707.899 188.959C707.493 189.709 707.035 190.324 706.524 190.803C705.67 191.636 704.613 192.199 703.353 192.49C702.675 192.657 701.91 192.74 701.056 192.74C698.972 192.74 697.207 191.985 695.759 190.475C694.311 188.954 693.587 186.829 693.587 184.1C693.587 181.412 694.316 179.23 695.774 177.553C697.233 175.876 699.139 175.037 701.493 175.037ZM705.978 182.443C705.863 181.225 705.597 180.251 705.181 179.522C704.41 178.167 703.123 177.49 701.321 177.49C700.03 177.49 698.946 177.959 698.071 178.897C697.196 179.824 696.733 181.006 696.681 182.443H705.978ZM727.884 190.334C729.748 190.334 731.024 189.631 731.712 188.225C732.41 186.808 732.759 185.235 732.759 183.506C732.759 181.943 732.509 180.673 732.009 179.693C731.217 178.152 729.853 177.381 727.915 177.381C726.196 177.381 724.946 178.037 724.165 179.35C723.384 180.662 722.993 182.246 722.993 184.1C722.993 185.881 723.384 187.365 724.165 188.553C724.946 189.74 726.186 190.334 727.884 190.334ZM727.993 174.928C730.149 174.928 731.972 175.647 733.462 177.084C734.951 178.522 735.696 180.636 735.696 183.428C735.696 186.126 735.04 188.355 733.728 190.115C732.415 191.876 730.379 192.756 727.618 192.756C725.316 192.756 723.488 191.98 722.134 190.428C720.78 188.865 720.103 186.772 720.103 184.147C720.103 181.334 720.816 179.095 722.243 177.428C723.67 175.761 725.587 174.928 727.993 174.928ZM739.056 175.412H741.728V177.787C742.519 176.808 743.358 176.105 744.243 175.678C745.129 175.251 746.113 175.037 747.196 175.037C749.571 175.037 751.175 175.865 752.009 177.522C752.467 178.428 752.696 179.725 752.696 181.412V192.147H749.837V181.6C749.837 180.579 749.686 179.756 749.384 179.131C748.884 178.089 747.978 177.568 746.665 177.568C745.998 177.568 745.451 177.636 745.024 177.772C744.254 178.001 743.576 178.459 742.993 179.147C742.524 179.699 742.217 180.272 742.071 180.865C741.936 181.449 741.868 182.287 741.868 183.381V192.147H739.056V175.412ZM763.837 175.037C765.024 175.037 766.175 175.318 767.29 175.881C768.405 176.433 769.254 177.152 769.837 178.037C770.399 178.881 770.774 179.865 770.962 180.99C771.129 181.761 771.212 182.99 771.212 184.678H758.946C758.998 186.376 759.399 187.74 760.149 188.772C760.899 189.792 762.061 190.303 763.634 190.303C765.103 190.303 766.274 189.818 767.149 188.85C767.649 188.287 768.004 187.636 768.212 186.897H770.978C770.905 187.511 770.66 188.199 770.243 188.959C769.837 189.709 769.379 190.324 768.868 190.803C768.014 191.636 766.957 192.199 765.696 192.49C765.019 192.657 764.254 192.74 763.399 192.74C761.316 192.74 759.55 191.985 758.103 190.475C756.655 188.954 755.931 186.829 755.931 184.1C755.931 181.412 756.66 179.23 758.118 177.553C759.576 175.876 761.483 175.037 763.837 175.037ZM768.321 182.443C768.207 181.225 767.941 180.251 767.524 179.522C766.754 178.167 765.467 177.49 763.665 177.49C762.373 177.49 761.29 177.959 760.415 178.897C759.54 179.824 759.076 181.006 759.024 182.443H768.321ZM51.8682 231.256C53.1807 231.256 54.2692 230.709 55.1338 229.615C56.0088 228.511 56.4463 226.865 56.4463 224.678C56.4463 223.345 56.2536 222.199 55.8682 221.24C55.139 219.397 53.8057 218.475 51.8682 218.475C49.9202 218.475 48.5869 219.449 47.8682 221.397C47.4827 222.438 47.29 223.761 47.29 225.365C47.29 226.657 47.4827 227.756 47.8682 228.662C48.5973 230.391 49.9307 231.256 51.8682 231.256ZM44.5869 216.49H47.3213V218.709C47.8838 217.949 48.4984 217.36 49.165 216.943C50.113 216.318 51.2275 216.006 52.5088 216.006C54.4046 216.006 56.014 216.735 57.3369 218.193C58.6598 219.641 59.3213 221.714 59.3213 224.412C59.3213 228.058 58.3682 230.662 56.4619 232.225C55.2536 233.214 53.8473 233.709 52.2432 233.709C50.9827 233.709 49.9255 233.433 49.0713 232.881C48.5713 232.568 48.014 232.032 47.3994 231.272V239.818H44.5869V216.49ZM62.6963 210.193H65.5088V233.147H62.6963V210.193ZM71.8994 228.693C71.8994 229.506 72.1963 230.147 72.79 230.615C73.3838 231.084 74.0869 231.318 74.8994 231.318C75.889 231.318 76.8473 231.089 77.7744 230.631C79.3369 229.871 80.1182 228.626 80.1182 226.897V224.631C79.7744 224.85 79.3317 225.032 78.79 225.178C78.2484 225.324 77.7171 225.428 77.1963 225.49L75.4932 225.709C74.4723 225.845 73.7067 226.058 73.1963 226.35C72.3317 226.839 71.8994 227.621 71.8994 228.693ZM78.7119 223.006C79.3577 222.923 79.79 222.652 80.0088 222.193C80.1338 221.943 80.1963 221.584 80.1963 221.115C80.1963 220.157 79.8525 219.464 79.165 219.037C78.488 218.6 77.514 218.381 76.2432 218.381C74.7744 218.381 73.7327 218.777 73.1182 219.568C72.7744 220.006 72.5505 220.657 72.4463 221.522H69.8213C69.8734 219.459 70.54 218.027 71.8213 217.225C73.113 216.412 74.6077 216.006 76.3057 216.006C78.2744 216.006 79.8734 216.381 81.1025 217.131C82.3213 217.881 82.9307 219.048 82.9307 220.631V230.272C82.9307 230.563 82.988 230.798 83.1025 230.975C83.2275 231.152 83.4827 231.24 83.8682 231.24C83.9932 231.24 84.1338 231.235 84.29 231.225C84.4463 231.204 84.613 231.178 84.79 231.147V233.225C84.3525 233.35 84.0192 233.428 83.79 233.459C83.5609 233.49 83.2484 233.506 82.8525 233.506C81.8838 233.506 81.1807 233.162 80.7432 232.475C80.514 232.11 80.3525 231.595 80.2588 230.928C79.6859 231.678 78.863 232.329 77.79 232.881C76.7171 233.433 75.5348 233.709 74.2432 233.709C72.6911 233.709 71.4202 233.24 70.4307 232.303C69.4515 231.355 68.9619 230.173 68.9619 228.756C68.9619 227.204 69.4463 226.001 70.415 225.147C71.3838 224.292 72.6546 223.766 74.2275 223.568L78.7119 223.006ZM98.0088 216.412H101.118C100.722 217.485 99.8421 219.933 98.4775 223.756C97.4567 226.631 96.6025 228.975 95.915 230.787C94.29 235.058 93.1442 237.662 92.4775 238.6C91.8109 239.537 90.665 240.006 89.04 240.006C88.6442 240.006 88.3369 239.99 88.1182 239.959C87.9098 239.928 87.6494 239.871 87.3369 239.787V237.225C87.8265 237.36 88.1807 237.443 88.3994 237.475C88.6182 237.506 88.8109 237.522 88.9775 237.522C89.4984 237.522 89.8786 237.433 90.1182 237.256C90.3682 237.089 90.5765 236.881 90.7432 236.631C90.7952 236.548 90.9827 236.121 91.3057 235.35C91.6286 234.579 91.863 234.006 92.0088 233.631L85.8213 216.412H89.0088L93.4932 230.037L98.0088 216.412ZM110.524 216.037C111.712 216.037 112.863 216.318 113.978 216.881C115.092 217.433 115.941 218.152 116.524 219.037C117.087 219.881 117.462 220.865 117.649 221.99C117.816 222.761 117.899 223.99 117.899 225.678H105.634C105.686 227.376 106.087 228.74 106.837 229.772C107.587 230.792 108.748 231.303 110.321 231.303C111.79 231.303 112.962 230.818 113.837 229.85C114.337 229.287 114.691 228.636 114.899 227.897H117.665C117.592 228.511 117.347 229.199 116.931 229.959C116.524 230.709 116.066 231.324 115.556 231.803C114.701 232.636 113.644 233.199 112.384 233.49C111.707 233.657 110.941 233.74 110.087 233.74C108.004 233.74 106.238 232.985 104.79 231.475C103.342 229.954 102.618 227.829 102.618 225.1C102.618 222.412 103.347 220.23 104.806 218.553C106.264 216.876 108.17 216.037 110.524 216.037ZM115.009 223.443C114.894 222.225 114.629 221.251 114.212 220.522C113.441 219.167 112.155 218.49 110.353 218.49C109.061 218.49 107.978 218.959 107.103 219.897C106.228 220.824 105.764 222.006 105.712 223.443H115.009ZM123.149 224.975C123.149 226.766 123.53 228.266 124.29 229.475C125.05 230.683 126.269 231.287 127.946 231.287C129.248 231.287 130.316 230.73 131.149 229.615C131.993 228.49 132.415 226.881 132.415 224.787C132.415 222.673 131.983 221.11 131.118 220.1C130.254 219.079 129.186 218.568 127.915 218.568C126.498 218.568 125.347 219.11 124.462 220.193C123.587 221.277 123.149 222.871 123.149 224.975ZM127.384 216.115C128.665 216.115 129.738 216.386 130.603 216.928C131.103 217.24 131.67 217.787 132.306 218.568V210.115H135.009V233.147H132.478V230.818C131.821 231.85 131.045 232.595 130.149 233.053C129.254 233.511 128.228 233.74 127.071 233.74C125.207 233.74 123.592 232.959 122.228 231.397C120.863 229.824 120.181 227.735 120.181 225.131C120.181 222.693 120.8 220.584 122.04 218.803C123.29 217.011 125.071 216.115 127.384 216.115ZM150.243 228.693C150.243 229.506 150.54 230.147 151.134 230.615C151.728 231.084 152.431 231.318 153.243 231.318C154.233 231.318 155.191 231.089 156.118 230.631C157.681 229.871 158.462 228.626 158.462 226.897V224.631C158.118 224.85 157.675 225.032 157.134 225.178C156.592 225.324 156.061 225.428 155.54 225.49L153.837 225.709C152.816 225.845 152.05 226.058 151.54 226.35C150.675 226.839 150.243 227.621 150.243 228.693ZM157.056 223.006C157.701 222.923 158.134 222.652 158.353 222.193C158.478 221.943 158.54 221.584 158.54 221.115C158.54 220.157 158.196 219.464 157.509 219.037C156.832 218.6 155.858 218.381 154.587 218.381C153.118 218.381 152.076 218.777 151.462 219.568C151.118 220.006 150.894 220.657 150.79 221.522H148.165C148.217 219.459 148.884 218.027 150.165 217.225C151.457 216.412 152.951 216.006 154.649 216.006C156.618 216.006 158.217 216.381 159.446 217.131C160.665 217.881 161.274 219.048 161.274 220.631V230.272C161.274 230.563 161.332 230.798 161.446 230.975C161.571 231.152 161.826 231.24 162.212 231.24C162.337 231.24 162.478 231.235 162.634 231.225C162.79 231.204 162.957 231.178 163.134 231.147V233.225C162.696 233.35 162.363 233.428 162.134 233.459C161.905 233.49 161.592 233.506 161.196 233.506C160.228 233.506 159.524 233.162 159.087 232.475C158.858 232.11 158.696 231.595 158.603 230.928C158.03 231.678 157.207 232.329 156.134 232.881C155.061 233.433 153.879 233.709 152.587 233.709C151.035 233.709 149.764 233.24 148.774 232.303C147.795 231.355 147.306 230.173 147.306 228.756C147.306 227.204 147.79 226.001 148.759 225.147C149.728 224.292 150.998 223.766 152.571 223.568L157.056 223.006ZM172.353 215.928C174.238 215.928 175.769 216.386 176.946 217.303C178.134 218.22 178.847 219.798 179.087 222.037H176.353C176.186 221.006 175.806 220.152 175.212 219.475C174.618 218.787 173.665 218.443 172.353 218.443C170.561 218.443 169.28 219.318 168.509 221.068C168.009 222.204 167.759 223.605 167.759 225.272C167.759 226.949 168.113 228.36 168.821 229.506C169.53 230.652 170.644 231.225 172.165 231.225C173.332 231.225 174.254 230.871 174.931 230.162C175.618 229.443 176.092 228.464 176.353 227.225H179.087C178.774 229.443 177.993 231.068 176.743 232.1C175.493 233.121 173.894 233.631 171.946 233.631C169.759 233.631 168.014 232.834 166.712 231.24C165.41 229.636 164.759 227.636 164.759 225.24C164.759 222.303 165.472 220.016 166.899 218.381C168.326 216.746 170.144 215.928 172.353 215.928ZM188.353 215.928C190.238 215.928 191.769 216.386 192.946 217.303C194.134 218.22 194.847 219.798 195.087 222.037H192.353C192.186 221.006 191.806 220.152 191.212 219.475C190.618 218.787 189.665 218.443 188.353 218.443C186.561 218.443 185.28 219.318 184.509 221.068C184.009 222.204 183.759 223.605 183.759 225.272C183.759 226.949 184.113 228.36 184.821 229.506C185.53 230.652 186.644 231.225 188.165 231.225C189.332 231.225 190.254 230.871 190.931 230.162C191.618 229.443 192.092 228.464 192.353 227.225H195.087C194.774 229.443 193.993 231.068 192.743 232.1C191.493 233.121 189.894 233.631 187.946 233.631C185.759 233.631 184.014 232.834 182.712 231.24C181.41 229.636 180.759 227.636 180.759 225.24C180.759 222.303 181.472 220.016 182.899 218.381C184.326 216.746 186.144 215.928 188.353 215.928ZM204.54 231.334C206.405 231.334 207.681 230.631 208.368 229.225C209.066 227.808 209.415 226.235 209.415 224.506C209.415 222.943 209.165 221.673 208.665 220.693C207.873 219.152 206.509 218.381 204.571 218.381C202.853 218.381 201.603 219.037 200.821 220.35C200.04 221.662 199.649 223.246 199.649 225.1C199.649 226.881 200.04 228.365 200.821 229.553C201.603 230.74 202.842 231.334 204.54 231.334ZM204.649 215.928C206.806 215.928 208.629 216.647 210.118 218.084C211.608 219.522 212.353 221.636 212.353 224.428C212.353 227.126 211.696 229.355 210.384 231.115C209.071 232.876 207.035 233.756 204.274 233.756C201.972 233.756 200.144 232.98 198.79 231.428C197.436 229.865 196.759 227.772 196.759 225.147C196.759 222.334 197.472 220.095 198.899 218.428C200.326 216.761 202.243 215.928 204.649 215.928ZM215.79 216.412H218.462V219.303C218.681 218.74 219.217 218.058 220.071 217.256C220.925 216.443 221.91 216.037 223.024 216.037C223.076 216.037 223.165 216.042 223.29 216.053C223.415 216.063 223.629 216.084 223.931 216.115V219.084C223.764 219.053 223.608 219.032 223.462 219.022C223.326 219.011 223.175 219.006 223.009 219.006C221.592 219.006 220.504 219.464 219.743 220.381C218.983 221.287 218.603 222.334 218.603 223.522V233.147H215.79V216.412ZM228.149 224.975C228.149 226.766 228.53 228.266 229.29 229.475C230.05 230.683 231.269 231.287 232.946 231.287C234.248 231.287 235.316 230.73 236.149 229.615C236.993 228.49 237.415 226.881 237.415 224.787C237.415 222.673 236.983 221.11 236.118 220.1C235.254 219.079 234.186 218.568 232.915 218.568C231.498 218.568 230.347 219.11 229.462 220.193C228.587 221.277 228.149 222.871 228.149 224.975ZM232.384 216.115C233.665 216.115 234.738 216.386 235.603 216.928C236.103 217.24 236.67 217.787 237.306 218.568V210.115H240.009V233.147H237.478V230.818C236.821 231.85 236.045 232.595 235.149 233.053C234.254 233.511 233.228 233.74 232.071 233.74C230.207 233.74 228.592 232.959 227.228 231.397C225.863 229.824 225.181 227.735 225.181 225.131C225.181 222.693 225.8 220.584 227.04 218.803C228.29 217.011 230.071 216.115 232.384 216.115ZM244.181 216.49H247.04V233.147H244.181V216.49ZM244.181 210.193H247.04V213.381H244.181V210.193ZM251.306 216.412H253.978V218.787C254.769 217.808 255.608 217.105 256.493 216.678C257.379 216.251 258.363 216.037 259.446 216.037C261.821 216.037 263.425 216.865 264.259 218.522C264.717 219.428 264.946 220.725 264.946 222.412V233.147H262.087V222.6C262.087 221.579 261.936 220.756 261.634 220.131C261.134 219.089 260.228 218.568 258.915 218.568C258.248 218.568 257.701 218.636 257.274 218.772C256.504 219.001 255.826 219.459 255.243 220.147C254.774 220.699 254.467 221.272 254.321 221.865C254.186 222.449 254.118 223.287 254.118 224.381V233.147H251.306V216.412ZM275.024 216.115C276.337 216.115 277.483 216.438 278.462 217.084C278.993 217.449 279.535 217.98 280.087 218.678V216.568H282.681V231.787C282.681 233.912 282.368 235.589 281.743 236.818C280.576 239.089 278.373 240.225 275.134 240.225C273.332 240.225 271.816 239.818 270.587 239.006C269.358 238.204 268.67 236.943 268.524 235.225H271.384C271.519 235.975 271.79 236.553 272.196 236.959C272.832 237.584 273.832 237.897 275.196 237.897C277.353 237.897 278.764 237.136 279.431 235.615C279.826 234.72 280.009 233.121 279.978 230.818C279.415 231.673 278.738 232.308 277.946 232.725C277.155 233.141 276.108 233.35 274.806 233.35C272.993 233.35 271.405 232.709 270.04 231.428C268.686 230.136 268.009 228.006 268.009 225.037C268.009 222.235 268.691 220.048 270.056 218.475C271.431 216.902 273.087 216.115 275.024 216.115ZM280.087 224.709C280.087 222.636 279.66 221.1 278.806 220.1C277.951 219.1 276.863 218.6 275.54 218.6C273.561 218.6 272.207 219.527 271.478 221.381C271.092 222.371 270.899 223.667 270.899 225.272C270.899 227.157 271.28 228.595 272.04 229.584C272.811 230.563 273.842 231.053 275.134 231.053C277.155 231.053 278.576 230.141 279.399 228.318C279.858 227.287 280.087 226.084 280.087 224.709ZM296.399 211.74H299.243V216.412H301.915V218.709H299.243V229.631C299.243 230.214 299.441 230.605 299.837 230.803C300.056 230.917 300.42 230.975 300.931 230.975C301.066 230.975 301.212 230.975 301.368 230.975C301.524 230.964 301.707 230.949 301.915 230.928V233.147C301.592 233.24 301.254 233.308 300.899 233.35C300.556 233.391 300.181 233.412 299.774 233.412C298.462 233.412 297.571 233.079 297.103 232.412C296.634 231.735 296.399 230.86 296.399 229.787V218.709H294.134V216.412H296.399V211.74ZM311.384 231.334C313.248 231.334 314.524 230.631 315.212 229.225C315.91 227.808 316.259 226.235 316.259 224.506C316.259 222.943 316.009 221.673 315.509 220.693C314.717 219.152 313.353 218.381 311.415 218.381C309.696 218.381 308.446 219.037 307.665 220.35C306.884 221.662 306.493 223.246 306.493 225.1C306.493 226.881 306.884 228.365 307.665 229.553C308.446 230.74 309.686 231.334 311.384 231.334ZM311.493 215.928C313.649 215.928 315.472 216.647 316.962 218.084C318.451 219.522 319.196 221.636 319.196 224.428C319.196 227.126 318.54 229.355 317.228 231.115C315.915 232.876 313.879 233.756 311.118 233.756C308.816 233.756 306.988 232.98 305.634 231.428C304.28 229.865 303.603 227.772 303.603 225.147C303.603 222.334 304.316 220.095 305.743 218.428C307.17 216.761 309.087 215.928 311.493 215.928ZM331.54 216.412H334.212V219.303C334.431 218.74 334.967 218.058 335.821 217.256C336.675 216.443 337.66 216.037 338.774 216.037C338.826 216.037 338.915 216.042 339.04 216.053C339.165 216.063 339.379 216.084 339.681 216.115V219.084C339.514 219.053 339.358 219.032 339.212 219.022C339.076 219.011 338.925 219.006 338.759 219.006C337.342 219.006 336.254 219.464 335.493 220.381C334.733 221.287 334.353 222.334 334.353 223.522V233.147H331.54V216.412ZM344.931 216.412V227.522C344.931 228.376 345.066 229.074 345.337 229.615C345.837 230.615 346.769 231.115 348.134 231.115C350.092 231.115 351.425 230.24 352.134 228.49C352.519 227.553 352.712 226.266 352.712 224.631V216.412H355.524V233.147H352.868L352.899 230.678C352.535 231.313 352.082 231.85 351.54 232.287C350.467 233.162 349.165 233.6 347.634 233.6C345.248 233.6 343.623 232.803 342.759 231.209C342.29 230.355 342.056 229.214 342.056 227.787V216.412H344.931ZM360.009 210.193H362.821V233.147H360.009V210.193ZM374.024 216.037C375.212 216.037 376.363 216.318 377.478 216.881C378.592 217.433 379.441 218.152 380.024 219.037C380.587 219.881 380.962 220.865 381.149 221.99C381.316 222.761 381.399 223.99 381.399 225.678H369.134C369.186 227.376 369.587 228.74 370.337 229.772C371.087 230.792 372.248 231.303 373.821 231.303C375.29 231.303 376.462 230.818 377.337 229.85C377.837 229.287 378.191 228.636 378.399 227.897H381.165C381.092 228.511 380.847 229.199 380.431 229.959C380.024 230.709 379.566 231.324 379.056 231.803C378.201 232.636 377.144 233.199 375.884 233.49C375.207 233.657 374.441 233.74 373.587 233.74C371.504 233.74 369.738 232.985 368.29 231.475C366.842 229.954 366.118 227.829 366.118 225.1C366.118 222.412 366.847 220.23 368.306 218.553C369.764 216.876 371.67 216.037 374.024 216.037ZM378.509 223.443C378.394 222.225 378.129 221.251 377.712 220.522C376.941 219.167 375.655 218.49 373.853 218.49C372.561 218.49 371.478 218.959 370.603 219.897C369.728 220.824 369.264 222.006 369.212 223.443H378.509ZM386.54 227.897C386.623 228.834 386.858 229.553 387.243 230.053C387.951 230.959 389.181 231.412 390.931 231.412C391.972 231.412 392.889 231.188 393.681 230.74C394.472 230.282 394.868 229.579 394.868 228.631C394.868 227.912 394.55 227.365 393.915 226.99C393.509 226.761 392.707 226.496 391.509 226.193L389.274 225.631C387.847 225.277 386.795 224.881 386.118 224.443C384.91 223.683 384.306 222.631 384.306 221.287C384.306 219.704 384.873 218.423 386.009 217.443C387.155 216.464 388.691 215.975 390.618 215.975C393.139 215.975 394.957 216.714 396.071 218.193C396.769 219.131 397.108 220.141 397.087 221.225H394.431C394.379 220.589 394.155 220.011 393.759 219.49C393.113 218.751 391.993 218.381 390.399 218.381C389.337 218.381 388.53 218.584 387.978 218.99C387.436 219.397 387.165 219.933 387.165 220.6C387.165 221.329 387.524 221.912 388.243 222.35C388.66 222.61 389.274 222.839 390.087 223.037L391.946 223.49C393.967 223.98 395.321 224.454 396.009 224.912C397.103 225.631 397.649 226.761 397.649 228.303C397.649 229.792 397.082 231.079 395.946 232.162C394.821 233.246 393.103 233.787 390.79 233.787C388.3 233.787 386.535 233.225 385.493 232.1C384.462 230.964 383.91 229.563 383.837 227.897H386.54ZM411.931 228.693C411.931 229.506 412.228 230.147 412.821 230.615C413.415 231.084 414.118 231.318 414.931 231.318C415.92 231.318 416.879 231.089 417.806 230.631C419.368 229.871 420.149 228.626 420.149 226.897V224.631C419.806 224.85 419.363 225.032 418.821 225.178C418.28 225.324 417.748 225.428 417.228 225.49L415.524 225.709C414.504 225.845 413.738 226.058 413.228 226.35C412.363 226.839 411.931 227.621 411.931 228.693ZM418.743 223.006C419.389 222.923 419.821 222.652 420.04 222.193C420.165 221.943 420.228 221.584 420.228 221.115C420.228 220.157 419.884 219.464 419.196 219.037C418.519 218.6 417.545 218.381 416.274 218.381C414.806 218.381 413.764 218.777 413.149 219.568C412.806 220.006 412.582 220.657 412.478 221.522H409.853C409.905 219.459 410.571 218.027 411.853 217.225C413.144 216.412 414.639 216.006 416.337 216.006C418.306 216.006 419.905 216.381 421.134 217.131C422.353 217.881 422.962 219.048 422.962 220.631V230.272C422.962 230.563 423.019 230.798 423.134 230.975C423.259 231.152 423.514 231.24 423.899 231.24C424.024 231.24 424.165 231.235 424.321 231.225C424.478 231.204 424.644 231.178 424.821 231.147V233.225C424.384 233.35 424.05 233.428 423.821 233.459C423.592 233.49 423.28 233.506 422.884 233.506C421.915 233.506 421.212 233.162 420.774 232.475C420.545 232.11 420.384 231.595 420.29 230.928C419.717 231.678 418.894 232.329 417.821 232.881C416.748 233.433 415.566 233.709 414.274 233.709C412.722 233.709 411.451 233.24 410.462 232.303C409.483 231.355 408.993 230.173 408.993 228.756C408.993 227.204 409.478 226.001 410.446 225.147C411.415 224.292 412.686 223.766 414.259 223.568L418.743 223.006ZM427.587 216.412H430.259V218.787C431.05 217.808 431.889 217.105 432.774 216.678C433.66 216.251 434.644 216.037 435.728 216.037C438.103 216.037 439.707 216.865 440.54 218.522C440.998 219.428 441.228 220.725 441.228 222.412V233.147H438.368V222.6C438.368 221.579 438.217 220.756 437.915 220.131C437.415 219.089 436.509 218.568 435.196 218.568C434.53 218.568 433.983 218.636 433.556 218.772C432.785 219.001 432.108 219.459 431.524 220.147C431.056 220.699 430.748 221.272 430.603 221.865C430.467 222.449 430.399 223.287 430.399 224.381V233.147H427.587V216.412ZM447.181 224.975C447.181 226.766 447.561 228.266 448.321 229.475C449.082 230.683 450.3 231.287 451.978 231.287C453.28 231.287 454.347 230.73 455.181 229.615C456.024 228.49 456.446 226.881 456.446 224.787C456.446 222.673 456.014 221.11 455.149 220.1C454.285 219.079 453.217 218.568 451.946 218.568C450.53 218.568 449.379 219.11 448.493 220.193C447.618 221.277 447.181 222.871 447.181 224.975ZM451.415 216.115C452.696 216.115 453.769 216.386 454.634 216.928C455.134 217.24 455.701 217.787 456.337 218.568V210.115H459.04V233.147H456.509V230.818C455.853 231.85 455.076 232.595 454.181 233.053C453.285 233.511 452.259 233.74 451.103 233.74C449.238 233.74 447.623 232.959 446.259 231.397C444.894 229.824 444.212 227.735 444.212 225.131C444.212 222.693 444.832 220.584 446.071 218.803C447.321 217.011 449.103 216.115 451.415 216.115ZM473.899 224.975C473.899 226.766 474.28 228.266 475.04 229.475C475.8 230.683 477.019 231.287 478.696 231.287C479.998 231.287 481.066 230.73 481.899 229.615C482.743 228.49 483.165 226.881 483.165 224.787C483.165 222.673 482.733 221.11 481.868 220.1C481.004 219.079 479.936 218.568 478.665 218.568C477.248 218.568 476.097 219.11 475.212 220.193C474.337 221.277 473.899 222.871 473.899 224.975ZM478.134 216.115C479.415 216.115 480.488 216.386 481.353 216.928C481.853 217.24 482.42 217.787 483.056 218.568V210.115H485.759V233.147H483.228V230.818C482.571 231.85 481.795 232.595 480.899 233.053C480.004 233.511 478.978 233.74 477.821 233.74C475.957 233.74 474.342 232.959 472.978 231.397C471.613 229.824 470.931 227.735 470.931 225.131C470.931 222.693 471.55 220.584 472.79 218.803C474.04 217.011 475.821 216.115 478.134 216.115ZM496.899 216.037C498.087 216.037 499.238 216.318 500.353 216.881C501.467 217.433 502.316 218.152 502.899 219.037C503.462 219.881 503.837 220.865 504.024 221.99C504.191 222.761 504.274 223.99 504.274 225.678H492.009C492.061 227.376 492.462 228.74 493.212 229.772C493.962 230.792 495.123 231.303 496.696 231.303C498.165 231.303 499.337 230.818 500.212 229.85C500.712 229.287 501.066 228.636 501.274 227.897H504.04C503.967 228.511 503.722 229.199 503.306 229.959C502.899 230.709 502.441 231.324 501.931 231.803C501.076 232.636 500.019 233.199 498.759 233.49C498.082 233.657 497.316 233.74 496.462 233.74C494.379 233.74 492.613 232.985 491.165 231.475C489.717 229.954 488.993 227.829 488.993 225.1C488.993 222.412 489.722 220.23 491.181 218.553C492.639 216.876 494.545 216.037 496.899 216.037ZM501.384 223.443C501.269 222.225 501.004 221.251 500.587 220.522C499.816 219.167 498.53 218.49 496.728 218.49C495.436 218.49 494.353 218.959 493.478 219.897C492.603 220.824 492.139 222.006 492.087 223.443H501.384ZM514.196 215.928C516.082 215.928 517.613 216.386 518.79 217.303C519.978 218.22 520.691 219.798 520.931 222.037H518.196C518.03 221.006 517.649 220.152 517.056 219.475C516.462 218.787 515.509 218.443 514.196 218.443C512.405 218.443 511.123 219.318 510.353 221.068C509.853 222.204 509.603 223.605 509.603 225.272C509.603 226.949 509.957 228.36 510.665 229.506C511.373 230.652 512.488 231.225 514.009 231.225C515.175 231.225 516.097 230.871 516.774 230.162C517.462 229.443 517.936 228.464 518.196 227.225H520.931C520.618 229.443 519.837 231.068 518.587 232.1C517.337 233.121 515.738 233.631 513.79 233.631C511.603 233.631 509.858 232.834 508.556 231.24C507.254 229.636 506.603 227.636 506.603 225.24C506.603 222.303 507.316 220.016 508.743 218.381C510.17 216.746 511.988 215.928 514.196 215.928ZM523.743 216.49H526.603V233.147H523.743V216.49ZM523.743 210.193H526.603V213.381H523.743V210.193ZM532.649 224.975C532.649 226.766 533.03 228.266 533.79 229.475C534.55 230.683 535.769 231.287 537.446 231.287C538.748 231.287 539.816 230.73 540.649 229.615C541.493 228.49 541.915 226.881 541.915 224.787C541.915 222.673 541.483 221.11 540.618 220.1C539.754 219.079 538.686 218.568 537.415 218.568C535.998 218.568 534.847 219.11 533.962 220.193C533.087 221.277 532.649 222.871 532.649 224.975ZM536.884 216.115C538.165 216.115 539.238 216.386 540.103 216.928C540.603 217.24 541.17 217.787 541.806 218.568V210.115H544.509V233.147H541.978V230.818C541.321 231.85 540.545 232.595 539.649 233.053C538.754 233.511 537.728 233.74 536.571 233.74C534.707 233.74 533.092 232.959 531.728 231.397C530.363 229.824 529.681 227.735 529.681 225.131C529.681 222.693 530.3 220.584 531.54 218.803C532.79 217.011 534.571 216.115 536.884 216.115ZM555.649 216.037C556.837 216.037 557.988 216.318 559.103 216.881C560.217 217.433 561.066 218.152 561.649 219.037C562.212 219.881 562.587 220.865 562.774 221.99C562.941 222.761 563.024 223.99 563.024 225.678H550.759C550.811 227.376 551.212 228.74 551.962 229.772C552.712 230.792 553.873 231.303 555.446 231.303C556.915 231.303 558.087 230.818 558.962 229.85C559.462 229.287 559.816 228.636 560.024 227.897H562.79C562.717 228.511 562.472 229.199 562.056 229.959C561.649 230.709 561.191 231.324 560.681 231.803C559.826 232.636 558.769 233.199 557.509 233.49C556.832 233.657 556.066 233.74 555.212 233.74C553.129 233.74 551.363 232.985 549.915 231.475C548.467 229.954 547.743 227.829 547.743 225.1C547.743 222.412 548.472 220.23 549.931 218.553C551.389 216.876 553.295 216.037 555.649 216.037ZM560.134 223.443C560.019 222.225 559.754 221.251 559.337 220.522C558.566 219.167 557.28 218.49 555.478 218.49C554.186 218.49 553.103 218.959 552.228 219.897C551.353 220.824 550.889 222.006 550.837 223.443H560.134ZM568.274 224.975C568.274 226.766 568.655 228.266 569.415 229.475C570.175 230.683 571.394 231.287 573.071 231.287C574.373 231.287 575.441 230.73 576.274 229.615C577.118 228.49 577.54 226.881 577.54 224.787C577.54 222.673 577.108 221.11 576.243 220.1C575.379 219.079 574.311 218.568 573.04 218.568C571.623 218.568 570.472 219.11 569.587 220.193C568.712 221.277 568.274 222.871 568.274 224.975ZM572.509 216.115C573.79 216.115 574.863 216.386 575.728 216.928C576.228 217.24 576.795 217.787 577.431 218.568V210.115H580.134V233.147H577.603V230.818C576.946 231.85 576.17 232.595 575.274 233.053C574.379 233.511 573.353 233.74 572.196 233.74C570.332 233.74 568.717 232.959 567.353 231.397C565.988 229.824 565.306 227.735 565.306 225.131C565.306 222.693 565.925 220.584 567.165 218.803C568.415 217.011 570.196 216.115 572.509 216.115ZM592.993 210.115H595.728V218.443C596.342 217.641 597.076 217.032 597.931 216.615C598.785 216.188 599.712 215.975 600.712 215.975C602.795 215.975 604.483 216.693 605.774 218.131C607.076 219.558 607.728 221.667 607.728 224.459C607.728 227.105 607.087 229.303 605.806 231.053C604.524 232.803 602.748 233.678 600.478 233.678C599.207 233.678 598.134 233.371 597.259 232.756C596.738 232.391 596.181 231.808 595.587 231.006V233.147H592.993V210.115ZM600.306 231.193C601.826 231.193 602.962 230.589 603.712 229.381C604.472 228.173 604.853 226.579 604.853 224.6C604.853 222.839 604.472 221.381 603.712 220.225C602.962 219.068 601.853 218.49 600.384 218.49C599.103 218.49 597.978 218.964 597.009 219.912C596.05 220.86 595.571 222.423 595.571 224.6C595.571 226.173 595.769 227.449 596.165 228.428C596.905 230.272 598.285 231.193 600.306 231.193ZM621.478 216.412H624.587C624.191 217.485 623.311 219.933 621.946 223.756C620.925 226.631 620.071 228.975 619.384 230.787C617.759 235.058 616.613 237.662 615.946 238.6C615.28 239.537 614.134 240.006 612.509 240.006C612.113 240.006 611.806 239.99 611.587 239.959C611.379 239.928 611.118 239.871 610.806 239.787V237.225C611.295 237.36 611.649 237.443 611.868 237.475C612.087 237.506 612.28 237.522 612.446 237.522C612.967 237.522 613.347 237.433 613.587 237.256C613.837 237.089 614.045 236.881 614.212 236.631C614.264 236.548 614.451 236.121 614.774 235.35C615.097 234.579 615.332 234.006 615.478 233.631L609.29 216.412H612.478L616.962 230.037L621.478 216.412ZM637.603 227.897C637.686 228.834 637.92 229.553 638.306 230.053C639.014 230.959 640.243 231.412 641.993 231.412C643.035 231.412 643.951 231.188 644.743 230.74C645.535 230.282 645.931 229.579 645.931 228.631C645.931 227.912 645.613 227.365 644.978 226.99C644.571 226.761 643.769 226.496 642.571 226.193L640.337 225.631C638.91 225.277 637.858 224.881 637.181 224.443C635.972 223.683 635.368 222.631 635.368 221.287C635.368 219.704 635.936 218.423 637.071 217.443C638.217 216.464 639.754 215.975 641.681 215.975C644.201 215.975 646.019 216.714 647.134 218.193C647.832 219.131 648.17 220.141 648.149 221.225H645.493C645.441 220.589 645.217 220.011 644.821 219.49C644.175 218.751 643.056 218.381 641.462 218.381C640.399 218.381 639.592 218.584 639.04 218.99C638.498 219.397 638.228 219.933 638.228 220.6C638.228 221.329 638.587 221.912 639.306 222.35C639.722 222.61 640.337 222.839 641.149 223.037L643.009 223.49C645.03 223.98 646.384 224.454 647.071 224.912C648.165 225.631 648.712 226.761 648.712 228.303C648.712 229.792 648.144 231.079 647.009 232.162C645.884 233.246 644.165 233.787 641.853 233.787C639.363 233.787 637.597 233.225 636.556 232.1C635.524 230.964 634.972 229.563 634.899 227.897H637.603ZM651.868 210.193H654.571V223.522L661.79 216.412H665.384L658.978 222.678L665.743 233.147H662.149L656.931 224.709L654.571 226.865V233.147H651.868V210.193ZM667.931 216.49H670.79V233.147H667.931V216.49ZM667.931 210.193H670.79V213.381H667.931V210.193ZM675.134 210.193H677.946V233.147H675.134V210.193ZM682.259 210.193H685.071V233.147H682.259V210.193ZM689.899 236.412C690.618 236.287 691.123 235.782 691.415 234.897C691.571 234.428 691.649 233.975 691.649 233.537C691.649 233.464 691.644 233.397 691.634 233.334C691.634 233.282 691.623 233.22 691.603 233.147H689.899V229.74H693.243V232.897C693.243 234.136 692.993 235.225 692.493 236.162C691.993 237.1 691.129 237.678 689.899 237.897V236.412ZM46.4775 269.897C46.5609 270.834 46.7952 271.553 47.1807 272.053C47.889 272.959 49.1182 273.412 50.8682 273.412C51.9098 273.412 52.8265 273.188 53.6182 272.74C54.4098 272.282 54.8057 271.579 54.8057 270.631C54.8057 269.912 54.488 269.365 53.8525 268.99C53.4463 268.761 52.6442 268.496 51.4463 268.193L49.2119 267.631C47.7848 267.277 46.7327 266.881 46.0557 266.443C44.8473 265.683 44.2432 264.631 44.2432 263.287C44.2432 261.704 44.8109 260.423 45.9463 259.443C47.0921 258.464 48.6286 257.975 50.5557 257.975C53.0765 257.975 54.8942 258.714 56.0088 260.193C56.7067 261.131 57.0452 262.141 57.0244 263.225H54.3682C54.3161 262.589 54.0921 262.011 53.6963 261.49C53.0505 260.751 51.9307 260.381 50.3369 260.381C49.2744 260.381 48.4671 260.584 47.915 260.99C47.3734 261.397 47.1025 261.933 47.1025 262.6C47.1025 263.329 47.4619 263.912 48.1807 264.35C48.5973 264.61 49.2119 264.839 50.0244 265.037L51.8838 265.49C53.9046 265.98 55.2588 266.454 55.9463 266.912C57.04 267.631 57.5869 268.761 57.5869 270.303C57.5869 271.792 57.0192 273.079 55.8838 274.162C54.7588 275.246 53.04 275.787 50.7275 275.787C48.238 275.787 46.4723 275.225 45.4307 274.1C44.3994 272.964 43.8473 271.563 43.7744 269.897H46.4775ZM61.3682 253.74H64.2119V258.412H66.8838V260.709H64.2119V271.631C64.2119 272.214 64.4098 272.605 64.8057 272.803C65.0244 272.917 65.389 272.975 65.8994 272.975C66.0348 272.975 66.1807 272.975 66.3369 272.975C66.4932 272.964 66.6755 272.949 66.8838 272.928V275.147C66.5609 275.24 66.2223 275.308 65.8682 275.35C65.5244 275.391 65.1494 275.412 64.7432 275.412C63.4307 275.412 62.54 275.079 62.0713 274.412C61.6025 273.735 61.3682 272.86 61.3682 271.787V260.709H59.1025V258.412H61.3682V253.74ZM69.79 258.412H72.4619V261.303C72.6807 260.74 73.2171 260.058 74.0713 259.256C74.9255 258.443 75.9098 258.037 77.0244 258.037C77.0765 258.037 77.165 258.042 77.29 258.053C77.415 258.063 77.6286 258.084 77.9307 258.115V261.084C77.764 261.053 77.6077 261.032 77.4619 261.022C77.3265 261.011 77.1755 261.006 77.0088 261.006C75.5921 261.006 74.5036 261.464 73.7432 262.381C72.9827 263.287 72.6025 264.334 72.6025 265.522V275.147H69.79V258.412ZM87.3369 258.037C88.5244 258.037 89.6755 258.318 90.79 258.881C91.9046 259.433 92.7536 260.152 93.3369 261.037C93.8994 261.881 94.2744 262.865 94.4619 263.99C94.6286 264.761 94.7119 265.99 94.7119 267.678H82.4463C82.4984 269.376 82.8994 270.74 83.6494 271.772C84.3994 272.792 85.5609 273.303 87.1338 273.303C88.6025 273.303 89.7744 272.818 90.6494 271.85C91.1494 271.287 91.5036 270.636 91.7119 269.897H94.4775C94.4046 270.511 94.1598 271.199 93.7432 271.959C93.3369 272.709 92.8786 273.324 92.3682 273.803C91.514 274.636 90.4567 275.199 89.1963 275.49C88.5192 275.657 87.7536 275.74 86.8994 275.74C84.8161 275.74 83.0505 274.985 81.6025 273.475C80.1546 271.954 79.4307 269.829 79.4307 267.1C79.4307 264.412 80.1598 262.23 81.6182 260.553C83.0765 258.876 84.9827 258.037 87.3369 258.037ZM91.8213 265.443C91.7067 264.225 91.4411 263.251 91.0244 262.522C90.2536 261.167 88.9671 260.49 87.165 260.49C85.8734 260.49 84.79 260.959 83.915 261.897C83.04 262.824 82.5765 264.006 82.5244 265.443H91.8213ZM98.1807 258.412H100.853V260.787C101.644 259.808 102.483 259.105 103.368 258.678C104.254 258.251 105.238 258.037 106.321 258.037C108.696 258.037 110.3 258.865 111.134 260.522C111.592 261.428 111.821 262.725 111.821 264.412V275.147H108.962V264.6C108.962 263.579 108.811 262.756 108.509 262.131C108.009 261.089 107.103 260.568 105.79 260.568C105.123 260.568 104.576 260.636 104.149 260.772C103.379 261.001 102.701 261.459 102.118 262.147C101.649 262.699 101.342 263.272 101.196 263.865C101.061 264.449 100.993 265.287 100.993 266.381V275.147H98.1807V258.412ZM121.899 258.115C123.212 258.115 124.358 258.438 125.337 259.084C125.868 259.449 126.41 259.98 126.962 260.678V258.568H129.556V273.787C129.556 275.912 129.243 277.589 128.618 278.818C127.451 281.089 125.248 282.225 122.009 282.225C120.207 282.225 118.691 281.818 117.462 281.006C116.233 280.204 115.545 278.943 115.399 277.225H118.259C118.394 277.975 118.665 278.553 119.071 278.959C119.707 279.584 120.707 279.897 122.071 279.897C124.228 279.897 125.639 279.136 126.306 277.615C126.701 276.72 126.884 275.121 126.853 272.818C126.29 273.673 125.613 274.308 124.821 274.725C124.03 275.141 122.983 275.35 121.681 275.35C119.868 275.35 118.28 274.709 116.915 273.428C115.561 272.136 114.884 270.006 114.884 267.037C114.884 264.235 115.566 262.048 116.931 260.475C118.306 258.902 119.962 258.115 121.899 258.115ZM126.962 266.709C126.962 264.636 126.535 263.1 125.681 262.1C124.826 261.1 123.738 260.6 122.415 260.6C120.436 260.6 119.082 261.527 118.353 263.381C117.967 264.371 117.774 265.667 117.774 267.272C117.774 269.157 118.155 270.595 118.915 271.584C119.686 272.563 120.717 273.053 122.009 273.053C124.03 273.053 125.451 272.141 126.274 270.318C126.733 269.287 126.962 268.084 126.962 266.709ZM134.368 253.74H137.212V258.412H139.884V260.709H137.212V271.631C137.212 272.214 137.41 272.605 137.806 272.803C138.024 272.917 138.389 272.975 138.899 272.975C139.035 272.975 139.181 272.975 139.337 272.975C139.493 272.964 139.675 272.949 139.884 272.928V275.147C139.561 275.24 139.222 275.308 138.868 275.35C138.524 275.391 138.149 275.412 137.743 275.412C136.431 275.412 135.54 275.079 135.071 274.412C134.603 273.735 134.368 272.86 134.368 271.787V260.709H132.103V258.412H134.368V253.74ZM142.712 252.115H145.524V260.678C146.191 259.834 146.79 259.24 147.321 258.897C148.228 258.303 149.358 258.006 150.712 258.006C153.139 258.006 154.785 258.855 155.649 260.553C156.118 261.48 156.353 262.766 156.353 264.412V275.147H153.462V264.6C153.462 263.371 153.306 262.47 152.993 261.897C152.483 260.98 151.524 260.522 150.118 260.522C148.951 260.522 147.894 260.923 146.946 261.725C145.998 262.527 145.524 264.042 145.524 266.272V275.147H142.712V252.115ZM161.118 278.412C161.837 278.287 162.342 277.782 162.634 276.897C162.79 276.428 162.868 275.975 162.868 275.537C162.868 275.464 162.863 275.397 162.853 275.334C162.853 275.282 162.842 275.22 162.821 275.147H161.118V271.74H164.462V274.897C164.462 276.136 164.212 277.225 163.712 278.162C163.212 279.1 162.347 279.678 161.118 279.897V278.412ZM184.978 273.334C186.842 273.334 188.118 272.631 188.806 271.225C189.504 269.808 189.853 268.235 189.853 266.506C189.853 264.943 189.603 263.673 189.103 262.693C188.311 261.152 186.946 260.381 185.009 260.381C183.29 260.381 182.04 261.037 181.259 262.35C180.478 263.662 180.087 265.246 180.087 267.1C180.087 268.881 180.478 270.365 181.259 271.553C182.04 272.74 183.28 273.334 184.978 273.334ZM185.087 257.928C187.243 257.928 189.066 258.647 190.556 260.084C192.045 261.522 192.79 263.636 192.79 266.428C192.79 269.126 192.134 271.355 190.821 273.115C189.509 274.876 187.472 275.756 184.712 275.756C182.41 275.756 180.582 274.98 179.228 273.428C177.873 271.865 177.196 269.772 177.196 267.147C177.196 264.334 177.91 262.095 179.337 260.428C180.764 258.761 182.681 257.928 185.087 257.928ZM196.228 258.412H198.899V261.303C199.118 260.74 199.655 260.058 200.509 259.256C201.363 258.443 202.347 258.037 203.462 258.037C203.514 258.037 203.603 258.042 203.728 258.053C203.853 258.063 204.066 258.084 204.368 258.115V261.084C204.201 261.053 204.045 261.032 203.899 261.022C203.764 261.011 203.613 261.006 203.446 261.006C202.03 261.006 200.941 261.464 200.181 262.381C199.42 263.287 199.04 264.334 199.04 265.522V275.147H196.228V258.412ZM215.79 252.193H218.603V275.147H215.79V252.193ZM225.649 258.412V269.522C225.649 270.376 225.785 271.074 226.056 271.615C226.556 272.615 227.488 273.115 228.853 273.115C230.811 273.115 232.144 272.24 232.853 270.49C233.238 269.553 233.431 268.266 233.431 266.631V258.412H236.243V275.147H233.587L233.618 272.678C233.254 273.313 232.8 273.85 232.259 274.287C231.186 275.162 229.884 275.6 228.353 275.6C225.967 275.6 224.342 274.803 223.478 273.209C223.009 272.355 222.774 271.214 222.774 269.787V258.412H225.649ZM247.103 257.928C248.988 257.928 250.519 258.386 251.696 259.303C252.884 260.22 253.597 261.798 253.837 264.037H251.103C250.936 263.006 250.556 262.152 249.962 261.475C249.368 260.787 248.415 260.443 247.103 260.443C245.311 260.443 244.03 261.318 243.259 263.068C242.759 264.204 242.509 265.605 242.509 267.272C242.509 268.949 242.863 270.36 243.571 271.506C244.28 272.652 245.394 273.225 246.915 273.225C248.082 273.225 249.004 272.871 249.681 272.162C250.368 271.443 250.842 270.464 251.103 269.225H253.837C253.524 271.443 252.743 273.068 251.493 274.1C250.243 275.121 248.644 275.631 246.696 275.631C244.509 275.631 242.764 274.834 241.462 273.24C240.16 271.636 239.509 269.636 239.509 267.24C239.509 264.303 240.222 262.016 241.649 260.381C243.076 258.746 244.894 257.928 247.103 257.928ZM256.587 252.193H259.29V265.522L266.509 258.412H270.103L263.696 264.678L270.462 275.147H266.868L261.649 266.709L259.29 268.865V275.147H256.587V252.193ZM273.321 271.74H276.587V275.147H273.321V271.74Z" fill="black"/>
<path d="M54.1333 42.1964C55.979 42.1964 57.5903 42.6505 58.9673 43.5587C59.7144 44.0714 60.4761 44.8185 61.2524 45.7999V42.8336H64.8999V64.235C64.8999 67.2233 64.4604 69.5817 63.5815 71.3102C61.9409 74.5035 58.8428 76.1002 54.2871 76.1002C51.7529 76.1002 49.6216 75.5289 47.8931 74.3864C46.1646 73.2584 45.1978 71.486 44.9927 69.069H49.0137C49.2041 70.1237 49.585 70.9366 50.1562 71.5079C51.0498 72.3868 52.4561 72.8263 54.375 72.8263C57.4072 72.8263 59.3921 71.757 60.3296 69.6183C60.8862 68.3585 61.1426 66.11 61.0986 62.8727C60.3076 64.0739 59.3555 64.9674 58.2422 65.5533C57.1289 66.1393 55.6567 66.4323 53.8257 66.4323C51.2769 66.4323 49.043 65.5314 47.124 63.7296C45.2197 61.9132 44.2676 58.9176 44.2676 54.7428C44.2676 50.8024 45.2271 47.7262 47.146 45.5143C49.0796 43.3024 51.4087 42.1964 54.1333 42.1964ZM61.2524 54.2814C61.2524 51.3663 60.6519 49.2057 59.4507 47.7994C58.2495 46.3932 56.7188 45.6901 54.8584 45.6901C52.0752 45.6901 50.1709 46.9938 49.1455 49.6012C48.6035 50.9928 48.3325 52.8165 48.3325 55.0724C48.3325 57.7238 48.8672 59.7452 49.9365 61.1368C51.0205 62.5138 52.4707 63.2023 54.2871 63.2023C57.1289 63.2023 59.1284 61.9205 60.2856 59.3571C60.9302 57.9069 61.2524 56.215 61.2524 54.2814ZM73.9087 59.8844C73.9087 61.027 74.3262 61.9279 75.1611 62.587C75.9961 63.2462 76.9849 63.5758 78.1274 63.5758C79.519 63.5758 80.8667 63.2535 82.1704 62.609C84.3677 61.5397 85.4663 59.7892 85.4663 57.3575V54.1715C84.9829 54.4791 84.3604 54.7355 83.5986 54.9406C82.8369 55.1456 82.0898 55.2921 81.3574 55.38L78.9624 55.6876C77.5269 55.8781 76.4502 56.1783 75.7324 56.5885C74.5166 57.277 73.9087 58.3756 73.9087 59.8844ZM83.4888 51.8864C84.397 51.7692 85.0049 51.3883 85.3125 50.7438C85.4883 50.3922 85.5762 49.8868 85.5762 49.2277C85.5762 47.88 85.0928 46.9059 84.126 46.3053C83.1738 45.6901 81.8042 45.3824 80.0171 45.3824C77.9517 45.3824 76.4868 45.9391 75.6226 47.0524C75.1392 47.6676 74.8242 48.5831 74.6777 49.799H70.9863C71.0596 46.8986 71.9971 44.8844 73.7988 43.7565C75.6152 42.6139 77.7173 42.0426 80.105 42.0426C82.8735 42.0426 85.1221 42.5699 86.8506 43.6246C88.5645 44.6793 89.4214 46.3199 89.4214 48.5465V62.1036C89.4214 62.5138 89.502 62.8434 89.6631 63.0924C89.8389 63.3414 90.1978 63.4659 90.7397 63.4659C90.9155 63.4659 91.1133 63.4586 91.333 63.444C91.5527 63.4147 91.7871 63.3781 92.0361 63.3341V66.2565C91.4209 66.4323 90.9521 66.5421 90.6299 66.5861C90.3076 66.63 89.8682 66.652 89.3115 66.652C87.9492 66.652 86.9604 66.1686 86.3452 65.2018C86.0229 64.6891 85.7959 63.964 85.6641 63.0265C84.8584 64.0812 83.7012 64.9967 82.1924 65.7731C80.6836 66.5494 79.021 66.9376 77.2046 66.9376C75.022 66.9376 73.2349 66.2784 71.8433 64.9601C70.4663 63.6271 69.7778 61.9645 69.7778 59.9723C69.7778 57.7897 70.459 56.0978 71.8213 54.8966C73.1836 53.6954 74.9707 52.9557 77.1826 52.6774L83.4888 51.8864ZM95.9253 42.6139H99.8364V45.9537C100.774 44.7965 101.624 43.9542 102.385 43.4269C103.689 42.5333 105.168 42.0865 106.824 42.0865C108.699 42.0865 110.208 42.548 111.35 43.4708C111.995 43.9982 112.581 44.7745 113.108 45.7999C113.987 44.5402 115.02 43.61 116.206 43.0094C117.393 42.3942 118.726 42.0865 120.205 42.0865C123.369 42.0865 125.522 43.2291 126.665 45.5143C127.28 46.7448 127.588 48.4 127.588 50.4801V66.1466H123.479V49.799C123.479 48.2316 123.083 47.1549 122.292 46.569C121.516 45.983 120.564 45.6901 119.436 45.6901C117.883 45.6901 116.543 46.2101 115.415 47.2501C114.302 48.2902 113.745 50.026 113.745 52.4576V66.1466H109.724V50.7877C109.724 49.191 109.534 48.0265 109.153 47.2941C108.552 46.1954 107.432 45.6461 105.791 45.6461C104.297 45.6461 102.935 46.2247 101.704 47.382C100.488 48.5392 99.8804 50.6339 99.8804 53.6661V66.1466H95.9253V42.6139ZM143.21 42.0865C144.88 42.0865 146.499 42.4821 148.066 43.2731C149.634 44.0494 150.828 45.0602 151.648 46.3053C152.439 47.4918 152.966 48.8761 153.23 50.4581C153.464 51.5421 153.582 53.2706 153.582 55.6437H136.333C136.406 58.0314 136.97 59.9503 138.025 61.4005C139.08 62.8361 140.713 63.5538 142.925 63.5538C144.99 63.5538 146.638 62.8727 147.869 61.5104C148.572 60.7194 149.07 59.8038 149.363 58.7638H153.252C153.149 59.6281 152.805 60.5948 152.219 61.6642C151.648 62.7189 151.003 63.5831 150.286 64.257C149.084 65.4288 147.598 66.2198 145.825 66.63C144.873 66.8644 143.796 66.9816 142.595 66.9816C139.666 66.9816 137.183 65.9196 135.146 63.7955C133.11 61.6569 132.092 58.6686 132.092 54.8307C132.092 51.0514 133.118 47.9825 135.168 45.6241C137.219 43.2657 139.9 42.0865 143.21 42.0865ZM149.517 52.5016C149.355 50.7877 148.982 49.4181 148.396 48.3927C147.312 46.4884 145.503 45.5363 142.969 45.5363C141.152 45.5363 139.629 46.1954 138.398 47.5138C137.168 48.8175 136.516 50.4801 136.443 52.5016H149.517Z" fill="black"/>
<path d="M50.0244 87.1935H52.3994L45.1182 110.147H42.7432L50.0244 87.1935ZM63.0557 94.0841C63.5869 94.4487 64.1286 94.9799 64.6807 95.6779V93.5685H67.2744V108.787C67.2744 110.912 66.9619 112.589 66.3369 113.818C65.1702 116.089 62.9671 117.225 59.7275 117.225C57.9255 117.225 56.4098 116.818 55.1807 116.006C53.9515 115.204 53.264 113.943 53.1182 112.225H55.9775C56.113 112.975 56.3838 113.553 56.79 113.959C57.4255 114.584 58.4255 114.897 59.79 114.897C61.9463 114.897 63.3577 114.136 64.0244 112.615C64.4202 111.72 64.6025 110.121 64.5713 107.818C64.0088 108.673 63.3317 109.308 62.54 109.725C61.7484 110.141 60.7015 110.35 59.3994 110.35C57.5869 110.35 55.9984 109.709 54.6338 108.428C53.2796 107.136 52.6025 105.006 52.6025 102.037C52.6025 99.2351 53.2848 97.0476 54.6494 95.4747C56.0244 93.9018 57.6807 93.1154 59.6182 93.1154C60.9307 93.1154 62.0765 93.4383 63.0557 94.0841ZM60.1338 95.5997C58.1546 95.5997 56.8005 96.5268 56.0713 98.381C55.6859 99.3706 55.4932 100.667 55.4932 102.272C55.4932 104.157 55.8734 105.595 56.6338 106.584C57.4046 107.563 58.4359 108.053 59.7275 108.053C61.7484 108.053 63.1702 107.141 63.9932 105.318C64.4515 104.287 64.6807 103.084 64.6807 101.709C64.6807 99.6362 64.2536 98.0997 63.3994 97.0997C62.5452 96.0997 61.4567 95.5997 60.1338 95.5997ZM73.6807 105.693C73.6807 106.506 73.9775 107.147 74.5713 107.615C75.165 108.084 75.8682 108.318 76.6807 108.318C77.6702 108.318 78.6286 108.089 79.5557 107.631C81.1182 106.871 81.8994 105.626 81.8994 103.897V101.631C81.5557 101.85 81.113 102.032 80.5713 102.178C80.0296 102.324 79.4984 102.428 78.9775 102.49L77.2744 102.709C76.2536 102.845 75.488 103.058 74.9775 103.35C74.113 103.839 73.6807 104.621 73.6807 105.693ZM80.4932 100.006C81.139 99.9226 81.5713 99.6518 81.79 99.1935C81.915 98.9435 81.9775 98.5841 81.9775 98.1154C81.9775 97.157 81.6338 96.4643 80.9463 96.0372C80.2692 95.5997 79.2952 95.381 78.0244 95.381C76.5557 95.381 75.514 95.7768 74.8994 96.5685C74.5557 97.006 74.3317 97.657 74.2275 98.5216H71.6025C71.6546 96.4591 72.3213 95.0268 73.6025 94.2247C74.8942 93.4122 76.389 93.006 78.0869 93.006C80.0557 93.006 81.6546 93.381 82.8838 94.131C84.1025 94.881 84.7119 96.0476 84.7119 97.631V107.272C84.7119 107.563 84.7692 107.798 84.8838 107.975C85.0088 108.152 85.264 108.24 85.6494 108.24C85.7744 108.24 85.915 108.235 86.0713 108.225C86.2275 108.204 86.3942 108.178 86.5713 108.147V110.225C86.1338 110.35 85.8005 110.428 85.5713 110.459C85.3421 110.49 85.0296 110.506 84.6338 110.506C83.665 110.506 82.9619 110.162 82.5244 109.475C82.2952 109.11 82.1338 108.595 82.04 107.928C81.4671 108.678 80.6442 109.329 79.5713 109.881C78.4984 110.433 77.3161 110.709 76.0244 110.709C74.4723 110.709 73.2015 110.24 72.2119 109.303C71.2327 108.355 70.7432 107.173 70.7432 105.756C70.7432 104.204 71.2275 103.001 72.1963 102.147C73.165 101.292 74.4359 100.766 76.0088 100.568L80.4932 100.006ZM73.0869 89.1622H83.0869V91.006H73.0869V89.1622ZM89.3369 93.4122H92.1182V95.7872C92.7848 94.9643 93.389 94.3654 93.9307 93.9904C94.8577 93.3549 95.9098 93.0372 97.0869 93.0372C98.4202 93.0372 99.4932 93.3654 100.306 94.0216C100.764 94.3966 101.181 94.9487 101.556 95.6779C102.181 94.782 102.915 94.1206 103.759 93.6935C104.603 93.256 105.55 93.0372 106.603 93.0372C108.853 93.0372 110.384 93.8497 111.196 95.4747C111.634 96.3497 111.853 97.5268 111.853 99.006V110.147H108.931V98.5216C108.931 97.407 108.649 96.6414 108.087 96.2247C107.535 95.8081 106.858 95.5997 106.056 95.5997C104.951 95.5997 103.998 95.9695 103.196 96.7091C102.405 97.4487 102.009 98.6831 102.009 100.412V110.147H99.1494V99.2247C99.1494 98.0893 99.014 97.2612 98.7432 96.7404C98.3161 95.9591 97.5192 95.5685 96.3525 95.5685C95.29 95.5685 94.3213 95.9799 93.4463 96.8029C92.5817 97.6258 92.1494 99.1154 92.1494 101.272V110.147H89.3369V93.4122ZM121.212 87.1935H123.587L116.306 110.147H113.931L121.212 87.1935Z" fill="black"/>
<path d="M4.71045 319.504L813.553 3.7561" stroke="black" stroke-width="5" stroke-linecap="round" stroke-linejoin="round"/>
<path d="M813.554 319.504L4.71069 3.7561" stroke="black" stroke-width="5" stroke-linecap="round" stroke-linejoin="round"/>
</svg>
