<svg width="36" height="35" viewBox="0 0 36 35" fill="none" xmlns="http://www.w3.org/2000/svg">
    <path d="M18.2665 0.4729C8.59806 0.4729 0.76709 8.30824 0.76709 17.9723C0.76709 25.7055 5.78066 32.2634 12.7323 34.5748C13.6072 34.7396 13.9281 34.1986 13.9281 33.7334C13.9281 33.3178 13.9135 32.2167 13.9062 30.7585C9.03846 31.8143 8.01183 28.4106 8.01183 28.4106C7.21561 26.3909 6.06502 25.8514 6.06502 25.8514C4.47987 24.7664 6.18752 24.7883 6.18752 24.7883C7.94475 24.9108 8.86784 26.5907 8.86784 26.5907C10.4282 29.2666 12.9641 28.4938 13.9645 28.0461C14.122 26.9144 14.5726 26.143 15.0728 25.7055C11.1865 25.268 7.10186 23.7631 7.10186 17.0579C7.10186 15.1476 7.77996 13.5872 8.90284 12.3623C8.70597 11.9204 8.11537 10.1413 9.05596 7.73076C9.05596 7.73076 10.5215 7.2612 13.8683 9.52445C15.2682 9.13509 16.7557 8.94259 18.2431 8.93384C19.7306 8.94259 21.218 9.13509 22.618 9.52445C25.9428 7.2612 27.4084 7.73076 27.4084 7.73076C28.349 10.1413 27.7584 11.9204 27.5834 12.3623C28.699 13.5872 29.3771 15.1476 29.3771 17.0579C29.3771 23.7806 25.2866 25.2607 21.393 25.6909C22.0055 26.2159 22.5742 27.2892 22.5742 28.9283C22.5742 31.2703 22.5523 33.1515 22.5523 33.7202C22.5523 34.1796 22.8586 34.7264 23.7554 34.5515C30.7566 32.2561 35.7658 25.6939 35.7658 17.9723C35.7658 8.30824 27.9305 0.4729 18.2665 0.4729Z"
          fill="black"/>
</svg>
