<svg width="21" height="21" viewBox="0 0 21 21" fill="none" xmlns="http://www.w3.org/2000/svg">
<path d="M20.17 8.55888C20.2972 9.23819 20.3666 9.94948 20.3666 10.6924C20.3667 16.4963 16.481 20.6238 10.6135 20.6238C5.00027 20.6238 0.453613 16.0771 0.453613 10.4639C0.453613 4.85061 5.00027 0.303955 10.6135 0.303955C13.3569 0.303955 15.6488 1.31351 17.4081 2.95182L14.5438 5.8158V5.80927C13.4772 4.79319 12.1247 4.27261 10.6135 4.27261C7.2609 4.27261 4.53674 7.10466 4.53674 10.4576C4.53674 13.8099 7.26085 16.6488 10.6135 16.6488C13.6552 16.6488 15.7251 14.9088 16.1512 12.5213H10.6135V8.55888H20.17Z" fill="white"/>
</svg>
