<?xml version="1.0" encoding="UTF-8" standalone="no"?>
<svg
   xmlns:dc="http://purl.org/dc/elements/1.1/"
   xmlns:cc="http://creativecommons.org/ns#"
   xmlns:rdf="http://www.w3.org/1999/02/22-rdf-syntax-ns#"
   xmlns:svg="http://www.w3.org/2000/svg"
   xmlns="http://www.w3.org/2000/svg"
   xmlns:sodipodi="http://sodipodi.sourceforge.net/DTD/sodipodi-0.dtd"
   xmlns:inkscape="http://www.inkscape.org/namespaces/inkscape"
   width="81.299171"
   height="95.052589"
   viewBox="0 0 81.299171 95.052589"
   version="1.1"
   id="svg28"
   sodipodi:docname="h.svg"
   inkscape:version="0.92.2 2405546, 2018-03-11"
   style="fill:none">
  <metadata
     id="metadata34">
    <rdf:RDF>
      <cc:Work
         rdf:about="">
        <dc:format>image/svg+xml</dc:format>
        <dc:type
           rdf:resource="http://purl.org/dc/dcmitype/StillImage" />
        <dc:title></dc:title>
      </cc:Work>
    </rdf:RDF>
  </metadata>
  <defs
     id="defs32" />
  <sodipodi:namedview
     pagecolor="#ffffff"
     bordercolor="#666666"
     borderopacity="1"
     objecttolerance="10"
     gridtolerance="10"
     guidetolerance="10"
     inkscape:pageopacity="0"
     inkscape:pageshadow="2"
     inkscape:window-width="1920"
     inkscape:window-height="1058"
     id="namedview30"
     showgrid="false"
     inkscape:zoom="2.2160457"
     inkscape:cx="-67.438765"
     inkscape:cy="162.78904"
     inkscape:window-x="0"
     inkscape:window-y="1462"
     inkscape:window-maximized="0"
     inkscape:current-layer="svg28"
     fit-margin-top="0"
     fit-margin-left="0"
     fit-margin-right="0"
     fit-margin-bottom="0" />
  <path
     id="path841"
     d="m 45.801875,21.215912 10e-5,-2.75 h -10e-5 z m -32.7472,32.7929 -2.75,-10e-5 v 10e-5 z m 0,36.0537 h -2.75 c 0,1.3464 0.9748,2.4948 2.3034,2.7135 z m 65.4945,0 0.3189,2.7314 c 1.386,-0.1618 2.4311,-1.336 2.4311,-2.7314 z m 0,-36.0537 h 2.75 v -10e-5 z m -32.7473,-35.5429 c -19.6081,2e-4 -35.4969,15.9168 -35.4972,35.5428 l 5.5,10e-5 c 2e-4,-16.5958 13.4339,-30.0427 29.9973,-30.0429 z m -35.4972,35.5429 v 36.0537 h 5.5 v -36.0537 z m 2.3034,38.7672 c 19.088,3.142 41.3955,2.9212 66.26,0.0179 l -0.6379,-5.4629 c -24.5616,2.8679 -46.3179,3.0486 -64.7288,0.018 z m 68.6911,-2.7135 v -36.0537 h -5.5 v 36.0537 z m 0,-36.0538 c -3e-4,-19.626 -15.8892,-35.5426 -35.4972,-35.5428 l -10e-5,5.5 c 16.5633,2e-4 29.997,13.4471 29.9973,30.0429 z"
     inkscape:connector-curvature="0"
     style="fill:#000000;fill-opacity:1" />
  <path
     d="m 52.555675,2.750004 h -12.8242 v 17.44086 h 12.8242 z"
     id="path2"
     inkscape:connector-curvature="0"
     style="fill:#ffdd9b" />
  <path
     d="M 39.731475,2.750004 V 0 c -1.5188,0 -2.75,1.231214 -2.75,2.750004 z m 12.8242,0 h 2.75 C 55.305675,1.231214 54.074375,0 52.555675,0 Z m 0,17.44086 v 2.75 c 1.5187,0 2.75,-1.2312 2.75,-2.75 z m -12.8242,0 h -2.75 c 0,1.5188 1.2312,2.75 2.75,2.75 z m 0,-14.69086 h 12.8242 V 0 h -12.8242 z m 10.0742,-2.75 v 17.44086 h 5.5 V 2.750004 Z m 2.75,14.69086 h -12.8242 v 5.5 h 12.8242 z m -10.0742,2.75 V 2.750004 h -5.5 v 17.44086 z"
     id="path4"
     inkscape:connector-curvature="0"
     style="fill:#000000" />
  <path
     d="m 45.801875,15.896264 c -18.0857,2e-4 -32.7469,14.682 -32.7472,32.7929 v 36.0537 c 18.7495,3.0863 40.7814,2.8856 65.4945,0 v -36.0537 c -3e-4,-18.1109 -14.6616,-32.7927 -32.7473,-32.7929 z"
     id="path6"
     inkscape:connector-curvature="0"
     style="fill:#ffdd9b" />
  <path
     d="m 45.801875,15.896264 10e-5,-2.75 h -10e-5 z m -32.7472,32.7929 -2.75,-10e-5 v 10e-5 z m 0,36.0537 h -2.75 c 0,1.3464 0.9748,2.4948 2.3034,2.7135 z m 65.4945,0 0.3189,2.7314 c 1.386,-0.1618 2.4311,-1.336 2.4311,-2.7314 z m 0,-36.0537 h 2.75 v -10e-5 z m -32.7473,-35.5429 c -19.6081,2e-4 -35.4969,15.9168 -35.4972,35.5428 l 5.5,10e-5 c 2e-4,-16.5958 13.4339,-30.0427 29.9973,-30.0429 z m -35.4972,35.5429 v 36.0537 h 5.5 v -36.0537 z m 2.3034,38.7672 c 19.088,3.142 41.3955,2.9212 66.26,0.0179 l -0.6379,-5.4629 c -24.5616,2.8679 -46.3179,3.0486 -64.7288,0.018 z m 68.6911,-2.7135 v -36.0537 h -5.5 v 36.0537 z m 0,-36.0538 c -3e-4,-19.626 -15.8892,-35.5426 -35.4972,-35.5428 l -10e-5,5.5 c 16.5633,2e-4 29.997,13.4471 29.9973,30.0429 z"
     id="path8"
     inkscape:connector-curvature="0"
     style="fill:#000000" />
  <path
     d="m 16.213475,63.744764 c 4.3571,0 7.8892,-3.5321 7.8892,-7.8892 0,-4.3571 -3.5321,-7.8893 -7.8892,-7.8893 -4.3571,0 -7.88926,3.5322 -7.88926,7.8893 0,4.3571 3.53216,7.8892 7.88926,7.8892 z"
     id="path10"
     inkscape:connector-curvature="0"
     style="fill:#000000" />
  <path
     d="m 21.352675,55.855564 c 0,2.8383 -2.3009,5.1392 -5.1392,5.1392 v 5.5 c 5.8758,0 10.6392,-4.7633 10.6392,-10.6392 z m -5.1392,5.1392 c -2.8384,0 -5.1393,-2.3009 -5.1393,-5.1392 h -5.49996 c 0,5.8759 4.76336,10.6392 10.63926,10.6392 z m -5.1393,-5.1392 c 0,-2.8383 2.301,-5.1393 5.1393,-5.1393 v -5.5 c -5.8759,0 -10.63926,4.7634 -10.63926,10.6393 z m 5.1393,-5.1393 c 2.8383,0 5.1392,2.301 5.1392,5.1393 h 5.5 c 0,-5.8759 -4.7633,-10.6393 -10.6392,-10.6393 z"
     id="path12"
     inkscape:connector-curvature="0"
     style="fill:#000000" />
  <path
     d="m 10.639175,64.257664 c 4.3571,0 7.8893,-3.5321 7.8893,-7.8892 0,-4.3571 -3.5322,-7.8892 -7.8893,-7.8892 -4.35705,0 -7.88918,3.5321 -7.88918,7.8892 0,4.3571 3.53213,7.8892 7.88918,7.8892 z"
     id="path14"
     inkscape:connector-curvature="0"
     style="fill:#ffdd9b" />
  <path
     d="m 15.778475,56.368464 c 0,2.8383 -2.3009,5.1392 -5.1393,5.1392 v 5.5 c 5.8759,0 10.6393,-4.7633 10.6393,-10.6392 z m -5.1393,5.1392 c -2.83826,0 -5.13918,-2.3009 -5.13918,-5.1392 H 0 c 0,5.8759 4.763335,10.6392 10.639175,10.6392 z m -5.13918,-5.1392 c 0,-2.8383 2.30091,-5.1392 5.13918,-5.1392 v -5.5 C 4.763335,45.729264 0,50.492564 0,56.368464 Z m 5.13918,-5.1392 c 2.8384,0 5.1393,2.3009 5.1393,5.1392 h 5.5 c 0,-5.8759 -4.7634,-10.6392 -10.6393,-10.6392 z"
     id="path16"
     inkscape:connector-curvature="0"
     style="fill:#000000" />
  <path
     d="m 55.212475,63.744764 c 4.3571,0 7.8892,-3.5321 7.8892,-7.8892 0,-4.3571 -3.5321,-7.8893 -7.8892,-7.8893 -4.3571,0 -7.8892,3.5322 -7.8892,7.8893 0,4.3571 3.5321,7.8892 7.8892,7.8892 z"
     id="path18"
     inkscape:connector-curvature="0"
     style="fill:#000000" />
  <path
     d="m 60.351675,55.855564 c 0,2.8383 -2.3009,5.1392 -5.1392,5.1392 v 5.5 c 5.8759,0 10.6392,-4.7633 10.6392,-10.6392 z m -5.1392,5.1392 c -2.8383,0 -5.1392,-2.3009 -5.1392,-5.1392 h -5.5 c 0,5.8759 4.7633,10.6392 10.6392,10.6392 z m -5.1392,-5.1392 c 0,-2.8383 2.3009,-5.1393 5.1392,-5.1393 v -5.5 c -5.8759,0 -10.6392,4.7634 -10.6392,10.6393 z m 5.1392,-5.1393 c 2.8383,0 5.1392,2.301 5.1392,5.1393 h 5.5 c 0,-5.8759 -4.7633,-10.6393 -10.6392,-10.6393 z"
     id="path20"
     inkscape:connector-curvature="0"
     style="fill:#000000" />
  <path
     d="m 57.938075,63.744764 c 4.3571,0 7.8892,-3.5321 7.8892,-7.8892 0,-4.3571 -3.5321,-7.8893 -7.8892,-7.8893 -4.3571,0 -7.8892,3.5322 -7.8892,7.8893 0,4.3571 3.5321,7.8892 7.8892,7.8892 z"
     id="path22"
     inkscape:connector-curvature="0"
     style="fill:#ffdd9b" />
  <path
     d="m 63.077275,55.855564 c 0,2.8383 -2.3009,5.1392 -5.1392,5.1392 v 5.5 c 5.8759,0 10.6392,-4.7633 10.6392,-10.6392 z m -5.1392,5.1392 c -2.8383,0 -5.1392,-2.3009 -5.1392,-5.1392 h -5.5 c 0,5.8759 4.7633,10.6392 10.6392,10.6392 z m -5.1392,-5.1392 c 0,-2.8383 2.3009,-5.1393 5.1392,-5.1393 v -5.5 c -5.8759,0 -10.6392,4.7634 -10.6392,10.6393 z m 5.1392,-5.1393 c 2.8383,0 5.1392,2.301 5.1392,5.1393 h 5.5 c 0,-5.8759 -4.7633,-10.6393 -10.6392,-10.6393 z"
     id="path24"
     inkscape:connector-curvature="0"
     style="fill:#000000" />
  <path
     d="m 13.624775,70.735464 c -1.485,-0.3186 -2.9471,0.627 -3.2657,2.1119 -0.3186,1.485 0.6269,2.9471 2.1119,3.2658 z m 41.8266,6.4544 c 1.513,-0.1317 2.6328,-1.4651 2.5011,-2.9781 -0.1317,-1.5131 -1.4651,-2.6329 -2.9782,-2.5011 z m -42.9804,-1.0767 c 18.3104,3.9287 28.2525,2.3589 42.9804,1.0767 l -0.4771,-5.4792 c -14.8382,1.2918 -23.9701,2.7538 -41.3495,-0.9752 z"
     id="path26"
     inkscape:connector-curvature="0"
     style="fill:#000000" />
</svg>
