<svg width="167" height="166" viewBox="0 0 167 166" fill="none" xmlns="http://www.w3.org/2000/svg">
<path d="M102.805 0.000329456C100.29 -0.00285219 97.8339 0.177112 96.0114 0.552769C90.4991 1.68891 86.6255 4.17506 86.6255 6.57615C86.6255 7.32997 86.551 7.29818 85.0769 5.91932C82.1465 3.17826 78.4222 1.83097 73.7398 1.81859C70.2061 1.80927 68.0188 2.35899 63.4019 4.41611C61.437 5.29163 59.4407 6.00818 58.9657 6.00818C58.4906 6.00818 57.11 5.66242 55.8983 5.24011C50.6006 3.39368 44.71 2.83021 37.1508 3.44733C34.526 3.66163 31.8322 3.93193 31.1647 4.04761L29.9517 4.25827L31.4972 5.43523C35.1868 8.24565 38.2913 12.2473 38.3216 14.2314C38.3704 17.422 34.8925 20.3349 24.5578 25.7586C10.9303 32.9105 8.69017 34.6002 5.29395 40.2917C1.04504 47.4121 -0.471526 54.1835 0.124391 63.3686C0.518743 69.4469 1.53966 74.5296 3.44462 79.8995C4.78735 83.6846 5.45821 84.6594 9.32197 88.4359C11.6311 90.6929 13.1751 92.4605 13.3115 93.0039C13.4883 93.7083 13.1379 94.7162 11.6051 97.9125C8.63698 104.102 8.04405 106.598 8.04309 112.912C8.04182 121.717 10.6432 131.287 14.8078 137.797C19.4648 145.077 27.7991 152.033 37.7816 156.971C54.5607 165.272 72.4945 166.927 92.9888 162.067C99.2492 160.583 102.682 160.229 106.919 160.63C112.331 161.143 113.842 161.864 114.419 164.208C114.536 164.684 115.024 165.287 115.503 165.547C117.504 166.632 119.923 165.768 122.725 162.966C126.212 159.479 127.669 154.905 127.669 147.446C127.669 143.319 127.697 143.137 128.319 143.137C129.702 143.137 133.98 142.089 136.187 141.21C141.177 139.22 144.994 136.062 150.772 129.138C155.816 123.093 160.069 116.344 162.024 111.282C163.164 108.331 164.967 101.418 165.658 97.3451C166.297 93.5767 166.306 88.2467 165.676 85.5774C164.942 82.4604 163.466 79.6645 161.663 77.9719C159.759 76.1849 159.76 75.9985 161.714 70.9138C163.531 66.1878 163.94 64.382 163.94 61.0998C163.94 55.319 162.674 52.2213 158.647 48.1489C157.2 46.6858 155.802 45.0748 155.541 44.5695C154.739 43.0178 154.619 40.6449 155.035 34.5523C155.254 31.3342 155.33 27.7303 155.203 26.5435L154.973 24.3853L153.65 24.5581C152.922 24.6529 150.537 25.1146 148.35 25.584C145.272 26.2445 143.828 26.4012 141.966 26.2788C137.229 25.9673 135.139 24.3533 129.911 16.9662C121.966 5.7397 118.523 2.7208 111.583 0.893304C109.37 0.310636 106.038 0.00429697 102.805 0.000329456H102.805Z" fill="#FF6172"/>
<path d="M115.504 165.547C115.025 165.287 114.537 164.684 114.419 164.207C113.842 161.863 112.331 161.143 106.919 160.63C102.682 160.228 99.2499 160.583 92.9895 162.067C72.4951 166.927 54.5611 165.271 37.782 156.971C27.7995 152.032 19.4653 145.077 14.8083 137.797C10.6437 131.286 8.04241 121.717 8.04369 112.911C8.04461 106.598 8.63743 104.101 11.6055 97.9123C13.1383 94.716 13.4888 93.708 13.312 93.0036C13.1756 92.4602 11.6318 90.6924 9.32262 88.4354C5.45885 84.6589 4.78771 83.6842 3.44498 79.8991C1.54003 74.5291 0.519201 69.4465 0.124861 63.3682C-0.471057 54.1831 1.04587 47.412 5.29477 40.2916C8.691 34.6002 10.9308 32.9104 24.5584 25.7585C34.893 20.3347 38.3711 17.4219 38.3223 14.2313C38.292 12.2472 35.1872 8.24556 31.4976 5.43514L29.952 4.25785L31.1655 4.04741C31.8329 3.93172 34.5266 3.66165 37.1515 3.44735C44.7107 2.83023 50.6014 3.39348 55.8992 5.23991C57.1108 5.66222 58.4909 6.00775 58.966 6.00775C59.4411 6.00775 61.4375 5.29143 63.4024 4.41592C68.0192 2.35879 70.2067 1.80918 73.7405 1.81851C78.4228 1.8309 82.1472 3.17792 85.0776 5.91897C86.5517 7.29783 86.6262 7.32941 86.6262 6.57559C86.6262 4.1745 90.4998 1.68877 96.012 0.552625C100.178 -0.306018 107.65 -0.142537 111.584 0.893321C118.524 2.72082 121.967 5.73956 129.912 16.9661C135.14 24.3531 137.229 25.9672 141.966 26.2786C143.829 26.4011 145.273 26.2439 148.35 25.5835C150.538 25.1141 152.922 24.6524 153.65 24.5576L154.973 24.3852L155.204 26.543C155.331 27.7298 155.255 31.3338 155.035 34.5519C154.619 40.6445 154.739 43.0177 155.542 44.5694C155.803 45.0747 157.201 46.6853 158.647 48.1484C162.674 52.2208 163.94 55.3188 163.94 61.0996C163.94 64.3817 163.531 66.1874 161.715 70.9134C159.76 75.998 159.759 76.1848 161.663 77.9718C163.467 79.6644 164.942 82.4601 165.677 85.5771C166.306 88.2464 166.298 93.5761 165.659 97.3446C164.968 101.417 163.165 108.331 162.025 111.282C160.07 116.344 155.816 123.093 150.772 129.138C144.994 136.061 141.178 139.22 136.187 141.209C133.98 142.089 129.703 143.137 128.319 143.137C127.697 143.137 127.669 143.319 127.669 147.445C127.669 154.905 126.212 159.478 122.725 162.966C119.924 165.767 117.504 166.632 115.504 165.547ZM119.651 161.149C120.823 159.428 122.26 155.711 122.756 153.117C123.879 147.249 122.749 143.108 119.576 141.465C118.484 140.899 117.562 140.774 113.618 140.655C105.72 140.417 98.7639 141.547 91.3986 144.263C82.2878 147.624 78.367 148.378 70.0816 148.361C63.1176 148.347 60.0524 147.865 53.8552 145.812C43.5114 142.386 37.1537 137.327 31.5009 128.024C29.245 124.312 27.7992 121.401 24.5913 114.112C21.4049 106.871 20.2851 104.923 19.0647 104.494C17.995 104.119 17.4947 104.619 16.8637 106.697C16.3348 108.439 16.3632 117.593 16.9052 120.07C19.7069 132.874 25.8126 142.089 35.8789 148.705C46.5828 155.741 64.2547 160.119 77.635 159.05C83.9491 158.546 88.9366 157.423 97.4452 154.59C106.396 151.61 107.371 151.492 110.433 153.023C112.742 154.176 113.568 155.112 115.869 159.182C117.826 162.643 118.423 162.953 119.651 161.149H119.651ZM86.521 141.435C86.9066 141.042 85.1403 139.674 80.777 136.986C73.5917 132.559 71.3143 129.693 69.7372 123.092C69.1367 120.579 69.0052 119.066 68.9567 114.111L68.8984 108.152L67.0074 104.407C65.9673 102.347 63.825 98.1533 62.2466 95.0873C57.2848 85.4487 56.199 81.4813 56.5015 74.095C56.891 64.5853 60.1117 57.6402 66.2205 53.1369C70.665 49.8605 75.0023 48.3237 79.8046 48.3237C82.1273 48.3237 83.5031 48.5439 86.7629 49.4373C92.1095 50.9026 92.1657 50.9005 91.9431 49.2408C91.4969 45.9141 87.4266 40.4749 84.1308 38.8011C82.0647 37.7518 78.7574 37.1982 73.2633 36.9822C65.2632 36.6676 58.5947 37.9976 53.7875 40.8666C52.6873 41.5233 50.427 43.4341 48.7646 45.1129C40.7273 53.2293 33.9191 67.0115 31.2258 80.6174C30.5644 83.9591 30.4721 85.3088 30.4861 91.435C30.5009 97.8859 30.5713 98.7439 31.3826 102.378C33.9109 113.703 38.7213 122.95 45.725 129.947C50.8307 135.048 56.5774 138.658 61.6603 139.958C63.878 140.525 70.4168 141.386 74.5359 141.654C77.7588 141.863 86.2537 141.708 86.521 141.435H86.521ZM135.118 136.842C138.299 135.315 139.906 134.18 142.623 131.538C147.279 127.012 149.556 124.247 152.984 118.956C159.528 108.858 163.56 94.4125 162.041 86.5035C161.255 82.408 160.188 80.5109 158.9 80.9195C158.553 81.0297 157.598 81.9048 156.779 82.8643C155.521 84.3366 154.71 84.8891 151.581 86.4064C144.437 89.87 143.577 90.7152 139.391 98.386C136.038 104.532 133.915 107.57 131.21 110.096C128.254 112.858 125.897 114.481 122.485 116.108C118.281 118.112 116.459 118.48 110.807 118.47C105.26 118.46 102.548 117.937 100.685 116.516L99.5959 115.685L93.3497 115.906C86.1287 116.161 85.254 116.034 80.0038 113.97C75.7568 112.3 74.7417 112.267 74.5948 113.793C74.2882 116.977 77.9612 124.114 81.5818 127.369C84.8684 130.324 92.587 133.322 99.2456 134.231C101.114 134.486 104.085 134.571 107.518 134.467C113.761 134.277 116.795 133.558 121.183 131.229C124.775 129.322 126.942 127.657 131.128 123.587C137.807 117.093 141.843 111.653 145.668 103.985C147.569 100.177 149.39 95.4223 149.807 93.1791L150.073 91.7532L150.25 93.3819C150.509 95.7515 150.07 102.111 149.455 104.918C148.506 109.249 146.087 113.705 140.872 120.729C136.75 126.282 132.619 130.176 126.11 134.647C124.328 135.87 124.343 136.788 126.158 137.717C127.309 138.305 127.881 138.385 129.999 138.256C132.059 138.13 132.942 137.886 135.118 136.842H135.118ZM93.7976 108.606C96.8338 107.827 98.917 106.634 101.2 104.369C103.529 102.057 104.972 99.6234 105.995 96.2798C107.372 91.7796 107.123 87.7489 105.454 87.5124C104.867 87.4291 103.918 88.2228 100.841 91.3693C97.4935 94.7921 96.6224 95.4988 94.4369 96.5647L91.9073 97.7983H86.3237C81.3561 97.7983 80.4783 97.7161 78.3676 97.0533C75.5841 96.1793 72.4569 94.6429 70.2783 93.0792C68.5925 91.8692 68.0163 91.8601 67.7205 93.0389C67.1661 95.2476 69.2879 99.7768 72.272 102.754C75.4552 105.931 78.649 107.684 82.9672 108.626C85.6616 109.214 91.473 109.203 93.7976 108.606V108.606ZM116.786 107.315C120.409 106.569 123.713 105.184 126.929 103.066C135.078 97.6974 138.485 90.1075 139.008 76.1631C139.511 62.7519 135.749 53.3221 127.139 46.4147C118.695 39.6398 107.993 36.2334 95.1535 36.2334H90.3397L92.3805 38.387C98.1779 44.505 99.0888 46.422 99.1945 52.7281L99.2604 56.6552L102.091 58.4552C109.798 63.3571 110.931 64.5037 111.77 68.2494C112.561 71.778 111.998 76.4934 110.307 80.5124L109.478 82.4811L110.107 83.7764C111.585 86.8217 111.921 88.4357 111.902 92.3895C111.892 94.5003 111.7 96.8477 111.473 97.6393C110.72 100.262 108.784 103.771 107.068 105.625L105.371 107.458L106.259 107.591C108.576 107.94 114.507 107.785 116.786 107.315H116.786ZM92.4717 91.4367C95.0622 90.7558 96.173 89.9112 96.164 88.6294C96.1568 87.5384 95.4075 86.4007 94.4829 86.0755C93.7298 85.8107 92.1988 86.4706 89.8217 88.0849C87.5899 89.6005 83.598 91.5769 82.6581 91.6318C82.2023 91.6583 82.2931 91.7472 82.9672 91.9346C84.3545 92.3199 90.2958 92.0086 92.4717 91.4367ZM83.0444 84.7276C88.5347 83.5935 90.8931 81.2498 90.8621 76.9585C90.8244 71.7453 87.9254 69.3149 81.7622 69.3296C78.2438 69.338 76.8738 69.8586 75.0004 71.8994C73.294 73.7583 72.3558 75.7787 72.1109 78.1217C71.7945 81.149 72.6361 83.1303 74.6942 84.2031C76.8324 85.3175 79.4056 85.4792 83.0444 84.7276ZM148.541 82.1795C151.142 80.949 153.454 78.1803 155.692 73.6178C158.335 68.2289 159.302 64.4903 159.316 59.6129C159.327 55.9357 159.288 55.7104 158.303 53.7269C157.74 52.5925 156.403 50.6622 155.332 49.4373C152.052 45.6854 152.011 45.5601 152.01 39.0969C152.009 36.0346 152.08 32.312 152.166 30.8246C152.274 28.959 152.214 28.1401 151.974 28.1843C151.782 28.2195 150.136 28.5534 148.317 28.9264C144.159 29.7787 138.409 30.1037 136.812 29.5766C134.932 28.9561 133.134 27.0201 123.282 15.0031C116.646 6.90971 110.507 4.09876 99.4683 4.09876C94.5887 4.09876 92.9699 4.63943 91.6211 6.71969C90.4515 8.5235 90.5306 9.60881 92.0968 13.2477L93.4313 16.3481L93.4451 20.8024C93.4523 23.2523 93.3508 25.9896 93.2188 26.8854L92.9786 28.514L101.654 28.6913C113.965 28.9428 118.958 29.8268 124.685 32.7691C128.98 34.9757 131.292 36.6295 134.226 39.5913C137.108 42.5016 139.518 45.9494 141.329 49.7554C144.284 55.9626 144.648 58.6457 144.485 73.0229L144.369 83.3785L145.606 83.1806C146.286 83.0718 147.607 82.6213 148.541 82.1795ZM18.3799 82.4191C19.7175 81.6034 20.8125 79.3959 22.3512 74.4132C27.0433 59.2187 32.4744 48.7114 39.054 42.0985C43.9686 37.159 49.0485 34.0591 54.7197 32.539C57.5056 31.7922 58.45 31.7002 63.7183 31.6623C66.9556 31.6391 72.3962 31.747 75.8085 31.9022C86.5258 32.3895 87.666 31.7297 88.1166 24.7795C88.459 19.4991 86.7467 14.3608 83.046 9.56295C80.6331 6.43465 77.1719 4.6746 73.4223 4.6692C70.5839 4.66559 69.2545 5.02578 64.294 7.14569C62.0733 8.09474 59.8274 8.87124 59.3032 8.87124C58.7789 8.87124 56.8734 8.49955 55.0686 8.04527C51.5194 7.15191 44.1112 6.64664 42.1883 7.16676L41.18 7.43949L42.203 9.1894C44.3072 12.7888 45.5857 16.7001 45.5791 19.5171C45.5707 23.2391 43.7746 26.8607 40.7539 29.2484C38.6283 30.9287 33.2576 33.5241 27.6065 35.602C21.4225 37.8759 19.033 38.9523 16.592 40.5637C11.8732 43.6787 8.12375 50.1161 7.05716 56.9341C6.60637 59.8156 6.84355 66.0497 7.52382 69.2002C8.86556 75.4142 12.1448 80.829 15.5163 82.3976C17.0979 83.1334 17.2072 83.1343 18.3799 82.4191ZM100.406 80.445C102.21 78.8568 104.686 75.1886 105.275 73.2307C106.179 70.2271 105.448 66.8351 103.309 64.1096C101.957 62.3881 98.2565 60.0186 95.5188 59.1221C92.5416 58.1471 87.3375 58.0555 84.0808 58.9207C80.5287 59.8644 76.4449 62.1863 76.4449 63.2622C76.4449 63.4763 77.8298 63.5956 80.3163 63.5956C85.106 63.5956 87.8036 64.0331 90.3241 65.2185C94.9154 67.378 97.3342 71.7569 97.4704 78.1561C97.503 79.6848 97.5972 81.1146 97.6798 81.3333C97.955 82.062 98.9299 81.7443 100.406 80.445Z" fill="black"/>
</svg>
