<svg width="456" height="27" viewBox="0 0 456 27" fill="none" xmlns="http://www.w3.org/2000/svg">
<path d="M2.21344 17.4691C1.79497 19.5135 2.46628 21.7488 3.94188 23.2244C5.41748 24.7 7.65277 25.3713 9.69719 24.9528C11.3232 24.62 12.7776 23.6447 13.8554 22.3826C14.9333 21.1205 15.6545 19.5842 16.1306 17.9942C16.7452 15.9418 16.9755 13.7647 17.8631 11.8146C18.3069 10.8396 18.9203 9.92668 19.7465 9.24475C20.5727 8.56282 21.6243 8.12512 22.6953 8.1472C23.7106 8.16813 24.693 8.6003 25.4739 9.24949C26.2548 9.89868 26.8451 10.7546 27.2863 11.6693C28.1687 13.4986 28.4721 15.5471 29.1287 17.4691C29.7558 19.3045 30.7343 21.0576 32.1874 22.3424C32.9139 22.9848 33.7542 23.5036 34.6678 23.8289C35.5815 24.1541 36.5689 24.2831 37.5315 24.1651C39.1157 23.9708 40.5727 23.1113 41.6725 21.9546C42.7722 20.7979 43.5382 19.3583 44.0962 17.8629C44.9803 15.4935 45.3843 12.9245 46.6534 10.7369C47.2879 9.64318 48.1469 8.65575 49.241 8.02181C50.3351 7.38787 51.6795 7.13488 52.8929 7.49074C53.8904 7.78327 54.7453 8.46593 55.368 9.29824C55.9907 10.1305 56.3962 11.1074 56.6874 12.1052C57.27 14.1009 57.4246 16.2289 58.276 18.1255C58.9453 19.6166 60.0478 20.9221 61.4467 21.7672C62.8456 22.6124 64.5402 22.9816 66.1536 22.7208C67.4631 22.5092 68.6937 21.8928 69.701 21.0297C70.7083 20.1667 71.497 19.0632 72.0618 17.8629C72.8837 16.1165 73.2378 14.1802 74.0468 12.4277C74.4513 11.5514 74.9748 10.7183 75.6776 10.0569C76.3805 9.39553 77.2738 8.91319 78.2327 8.80368C79.0911 8.70563 79.9699 8.91018 80.7359 9.3099C81.5019 9.70961 82.1594 10.2977 82.706 10.9668C83.7992 12.305 84.4478 13.9398 85.1912 15.4997C85.9426 17.0763 86.8211 18.621 88.0574 19.8546C89.2938 21.0882 90.93 21.9931 92.675 22.0644C94.4638 22.1374 96.2146 21.3229 97.5254 20.1035C98.8362 18.8842 99.7454 17.2887 100.421 15.631C101.169 13.7985 101.662 11.8477 102.677 10.1491C103.185 9.29977 103.825 8.51853 104.625 7.93556C105.424 7.35259 106.391 6.97592 107.38 6.96556C108.32 6.95571 109.247 7.27625 110.033 7.79112C110.819 8.30599 111.471 9.00843 112.004 9.78207C113.071 11.3294 113.672 13.1413 114.47 14.8432C115.261 16.5309 116.273 18.1462 117.669 19.3818C119.064 20.6173 120.878 21.4481 122.741 21.4079C124.438 21.3712 126.063 20.6206 127.39 19.5629C128.717 18.5052 129.777 17.1523 130.75 15.7622C131.836 14.2123 132.839 12.5889 134.15 11.2239C135.46 9.85891 137.141 8.74866 139.022 8.54108C140.263 8.40405 141.532 8.67064 142.664 9.19839C143.796 9.72615 144.798 10.5073 145.67 11.4019C147.414 13.191 148.638 15.4082 150.05 17.4691C151.302 19.2953 152.729 21.0278 154.483 22.3782C156.237 23.7287 158.344 24.6838 160.554 24.8215C162.634 24.9512 164.731 24.3456 166.501 23.2457C168.271 22.1459 169.721 20.568 170.795 18.782C172.063 16.6723 172.817 14.2905 174.019 12.1427C174.621 11.0688 175.34 10.0495 176.246 9.2165C177.152 8.38346 178.255 7.74135 179.46 7.49074C180.906 7.19013 182.437 7.46953 183.766 8.11314C185.094 8.75675 186.232 9.74765 187.193 10.8688C189.114 13.1109 190.347 15.8548 192.065 18.2568C193.343 20.0457 194.92 21.6628 196.852 22.7129C198.784 23.7629 201.1 24.206 203.225 23.6399C204.98 23.1722 206.509 22.0514 207.72 20.6971C208.93 19.3429 209.85 17.7572 210.708 16.1561C211.921 13.8943 213.055 11.5372 214.837 9.69044C215.728 8.76709 216.779 7.98286 217.966 7.49603C219.153 7.00919 220.482 6.83047 221.737 7.09686C222.743 7.31028 223.678 7.80244 224.476 8.44995C225.275 9.09747 225.941 9.89737 226.503 10.7579C227.628 12.479 228.34 14.4297 229.221 16.2874C230.428 18.8343 232.057 21.3165 234.499 22.7252C235.719 23.4295 237.126 23.839 238.534 23.7825C239.943 23.7261 241.346 23.1842 242.35 22.1957C243.142 21.4163 243.661 20.3989 244.035 19.3529C244.41 18.307 244.653 17.219 244.976 16.1561C245.734 13.6645 246.987 11.2503 248.981 9.57444C249.978 8.73651 251.151 8.09727 252.414 7.78067C253.677 7.46406 255.03 7.47748 256.267 7.88462C257.719 8.36255 258.959 9.35985 259.933 10.5385C260.906 11.7171 261.634 13.0765 262.307 14.4493C263.162 16.1944 263.948 17.9957 265.136 19.5334C265.73 20.3022 266.424 21.0005 267.23 21.5428C268.036 22.0852 268.958 22.4684 269.922 22.5895C271.004 22.7255 272.116 22.5269 273.117 22.0942C274.118 21.6614 275.011 21.0004 275.775 20.2226C277.304 18.6669 278.305 16.6804 279.244 14.7119C280.113 12.8909 280.974 11.0192 282.363 9.55596C283.057 8.82436 283.882 8.20481 284.814 7.81902C285.746 7.43324 286.789 7.28928 287.778 7.49074C288.649 7.66832 289.455 8.10783 290.132 8.68437C290.809 9.2609 291.363 9.97145 291.829 10.7284C292.763 12.2423 293.357 13.9399 294.211 15.4997C294.748 16.4786 295.391 17.4077 296.2 18.1776C297.008 18.9474 297.988 19.5546 299.069 19.8324C300.08 20.0922 301.158 20.0569 302.167 19.7863C303.175 19.5157 304.115 19.0146 304.938 18.3728C306.585 17.0893 307.744 15.2786 308.654 13.399C309.619 11.4038 310.35 9.27265 311.644 7.47308C312.291 6.57329 313.08 5.76296 314.026 5.18562C314.971 4.60827 316.082 4.27298 317.188 4.33968C318.17 4.39892 319.121 4.77293 319.929 5.33527C320.737 5.89761 321.407 6.64299 321.95 7.46356C323.038 9.10469 323.619 11.0184 324.278 12.8738C324.883 14.5798 325.573 16.2769 326.622 17.7525C327.67 19.2281 329.113 20.4798 330.842 21.014C331.94 21.3529 333.122 21.3923 334.25 21.1789C335.379 20.9654 336.454 20.5031 337.416 19.8753C339.339 18.6196 340.78 16.7332 341.871 14.7119C343.043 12.5404 343.857 10.1779 345.177 8.09309C345.837 7.05068 346.627 6.07929 347.593 5.31124C348.559 4.5432 349.708 3.98403 350.93 3.8145C352.225 3.63489 353.563 3.90026 354.74 4.46754C355.918 5.03483 356.941 5.89429 357.788 6.88994C359.482 8.88124 360.464 11.3651 361.434 13.7928C362.386 16.1754 363.388 18.6037 365.104 20.5107C365.963 21.4642 366.997 22.2735 368.174 22.7824C369.352 23.2914 370.678 23.4897 371.937 23.246C373.141 23.0131 374.249 22.3852 375.15 21.554C376.051 20.7228 376.755 19.6939 377.311 18.6013C378.423 16.416 378.957 13.9893 379.815 11.6921C380.675 9.38975 381.891 7.17595 383.675 5.48607C385.46 3.79618 387.863 2.67113 390.319 2.76415C391.62 2.81346 392.899 3.19938 394.05 3.81039C395.2 4.4214 396.225 5.25362 397.119 6.20139C398.906 8.09693 400.157 10.4248 401.347 12.7425C402.604 15.1901 403.858 17.7164 405.864 19.5987C406.868 20.5399 408.055 21.3037 409.371 21.7072C410.686 22.1107 412.133 22.1391 413.426 21.6705C414.386 21.323 415.238 20.7133 415.939 19.9717C416.64 19.23 417.193 18.3586 417.643 17.4426C418.541 15.6106 419.029 13.609 419.728 11.6921C420.384 9.89476 421.25 8.13814 422.565 6.74798C423.879 5.35782 425.693 4.36191 427.606 4.33968C428.886 4.3248 430.151 4.74444 431.237 5.4238C432.322 6.10316 433.235 7.03388 433.995 8.06431C435.515 10.1252 436.428 12.5581 437.584 14.8432C438.46 16.5752 439.498 18.2515 440.889 19.6044C442.281 20.9572 444.059 21.9733 445.987 22.1957C448.107 22.44 450.321 21.6686 451.829 20.16C453.338 18.6514 454.109 16.4374 453.865 14.318" stroke="#C8C7FF" stroke-width="3.54" stroke-linecap="round" stroke-linejoin="round"/>
</svg>
